<?xml version="1.0" encoding="UTF-8"?>
<svg id="Layer_2" xmlns="http://www.w3.org/2000/svg" viewBox="0 0 13.67 19.81">
  <defs>
    <style>
      .cls-1 {
        fill: #fff;
      }
    </style>
  </defs>
  <g id="Layer_1-2" data-name="Layer_1">
    <g>
      <path class="cls-1" d="M9.05,16.44l-.03-.04-.02-.04c-.43-.88-.43-1.89-.43-3.16h-.7c0,1.37,0,2.44.5,3.47l.03.06.05.08c.17.28.31.68.39,1.06.08.43.07.79-.04,1.01-.04.07-.08.12-.14.16-.06.04-.15.07-.25.08h-3.18c-.11,0-.22-.05-.3-.15-.1-.11-.15-.27-.15-.45h0c0-.62.16-1.23.45-1.72l.03-.05.04-.07c.51-1.03.51-2.11.51-3.48h0s-.7,0-.7,0h0c0,1.28,0,2.29-.44,3.17l-.02.04-.02.04c-.35.6-.55,1.33-.55,2.07h0c0,.35.12.67.32.92.21.25.52.39.83.39h3.23c.23-.02.42-.09.59-.2.16-.11.28-.25.37-.43.18-.36.21-.87.1-1.46-.09-.46-.27-.93-.48-1.28Z"/>
      <path class="cls-1" d="M13.63,10.65l-.05-.24s-.01-.07-.02-.09v-.09c-.3-1.4-.46-2.83-.5-4.27v-.03s0-.02,0-.02c.03-1.68.22-3.38.57-5.04.04-.18.04-.37,0-.51-.03-.11-.07-.18-.1-.22-.1-.13-.26-.18-.44-.14h-.03c-.13.04-1.3.38-1.39.41h0c-1.51.47-3.2.72-4.88.72-1.46,0-2.89-.19-4.15-.55h-.01C2.16.46,1.05.16.6.02h-.03s-.03-.01-.03-.01c-.02,0-.04,0-.06,0C.33,0,.2.06.12.16c-.05.06-.08.12-.09.2-.05.22,0,.48.06.76v.04s.02.08.03.09v.09c.3,1.39.46,2.83.5,4.27v.03s0,.03,0,.03c-.03,1.68-.22,3.37-.57,5.04-.04.18-.04.37,0,.51.03.11.07.18.1.22.08.1.2.15.33.15.03,0,.07,0,.11-.01h.03c.13-.04,1.28-.37,1.4-.41h.02c.4-.13.83-.24,1.25-.33.15-.03.31-.06.46-.09l.2-.04-.25-.66-.08.02c-.16.03-.32.06-.48.1-.45.1-.89.21-1.31.35h0c-.08.02-.68.2-1.07.31.35-1.7.55-3.42.58-5.12v-.04s0-.04,0-.04c-.02-.81-.08-1.62-.18-2.43-.06-.46-.13-.92-.21-1.37-.03-.19-.07-.39-.11-.58v-.09s-.03-.06-.04-.1v-.04s-.03-.12-.05-.19c.54.15,1.34.37,1.71.48h0c1.32.38,2.82.58,4.34.58,1.76,0,3.51-.26,5.09-.75.08-.02.68-.19,1.07-.31-.07.34-.13.67-.19,1.01-.07.44-.14.88-.19,1.32-.11.93-.18,1.87-.19,2.8v.04s0,.04,0,.04c.04,1.47.21,2.95.5,4.38l.02.09s.01.06.02.1l.05.22s0,.01,0,.02c-.54-.16-1.35-.38-1.71-.48h0c-.17-.05-.35-.1-.52-.14-.21-.05-.42-.1-.61-.14l-.25-.05-.26.66.38.07c.19.04.39.08.58.13.16.04.33.08.49.13h.02c.44.12,1.55.43,2.02.57h.03s.03.01.03.01c.02,0,.04,0,.06,0,.15,0,.27-.06.36-.16.05-.06.08-.12.09-.2.03-.14.03-.32-.02-.57Z"/>
      <polygon class="cls-1" points="8.07 12.27 11.84 2.72 9.17 2.72 9.17 2.72 6.77 8.78 4.51 2.72 1.83 2.72 5.39 12.27 8.07 12.27"/>
    </g>
  </g>
</svg>