<?xml version="1.0" encoding="UTF-8"?>
<svg id="Layer_2" xmlns="http://www.w3.org/2000/svg" viewBox="0 0 117.28 65.7">
  <g id="Layer_1-2" data-name="Layer_1">
    <path d="M30.04,65.7c-.6,0-1.28-.44-1.3-1.04-.05-1.41.03-2.95.23-4.57.68-5.27,2.78-10.17,6.24-14.56.69-.88.69-1.8,0-2.66-3.36-4.2-8.49-6.6-14.09-6.6-4.26,0-8.36,1.46-11.52,4.11-4.33,3.63-6.59,8.31-6.71,13.91-.02.99-.59,1.63-1.44,1.63-.43,0-.79-.15-1.04-.41-.28-.29-.41-.7-.39-1.18.32-8.39,4.04-14.47,11.37-18.58.15-.08,2.5-1.35,2.5-1.35l-1.46-1.34c-2.78-2.56-4.38-5.96-4.51-9.56-.13-3.6,1.17-7.05,3.67-9.71,2.36-2.52,5.81-3.96,9.46-3.96,3.18,0,6.25,1.08,8.65,3.05,2.76,2.26,4.54,6.07,4.65,9.93.08,2.74-.64,6.74-4.49,10.29l-1.52,1.4,1.85.92c2.8,1.39,5.18,3.22,7.07,5.45l.77.91,11.45-6.8-1.68-1.27c-5.29-4.02-7.89-9.33-7.7-15.8.15-5.19,2.22-9.62,6.15-13.14,3.42-3.06,7.82-4.75,12.39-4.75,5.22,0,10.08,2.13,13.68,6.01,3.58,3.85,5.33,9.12,4.8,14.46-.53,5.38-3.27,10.11-7.73,13.33l-1.87,1.35,2.05,1.06c.46.24.92.46,1.37.69,1.04.52,2.01,1,2.96,1.56.95.56,1.86,1.2,2.83,1.87.43.3.88.61,1.33.91l1.06.71.82-.98c1.95-2.32,4.31-4.15,7.22-5.59l1.81-.9-1.47-1.39c-3.67-3.48-5.1-7.47-4.39-12.19.53-3.47,2.26-6.33,5.16-8.5,2.29-1.72,5.03-2.63,7.92-2.63,3.69,0,7.1,1.47,9.61,4.14,2.45,2.6,3.73,5.98,3.61,9.52-.12,3.62-1.72,7.04-4.51,9.62l-1.4,1.3,2.83,1.65c6.57,3.79,10.13,9.31,10.89,16.89.05.51.08,1.01.07,1.49,0,.94-.57,1.55-1.43,1.56-.86,0-1.43-.62-1.44-1.54-.04-4.14-1.36-7.9-3.93-11.18-3.45-4.41-8.68-6.95-14.35-6.95-4.54,0-8.87,1.67-12.19,4.71-.35.32-.68.66-1,1-.21.22-.42.44-.64.66-.9.88-.96,2-.15,3,1.83,2.28,3.32,4.88,4.43,7.7,1.32,3.34,2.01,6.96,2.06,10.78.01.87-.5,1.49-1.3,1.58-.05,0-.09,0-.14,0-.63,0-1.24-.44-1.34-.97-.09-.44-.11-.93-.13-1.45-.01-.37-.03-.73-.07-1.1-.97-10.01-5.85-17.38-14.5-21.9-4.13-2.16-8.36-3.26-12.57-3.26-4.65,0-9.28,1.34-13.77,3.97-7.35,4.31-11.74,10.91-13.03,19.6-.19,1.27-.25,2.58-.31,3.73-.04.79-.59,1.34-1.39,1.38h-.06ZM58.81,2.88c-8.74,0-15.85,7-15.86,15.6-.01,8.68,6.93,15.76,15.46,15.78,8.79,0,15.91-6.94,15.92-15.48.01-8.76-6.94-15.89-15.5-15.91h-.02ZM96.16,12.64c-6.43,0-10.33,5.23-10.38,10.28-.03,2.77,1.04,5.39,3.02,7.39,1.98,2,4.6,3.11,7.38,3.11,5.67,0,10.31-4.65,10.36-10.36-.05-5.84-4.6-10.41-10.36-10.42h-.02ZM21.15,12.63c-5.77,0-10.34,4.54-10.41,10.34-.03,2.73,1.03,5.32,3,7.32,1.98,2.01,4.6,3.13,7.37,3.13,5.68,0,10.33-4.63,10.39-10.32.03-2.78-1.04-5.4-3-7.39-1.95-1.98-4.56-3.07-7.34-3.07h-.02Z"/>
  </g>
</svg>