<?xml version="1.0" encoding="UTF-8"?>
<svg id="Layer_2" xmlns="http://www.w3.org/2000/svg" viewBox="0 0 105.41 64.09">
  <g id="Layer_1-2" data-name="Layer_1">
    <path d="M52.58,63.99c-15.91,0-31.81-.07-47.72.06-3.52.03-4.91-.74-4.86-4.69C.23,41.03.18,22.7.03,4.37,0,1.03.92,0,4.32.02,36.53.14,68.75.14,100.96,0c3.68-.02,4.46,1.17,4.43,4.63-.17,18.06-.2,36.13.02,54.19.05,4.02-.92,5.34-5.11,5.27-15.9-.24-31.81-.1-47.72-.09ZM3.38,60.73h47.58v-13.06c-9.46-3.44-13.58-7.93-13.56-15.19.02-9.06,5.38-13.87,13.52-16.02V3.27H3.45v15.78c3.31,0,6.38.1,9.44-.03,2.45-.11,3.35.83,3.31,3.29-.11,6.47-.11,12.94,0,19.41.04,2.41-.77,3.44-3.27,3.33-3.17-.14-6.35-.03-9.55-.03v15.71ZM54.49,60.73h47.39v-15.71c-3.41,0-6.5-.09-9.57.03-2.29.09-3.1-.89-3.08-3.11.07-6.6.07-13.2,0-19.81-.03-2.23.8-3.18,3.08-3.1,3.18.11,6.37.03,9.63.03V3.3h-47.5v13.2c8.02,2.04,13.26,6.66,13.56,15.34.27,7.64-3.71,12.12-13.74,15.94,0,3.25-.01,6.61,0,9.97,0,.92.13,1.84.22,2.97ZM54.4,44.03c7.18-1.59,10.96-6.44,10.53-13.02-.38-5.79-4.81-10.31-10.53-10.66v23.68ZM51.03,20.08c-7.13,1.48-10.94,6.33-10.54,12.95.35,5.78,4.71,10.28,10.54,10.74v-23.69ZM12.83,41.77v-19.4H3.5v19.4h9.32ZM92.56,41.65h9.44v-19.29h-9.44v19.29Z"/>
  </g>
</svg>