<?xml version="1.0" encoding="UTF-8"?>
<svg id="Layer_2" xmlns="http://www.w3.org/2000/svg" viewBox="0 0 96.67 83.38">
  <defs>
    <style>
      .cls-1 {
        font-family: MontserratRoman-Bold, Montserrat;
        font-size: 10px;
        font-variation-settings: 'wght' 700;
        font-weight: 700;
      }

      .cls-2 {
        stroke-width: 2px;
      }

      .cls-2, .cls-3 {
        fill: none;
        stroke: #000;
        stroke-miterlimit: 10;
      }

      .cls-3 {
        stroke-width: 3px;
      }
    </style>
  </defs>
  <g id="Layer_1-2" data-name="Layer_1">
    <g>
      <path class="cls-3" d="M95.17,13.5v56.38c0,5.84-4.22,10.74-9.77,11.79-.72.14-1.47.21-2.23.21H13.5c-.76,0-1.51-.07-2.23-.21-5.55-1.05-9.77-5.95-9.77-11.79V13.5c0-5.05,3.16-9.39,7.59-11.15,1.37-.55,2.86-.85,4.41-.85h69.67c1.56,0,3.05.3,4.41.85,4.44,1.76,7.59,6.11,7.59,11.15Z"/>
      <rect class="cls-2" x="1.5" y="23.12" width="93.67" height="14.71"/>
      <path d="M95.17,13.5v9.62H1.5v-9.62c0-5.05,3.16-9.39,7.59-11.15h78.49c4.44,1.76,7.59,6.11,7.59,11.15Z"/>
      <rect class="cls-2" x="1.5" y="37.73" width="93.67" height="14.71"/>
      <rect class="cls-2" x="1.5" y="52.35" width="93.67" height="14.71"/>
      <line class="cls-2" x1="85.4" y1="81.67" x2="11.27" y2="81.67"/>
      <polyline class="cls-2" points="1.5 69.88 1.5 67.06 1.5 66.96 95.17 66.96 95.17 67.06 95.17 69.88"/>
      <text class="cls-1" transform="translate(9.88 33.8)"><tspan x="0" y="0">1º</tspan></text>
      <text class="cls-1" transform="translate(8.89 48.11)"><tspan x="0" y="0">2º</tspan></text>
      <text class="cls-1" transform="translate(8.88 62.43)"><tspan x="0" y="0">3º</tspan></text>
      <text class="cls-1" transform="translate(8.4 76.74)"><tspan x="0" y="0">4º</tspan></text>
      <line class="cls-2" x1="22.66" y1="19.71" x2="22.66" y2="82.35"/>
    </g>
  </g>
</svg>