<?xml version="1.0" encoding="UTF-8"?>
<svg id="Layer_2" xmlns="http://www.w3.org/2000/svg" xmlns:xlink="http://www.w3.org/1999/xlink" viewBox="0 0 804.32 576.65">
  <defs>
    <style>
      .cls-1 {
        font-size: 3.85px;
      }

      .cls-1, .cls-2, .cls-3, .cls-4, .cls-5, .cls-6, .cls-7, .cls-8, .cls-9, .cls-10, .cls-11, .cls-12, .cls-13, .cls-14, .cls-15, .cls-16, .cls-17, .cls-18 {
        fill: #010101;
      }

      .cls-1, .cls-3, .cls-5, .cls-6, .cls-7, .cls-10, .cls-12, .cls-14, .cls-15, .cls-16, .cls-17, .cls-18 {
        font-family: MontserratRoman-SemiBold, Montserrat;
        font-variation-settings: 'wght' 600;
        font-weight: 600;
      }

      .cls-19, .cls-2, .cls-20, .cls-21, .cls-22, .cls-9, .cls-23, .cls-24, .cls-25, .cls-26, .cls-27, .cls-28, .cls-29, .cls-30, .cls-31 {
        stroke-miterlimit: 10;
      }

      .cls-19, .cls-20, .cls-21, .cls-22, .cls-23, .cls-24, .cls-25, .cls-26, .cls-27, .cls-28, .cls-29, .cls-30, .cls-31 {
        fill: none;
      }

      .cls-19, .cls-26 {
        stroke: #6fccdd;
      }

      .cls-2, .cls-20 {
        stroke-width: .5px;
      }

      .cls-2, .cls-20, .cls-21, .cls-9, .cls-23, .cls-24, .cls-25, .cls-27, .cls-28, .cls-29, .cls-31 {
        stroke: #010101;
      }

      .cls-3 {
        font-size: 6.33px;
      }

      .cls-32 {
        fill: #231f20;
      }

      .cls-4 {
        font-size: 4.98px;
      }

      .cls-4, .cls-8, .cls-11, .cls-33, .cls-34 {
        font-family: MontserratRoman-ExtraBold, Montserrat;
        font-variation-settings: 'wght' 800;
        font-weight: 700;
      }

      .cls-35 {
        fill: #fff;
      }

      .cls-5 {
        font-size: 4.99px;
      }

      .cls-6 {
        font-size: 6.52px;
      }

      .cls-7 {
        font-size: 7.32px;
      }

      .cls-8 {
        font-size: 7.44px;
      }

      .cls-22 {
        stroke-dasharray: 3.1 3.1;
      }

      .cls-22, .cls-30 {
        stroke: #231f20;
      }

      .cls-10 {
        font-size: 5px;
      }

      .cls-23, .cls-25, .cls-26, .cls-27, .cls-29 {
        stroke-width: .75px;
      }

      .cls-24, .cls-31 {
        stroke-width: .49px;
      }

      .cls-25 {
        stroke-dasharray: 1.46 1.46;
      }

      .cls-11 {
        font-size: 11.71px;
      }

      .cls-27 {
        stroke-dasharray: 1.47 1.47;
      }

      .cls-12 {
        font-size: 3.89px;
      }

      .cls-36 {
        filter: url(#outer-glow-1);
      }

      .cls-28 {
        stroke-dasharray: 1.48;
      }

      .cls-33 {
        font-size: 23.43px;
      }

      .cls-33, .cls-34 {
        fill: #6fccdd;
      }

      .cls-29 {
        stroke-dasharray: 1.46 1.46;
      }

      .cls-14 {
        font-size: 6px;
      }

      .cls-15 {
        font-size: 5.35px;
      }

      .cls-31 {
        stroke-dasharray: 1.63 1.63;
      }

      .cls-16 {
        font-size: 4.4px;
      }

      .cls-34 {
        font-size: 23.88px;
      }

      .cls-17 {
        font-size: 4.85px;
      }

      .cls-18 {
        font-size: 19.19px;
      }
    </style>
    <filter id="outer-glow-1" x="80.62" y="4.75" width="727.92" height="503.76" filterUnits="userSpaceOnUse">
      <feOffset dx="0" dy="0"/>
      <feGaussianBlur result="blur" stdDeviation="5"/>
      <feFlood flood-color="#55c6d3" flood-opacity=".5"/>
      <feComposite in2="blur" operator="in"/>
      <feComposite in="SourceGraphic"/>
    </filter>
  </defs>
  <g id="Layer_1-2" data-name="Layer_1">
    <g>
      <polyline class="cls-21" points="377.54 113.78 369.89 114.6 370.68 31.8 400.3 29.98 407.24 110.59 398.72 111.51"/>
      <text class="cls-18" transform="translate(471.33 423.33)"><tspan x="0" y="0">FUNZONE</tspan></text>
      <rect class="cls-21" x="611.26" y="139.87" width="26.9" height="10.67" transform="translate(719.21 -489.16) rotate(85.39)"/>
      <rect class="cls-21" x="590.48" y="92.3" width="60.77" height="10.67" transform="translate(668.27 -529.07) rotate(85.39)"/>
      <rect class="cls-21" x="579.05" y="93.22" width="60.77" height="10.67" transform="translate(658.68 -516.83) rotate(85.39)"/>
      <rect class="cls-21" x="598.13" y="187.11" width="60.77" height="10.67" transform="translate(769.8 -449.51) rotate(85.39)"/>
      <rect class="cls-21" x="586.69" y="188.03" width="60.77" height="10.67" transform="translate(760.21 -437.26) rotate(85.39)"/>
      <rect class="cls-21" x="599.82" y="140.79" width="26.9" height="10.67" transform="translate(709.61 -476.91) rotate(85.39)"/>
      <polygon class="cls-21" points="803.79 260.66 444.24 283.98 428.67 31.31 788.22 7.99 803.79 260.66"/>
      <polyline class="cls-21" points="638.58 272 653.47 318.28 653.04 360.51"/>
      <line class="cls-21" x1="400.74" y1="33.03" x2="428.67" y2="31.31"/>
      <polyline class="cls-21" points="600.73 350.85 600.73 515.27 438.05 515.27 438.05 320.06 600.73 320.06 600.73 343.68"/>
      <polyline class="cls-21" points="600.73 483.93 600.73 360.51 600.73 360.51"/>
      <polyline class="cls-21" points="605.59 360.51 653.04 360.51 653.04 483.93 605.43 483.93"/>
      <polyline class="cls-21" points="69.06 86.69 369.88 86.69 369.88 114.61"/>
      <polyline class="cls-21" points="61.89 86.69 57.14 86.69 57.14 114.61"/>
      <polyline class="cls-21" points="57.14 114.61 57.14 121.49 57.14 479.6"/>
      <polyline class="cls-21" points="57.14 486.77 57.14 497.48 57.14 534.77 369.88 534.77 369.88 528.88"/>
      <polyline class="cls-21" points="362.4 340.72 362.4 372.77 362.4 427.63 369.88 427.63 369.88 521.71"/>
      <polyline class="cls-21" points="364.43 216.68 364.43 224.16 369.89 224.16 369.89 249.17"/>
      <line class="cls-21" x1="369.89" y1="114.6" x2="369.89" y2="157.42"/>
      <line class="cls-21" x1="362.4" y1="323.69" x2="362.4" y2="320.37"/>
      <polyline class="cls-21" points="347.8 234.8 362.4 234.8 362.4 294.94"/>
      <line class="cls-21" x1="343.11" y1="114.6" x2="343.11" y2="234.8"/>
      <polyline class="cls-9" points="405.2 234.8 405.21 234.8 405.21 271.67 405.21 301.22 405.21 320.37 405.21 326.94"/>
      <line class="cls-9" x1="381.78" y1="234.8" x2="381.24" y2="234.8"/>
      <polyline class="cls-21" points="347.8 234.8 362.4 234.8 362.52 234.8"/>
      <polyline class="cls-21" points="405.21 334.11 405.21 340.72 405.21 427.63 385.21 427.63 377.13 427.63 347.8 427.63"/>
      <polygon class="cls-9" points="410.59 157.42 411.65 174.7 369.89 174.7 369.89 157.42 410.59 157.42"/>
      <polygon class="cls-9" points="413.24 200.42 369.89 200.32 369.89 181.87 412.1 181.87 413.24 200.42"/>
      <polygon class="cls-9" points="405.2 200.48 405.2 234.8 381.78 234.8 381.78 226.85 401.26 226.85 401.26 200.48 405.2 200.48"/>
      <line class="cls-9" x1="405.2" y1="234.95" x2="405.2" y2="234.8"/>
      <polyline class="cls-21" points="369.88 214.18 369.88 200.48 401.26 200.48"/>
      <polyline class="cls-21" points="623.17 360.51 653.04 360.51 653.04 483.93 623.17 483.93"/>
      <polyline class="cls-21" points="57.14 486.77 57.14 497.48 .52 497.48 18.77 121.49 57.14 121.49 57.14 479.6"/>
      <rect class="cls-21" x="202.94" y="392.75" width="14.24" height="298.29" transform="translate(751.96 331.84) rotate(90)"/>
      <path class="cls-21" d="M612.35,576.08l-174.29-26.57v-16.16c84.29,1.92,178,13.6,178,13.6l-3.7,29.13Z"/>
      <rect class="cls-13" x="627.65" y="458.54" width="20.91" height="29.87" transform="translate(1111.58 -164.63) rotate(90)"/>
      <polyline class="cls-21" points="623.17 422.43 623.17 360.92 653.04 360.92 653.04 483.5 623.17 483.5 623.17 433.41"/>
      <rect class="cls-13" x="617.04" y="366.64" width="42.13" height="29.87" transform="translate(1019.68 -256.54) rotate(90)"/>
      <g>
        <path class="cls-13" d="M642.86,414.94c-.49,0-.98,0-1.47,0-.42,0-.85,0-1.27,0-.61,0-.97-.24-.93-.63.06-.57.5-.61.94-.62,1.96,0,3.91,0,5.87,0,.18,0,.36,0,.55,0,0-.03,0-.07,0-.1-.89,0-1.78.01-2.67,0-.43,0-1.02.09-1.02-.54,0-.63.59-.48.98-.48,1.14-.01,2.29-.01,3.43,0,.9,0,1.32.43,1.34,1.32,0,.76,0,1.51,0,2.27-.01.88-.46,1.34-1.33,1.35-1.24.01-2.47,0-3.71,0-.36,0-.72-.06-.72-.49,0-.47.38-.53.75-.54.99,0,1.97,0,2.96-.11-1.18,0-2.35,0-3.53,0-1.01,0-2.03,0-3.04,0-.4,0-.78-.13-.78-.6,0-.49.35-.64.79-.64.96,0,1.91,0,2.87,0,0-.06,0-.12,0-.18Z"/>
        <path class="cls-13" d="M646.94,406.71c-.75-.33-1.52-.43-2.24-.69-.32-.12-.86-.11-.72-.63.15-.53.6-.26.94-.17.84.22,1.67.45,2.51.7.86.26,1.18.68,1.19,1.57,0,.44.02.89,0,1.33-.04.65-.35,1.13-1,1.32-.99.3-1.99.57-2.98.85-.27.08-.54.09-.65-.23-.12-.36.14-.5.42-.58.83-.24,1.66-.47,2.48-.71l-.03-.14c-.46.12-.92.24-1.38.37-.64.18-1.28.35-1.92.55-.38.12-.59.02-.55-.4.05-.5-.22-.58-.64-.57-.79.02-1.59,0-2.38,0-.39,0-.8-.08-.79-.57,0-.49.42-.54.81-.54.95,0,1.9,0,2.85-.06-.14-.17-.33-.13-.5-.13-.83,0-1.66,0-2.49-.01-.37,0-.68-.14-.67-.57,0-.4.31-.53.65-.53.85-.02,1.7-.02,2.55,0,.4,0,.65-.08.6-.55-.04-.46.19-.53.59-.41.92.27,1.84.53,2.77.78.16.04.33.17.58.05Z"/>
        <path class="cls-13" d="M648.76,408.03c.01-.6.5-1.1,1.09-1.1.61,0,1.12.52,1.11,1.14,0,.59-.52,1.1-1.1,1.1-.62,0-1.12-.51-1.1-1.14Z"/>
        <path class="cls-13" d="M648.76,414.99c.02-.6.52-1.09,1.11-1.08.6.01,1.13.56,1.1,1.16-.03.59-.54,1.09-1.12,1.08-.61,0-1.11-.54-1.09-1.16Z"/>
      </g>
      <polyline class="cls-21" points="381.78 234.8 376.28 234.8 376.28 249.17 376.28 270.9"/>
      <polyline class="cls-21" points="380.07 234.8 381.24 234.8 384.82 234.8 384.82 250.92"/>
      <polyline class="cls-21" points="384.82 288.18 384.82 301.22 384.82 309.56"/>
      <polyline class="cls-21" points="376.28 274.66 376.28 294.93 376.28 294.94"/>
      <polyline class="cls-21" points="405.21 334.11 405.21 340.72 385.21 340.72 385.21 349.9"/>
      <polyline class="cls-21" points="362.4 336.24 362.4 340.72 377.13 340.72 377.13 363.93"/>
      <polyline class="cls-21" points="385.21 385.11 385.21 427.63 377.13 427.63 377.13 385.58"/>
      <polyline class="cls-21" points="385.21 379.05 385.21 363.93 385.21 355.95"/>
      <polyline class="cls-21" points="377.13 379.53 377.13 372.77 377.13 370.6"/>
      <polyline class="cls-21" points="405.21 326.94 405.21 320.37 384.82 320.37 384.82 313.32"/>
      <rect class="cls-9" x="362.4" y="294.94" width="13.88" height="25.43"/>
      <polyline class="cls-21" points="384.82 284.42 384.82 271.67 384.82 254.68"/>
      <line class="cls-20" x1="384.82" y1="301.22" x2="405.2" y2="301.22"/>
      <line class="cls-20" x1="384.82" y1="271.67" x2="405.2" y2="271.67"/>
      <polyline class="cls-23" points="709.12 360.51 741.85 360.51 741.85 483.93 680.85 483.93 680.85 360.51 699.87 360.51"/>
      <rect class="cls-23" x="695.23" y="380.12" width="66.24" height="27.01" transform="translate(1121.97 -334.72) rotate(90)"/>
      <rect class="cls-23" x="662.46" y="430.56" width="26.46" height="10.33" transform="translate(1111.41 -239.96) rotate(90)"/>
      <line class="cls-9" x1="381.78" y1="226.85" x2="380.06" y2="226.85"/>
      <line class="cls-9" x1="401.26" y1="200.48" x2="401.26" y2="200.32"/>
      <polyline class="cls-21" points="378.43 226.85 376.28 226.85 369.47 226.85"/>
      <line class="cls-21" x1="376.28" y1="249.17" x2="362.4" y2="249.17"/>
      <line class="cls-21" x1="377.13" y1="372.77" x2="362.4" y2="372.77"/>
      <line class="cls-21" x1="385.21" y1="363.93" x2="405.2" y2="363.93"/>
      <line class="cls-9" x1="381.78" y1="226.85" x2="381.78" y2="226.81"/>
      <line class="cls-9" x1="381.78" y1="235.25" x2="381.78" y2="234.8"/>
      <line class="cls-21" x1="376.28" y1="230.82" x2="376.28" y2="226.85"/>
      <line class="cls-21" x1="376.28" y1="234.8" x2="376.28" y2="232.57"/>
      <g>
        <path class="cls-13" d="M367.73,242.27c.3-.69.4-1.4.63-2.06.11-.3.1-.79.58-.66.49.13.24.55.15.86-.21.77-.42,1.54-.64,2.3-.24.79-.63,1.08-1.44,1.09-.41,0-.81.02-1.22,0-.6-.03-1.03-.32-1.21-.91-.27-.91-.52-1.82-.78-2.73-.07-.25-.08-.5.21-.59.33-.11.46.13.54.39.22.76.44,1.52.65,2.28l.12-.03c-.11-.42-.22-.84-.34-1.26-.16-.59-.32-1.18-.5-1.76-.11-.35-.02-.54.36-.5.46.05.53-.21.53-.59-.02-.73,0-1.46,0-2.19,0-.36.07-.73.52-.72.45,0,.5.39.5.74,0,.87,0,1.74.05,2.62.16-.13.12-.3.12-.46,0-.76,0-1.52,0-2.29,0-.34.13-.62.52-.61.36,0,.48.29.49.6.02.78.02,1.56,0,2.34,0,.37.08.59.5.55.42-.04.49.18.38.54-.25.84-.49,1.69-.72,2.54-.04.15-.16.3-.04.53Z"/>
        <path class="cls-13" d="M366.52,243.94c.55,0,1.01.46,1.01,1,0,.56-.48,1.03-1.05,1.02-.54,0-1.01-.48-1.01-1,0-.57.47-1.02,1.05-1.01Z"/>
        <g>
          <path class="cls-13" d="M373.01,236.94c0,.44,0,.88,0,1.33,0,.38,0,.77,0,1.15,0,.55-.21.87-.57.84-.51-.05-.55-.45-.56-.85,0-1.76,0-3.53,0-5.29,0-.16,0-.33,0-.49-.03,0-.06,0-.09,0,0,.8,0,1.6,0,2.41,0,.38.08.92-.49.92-.56,0-.43-.53-.44-.89-.01-1.03,0-2.06,0-3.1,0-.81.39-1.2,1.19-1.2.68,0,1.37,0,2.05,0,.79.01,1.21.41,1.22,1.2.01,1.12,0,2.23,0,3.35,0,.33-.05.65-.44.65-.42,0-.48-.34-.48-.67,0-.89,0-1.78-.1-2.67,0,1.06,0,2.12,0,3.19,0,.92,0,1.83,0,2.75,0,.36-.12.7-.54.71-.44,0-.58-.32-.58-.72,0-.86,0-1.73,0-2.59-.05,0-.11,0-.16,0Z"/>
          <path class="cls-13" d="M373.05,231.61c-.54-.02-.98-.47-.97-1,0-.54.51-1.02,1.04-.99.53.03.98.49.97,1.01,0,.55-.48,1-1.04.98Z"/>
        </g>
      </g>
      <g>
        <line class="cls-24" x1="607.52" y1="347.26" x2="606.79" y2="347.26"/>
        <line class="cls-31" x1="605.16" y1="347.26" x2="592.95" y2="347.26"/>
        <line class="cls-24" x1="592.13" y1="347.26" x2="591.39" y2="347.26"/>
        <polygon class="cls-13" points="606.71 346.26 606.54 346.44 607.43 347.26 606.54 348.09 606.71 348.27 607.79 347.26 606.71 346.26"/>
        <polygon class="cls-13" points="592.21 346.26 592.38 346.44 591.49 347.26 592.38 348.09 592.21 348.27 591.13 347.26 592.21 346.26"/>
      </g>
      <text class="cls-16" transform="translate(368.33 365.46) rotate(-90)"><tspan x="0" y="0">POSTO </tspan><tspan x="-.93" y="5.28">MÉDICO</tspan></text>
      <text class="cls-16" transform="translate(396.2 296.64) rotate(-90)"><tspan x="0" y="0">CENTRAL</tspan></text>
      <text class="cls-16" transform="translate(396.2 317.84) rotate(-90)"><tspan x="0" y="0">STAFF</tspan></text>
      <text class="cls-8" transform="translate(390.26 355.58)"><tspan x="0" y="0">B0</tspan></text>
      <text class="cls-8" transform="translate(51.74 9.27)"><tspan x="0" y="0">B0</tspan></text>
      <text class="cls-8" transform="translate(44.06 37.79)"><tspan x="0" y="0">B1 - B5</tspan></text>
      <text class="cls-8" transform="translate(119.51 37.79)"><tspan x="0" y="0">C1/C2/C3/C4</tspan></text>
      <text class="cls-8" transform="translate(121.28 9.27)"><tspan x="0" y="0">R1/R2/S1/S2</tspan></text>
      <text class="cls-14" transform="translate(605.32 73.31) rotate(85.39)"><tspan x="0" y="0">SUPLENTES S1 A</tspan></text>
      <text class="cls-10" transform="translate(610.98 135.41) rotate(85.39)"><tspan x="0" y="0">MESA S1</tspan></text>
      <text class="cls-10" transform="translate(622.28 133.99) rotate(85.39)"><tspan x="0" y="0">MESA S2</tspan></text>
      <text class="cls-14" transform="translate(613.06 168.89) rotate(85.39)"><tspan x="0" y="0">SUPLENTES S1 B</tspan></text>
      <text class="cls-14" transform="translate(616.48 72.71) rotate(85.39)"><tspan x="0" y="0">SUPLENTES S2 A</tspan></text>
      <text class="cls-14" transform="translate(624.22 168.29) rotate(85.39)"><tspan x="0" y="0">SUPLENTES S2 B</tspan></text>
      <text class="cls-8" transform="translate(388.27 256.26)"><tspan x="0" y="0">B2*</tspan></text>
      <text class="cls-11" transform="translate(304.05 9.96)"><tspan x="0" y="0">GARAGEM</tspan></text>
      <text class="cls-6" transform="translate(315.93 22.91)"><tspan x="0" y="0">REFORÇOS</tspan><tspan x="-5.45" y="7.82">ALIMENTARES</tspan></text>
      <text class="cls-6" transform="translate(304.71 43.43)"><tspan x="0" y="0">MESAS REFEIÇÃO</tspan></text>
      <text class="cls-6" transform="translate(18.47 22.01)"><tspan x="0" y="0">BALNEÁRIO ÁRBITROS</tspan></text>
      <text class="cls-6" transform="translate(18.91 50.54)"><tspan x="0" y="0">BALNEÁRIOS ATLETAS</tspan></text>
      <text class="cls-5" transform="translate(24.24 61.25)"><tspan x="0" y="0">*BALNEÁRIOS DIVIDIDOS</tspan></text>
      <text class="cls-6" transform="translate(123.31 50.25)"><tspan x="0" y="0">CARRINHAS</tspan><tspan x="-3.63" y="7.82" xml:space="preserve"> TRANSPORTE</tspan></text>
      <text class="cls-6" transform="translate(128.61 22.01)"><tspan x="0" y="0">CAMPOS</tspan></text>
      <text class="cls-1" transform="translate(414.92 340.75) rotate(-90)"><tspan x="0" y="0">ENTRADA</tspan><tspan x="-7.57" y="4.62">ATLETAS E STAFF</tspan></text>
      <text class="cls-12" transform="translate(632.06 338.28)"><tspan x="0" y="0">ENTRADA</tspan><tspan x="-.06" y="4.66">B3, B4, B5</tspan></text>
      <text class="cls-17" transform="translate(359.02 180.49)"><tspan x="0" y="0">ENTRADA/SAÍDA PÚBLICO</tspan></text>
      <text class="cls-17" transform="translate(70.78 94.59)"><tspan x="0" y="0">ENTRADA/SAÍDA PÚBLICO</tspan></text>
      <text class="cls-17" transform="translate(373.25 534.28)"><tspan x="0" y="0">ENTRADA/SAÍDA </tspan><tspan x="10.41" y="5.82">PÚBLICO</tspan></text>
      <text class="cls-17" transform="translate(11.78 490.4)"><tspan x="0" y="0">ENTRADA/SAÍDA </tspan><tspan x="10.41" y="5.82">PÚBLICO</tspan></text>
      <text class="cls-8" transform="translate(389.17 398.73)"><tspan x="0" y="0">B1*</tspan></text>
      <text class="cls-4" transform="translate(383.12 438.84)"><tspan x="0" y="0">C1</tspan></text>
      <text class="cls-4" transform="translate(382.64 452.07)"><tspan x="0" y="0">C2</tspan></text>
      <text class="cls-8" transform="translate(722.23 399.54)"><tspan x="0" y="0">B3*</tspan></text>
      <text class="cls-8" transform="translate(722.88 475.72)"><tspan x="0" y="0">B4</tspan></text>
      <text class="cls-8" transform="translate(691.23 475.72)"><tspan x="0" y="0">B5</tspan></text>
      <g>
        <polygon class="cls-13" points="403.73 330.59 406.07 331.94 406.07 329.23 403.73 330.59 406.07 331.94 406.07 329.23 403.73 330.59"/>
        <line class="cls-2" x1="409.76" y1="330.59" x2="404.9" y2="330.59"/>
      </g>
      <g>
        <polygon class="cls-13" points="361.41 525.3 363.76 526.66 363.76 523.95 361.41 525.3 363.76 526.66 363.76 523.95 361.41 525.3"/>
        <line class="cls-2" x1="367.44" y1="525.3" x2="362.59" y2="525.3"/>
      </g>
      <g>
        <polygon class="cls-13" points="376.95 525.3 374.6 523.95 374.6 526.66 376.95 525.3 374.6 523.95 374.6 526.66 376.95 525.3"/>
        <line class="cls-2" x1="370.92" y1="525.3" x2="375.77" y2="525.3"/>
      </g>
      <g>
        <polygon class="cls-13" points="46.58 483.18 48.92 484.53 48.92 481.82 46.58 483.18 48.92 484.53 48.92 481.82 46.58 483.18"/>
        <line class="cls-2" x1="52.6" y1="483.18" x2="47.75" y2="483.18"/>
      </g>
      <g>
        <polygon class="cls-13" points="62.11 483.18 59.77 481.82 59.77 484.53 62.11 483.18 59.77 481.82 59.77 484.53 62.11 483.18"/>
        <line class="cls-2" x1="56.09" y1="483.18" x2="60.94" y2="483.18"/>
      </g>
      <g>
        <polygon class="cls-13" points="65.47 95.77 66.83 93.42 64.12 93.42 65.47 95.77 66.83 93.42 64.12 93.42 65.47 95.77"/>
        <line class="cls-2" x1="65.47" y1="89.74" x2="65.47" y2="94.59"/>
      </g>
      <g>
        <polygon class="cls-13" points="65.47 80.23 64.12 82.58 66.83 82.58 65.47 80.23 64.12 82.58 66.83 82.58 65.47 80.23"/>
        <line class="cls-2" x1="65.47" y1="86.26" x2="65.47" y2="81.41"/>
      </g>
      <g>
        <polygon class="cls-13" points="343.12 330.59 345.46 331.94 345.46 329.23 343.12 330.59 345.46 331.94 345.46 329.23 343.12 330.59"/>
        <line class="cls-28" x1="362.4" y1="330.59" x2="344.29" y2="330.59"/>
      </g>
      <polygon class="cls-13" points="359.71 330.59 362.06 331.94 362.06 329.23 359.71 330.59 362.06 331.94 362.06 329.23 359.71 330.59"/>
      <g>
        <polygon class="cls-13" points="643.04 351.65 644.39 349.31 641.69 349.31 643.04 351.65 644.39 349.31 641.69 349.31 643.04 351.65"/>
        <line class="cls-2" x1="643.04" y1="345.63" x2="643.04" y2="350.48"/>
      </g>
      <g>
        <polygon class="cls-13" points="614.04 362.69 611.49 361.79 611.99 364.45 614.04 362.69 611.49 361.79 611.99 364.45 614.04 362.69"/>
        <line class="cls-2" x1="608.12" y1="363.8" x2="612.89" y2="362.9"/>
      </g>
      <g>
        <polygon class="cls-13" points="427.27 178.54 429.61 179.89 429.61 177.19 427.27 178.54 429.61 179.89 429.61 177.19 427.27 178.54"/>
        <line class="cls-2" x1="433.29" y1="178.54" x2="428.44" y2="178.54"/>
      </g>
      <g>
        <polygon class="cls-13" points="357.68 178.54 355.34 177.19 355.34 179.89 357.68 178.54 355.34 177.19 355.34 179.89 357.68 178.54"/>
        <line class="cls-2" x1="351.66" y1="178.54" x2="356.51" y2="178.54"/>
      </g>
      <g>
        <line class="cls-23" x1="703.73" y1="356.21" x2="702.99" y2="356.21"/>
        <line class="cls-29" x1="701.54" y1="356.21" x2="644.05" y2="356.21"/>
        <line class="cls-23" x1="643.33" y1="356.21" x2="642.59" y2="356.21"/>
        <g>
          <path class="cls-35" d="M703.6,353.95c1.25,0,2.26,1.01,2.26,2.26s-1.01,2.26-2.26,2.26-2.26-1.01-2.26-2.26,1.01-2.26,2.26-2.26Z"/>
          <path class="cls-13" d="M703.6,353.65c-1.41,0-2.56,1.15-2.56,2.56s1.15,2.56,2.56,2.56,2.56-1.15,2.56-2.56-1.15-2.56-2.56-2.56,1.41,0,0,0ZM703.6,358.17c-1.08,0-1.96-.88-1.96-1.96s.88-1.96,1.96-1.96,1.96.88,1.96,1.96-.88,1.96-1.96,1.96,1.08,0,0,0Z"/>
        </g>
        <g>
          <circle class="cls-35" cx="642.72" cy="356.21" r="2.26"/>
          <path class="cls-13" d="M642.72,353.65c1.41,0,2.56,1.15,2.56,2.56s-1.15,2.56-2.56,2.56-2.56-1.15-2.56-2.56,1.15-2.56,2.56-2.56-1.41,0,0,0ZM642.72,358.17c1.08,0,1.96-.88,1.96-1.96s-.88-1.96-1.96-1.96-1.96.88-1.96,1.96.88,1.96,1.96,1.96-1.08,0,0,0Z"/>
        </g>
      </g>
      <g>
        <line class="cls-23" x1="390.06" y1="58.89" x2="389.88" y2="58.18"/>
        <line class="cls-25" x1="389.52" y1="56.77" x2="376.62" y2="6.6"/>
        <line class="cls-23" x1="376.44" y1="5.89" x2="376.26" y2="5.18"/>
        <g>
          <path class="cls-35" d="M392.22,58.21c.31,1.21-.42,2.44-1.62,2.75-1.21.31-2.44-.42-2.75-1.62-.31-1.21.42-2.44,1.62-2.75,1.21-.31,2.44.42,2.75,1.62Z"/>
          <path class="cls-13" d="M392.51,58.13c-.35-1.36-1.75-2.19-3.11-1.84-1.36.35-2.19,1.75-1.84,3.11.35,1.36,1.75,2.19,3.11,1.84,1.36-.35,2.19-1.75,1.84-3.11-.35-1.36.35,1.36,0,0ZM388.14,59.26c-.27-1.04.36-2.11,1.41-2.38,1.04-.27,2.11.36,2.38,1.41.27,1.04-.36,2.11-1.41,2.38-1.04.27-2.11-.36-2.38-1.41-.27-1.04.27,1.04,0,0Z"/>
        </g>
        <g>
          <path class="cls-35" d="M378.47,4.74c-.31-1.21-1.54-1.93-2.75-1.62-1.21.31-1.93,1.54-1.62,2.75.31,1.21,1.54,1.93,2.75,1.62,1.21-.31,1.93-1.54,1.62-2.75Z"/>
          <path class="cls-13" d="M378.76,4.67c.35,1.36-.47,2.76-1.84,3.11-1.36.35-2.76-.47-3.11-1.84-.35-1.36.47-2.76,1.84-3.11,1.36-.35,2.76.47,3.11,1.84.35,1.36-.35-1.36,0,0ZM374.39,5.79c.27,1.04,1.34,1.68,2.38,1.41,1.04-.27,1.68-1.34,1.41-2.38-.27-1.04-1.34-1.68-2.38-1.41-1.04.27-1.68,1.34-1.41,2.38.27,1.04-.27-1.04,0,0Z"/>
        </g>
      </g>
      <text class="cls-6" transform="translate(666.87 516.11)"><tspan x="0" y="0">PEQUENO ALMOÇO</tspan></text>
      <text class="cls-6" transform="translate(608.98 404.93) rotate(90)"><tspan x="0" y="0">BANCADA</tspan></text>
      <g>
        <line class="cls-23" x1="697.09" y1="504.95" x2="696.61" y2="504.39"/>
        <line class="cls-27" x1="695.65" y1="503.28" x2="636.66" y2="434.86"/>
        <line class="cls-23" x1="636.18" y1="434.31" x2="635.7" y2="433.75"/>
        <g>
          <path class="cls-35" d="M698.71,503.38c.81.94.71,2.37-.24,3.18-.94.81-2.37.71-3.18-.24-.81-.94-.71-2.37.24-3.18s2.37-.71,3.18.24Z"/>
          <path class="cls-13" d="M698.94,503.18c-.92-1.07-2.54-1.19-3.6-.27-1.07.92-1.19,2.54-.27,3.6.92,1.07,2.54,1.19,3.6.27,1.07-.92,1.19-2.54.27-3.6-.92-1.07.92,1.07,0,0ZM695.52,506.13c-.7-.82-.61-2.05.2-2.76.82-.7,2.05-.61,2.76.2.7.82.61,2.05-.2,2.76-.82.7-2.05.61-2.76-.2-.7-.82.7.82,0,0Z"/>
        </g>
        <g>
          <path class="cls-35" d="M637.49,432.37c-.81-.94-2.24-1.05-3.18-.24-.94.81-1.05,2.24-.24,3.18.81.94,2.24,1.05,3.18.24.94-.81,1.05-2.24.24-3.18Z"/>
          <path class="cls-13" d="M637.72,432.18c.92,1.07.8,2.68-.27,3.6-1.07.92-2.68.8-3.6-.27-.92-1.07-.8-2.68.27-3.6s2.68-.8,3.6.27c.92,1.07-.92-1.07,0,0ZM634.3,435.12c.7.82,1.94.91,2.76.2.82-.7.91-1.94.2-2.76-.7-.82-1.94-.91-2.76-.2-.82.7-.91,1.94-.2,2.76.7.82-.7-.82,0,0Z"/>
        </g>
      </g>
      <polyline class="cls-21" points="615.58 272.73 630.58 320.06 630.58 349.83"/>
      <line class="cls-21" x1="617.42" y1="479.43" x2="617.42" y2="365.43"/>
      <polygon class="cls-13" points="611.7 365.01 611.7 366.4 608.06 366.4 608.06 367.79 605.43 367.79 605.43 369.87 615.34 369.87 615.34 368.48 615.34 367.79 615.34 367.09 615.34 366.4 615.34 365.01 611.7 365.01"/>
      <g>
        <polygon class="cls-13" points="625.49 349.78 622.93 350.67 623.43 348.01 625.49 349.78 622.93 350.67 623.43 348.01 625.49 349.78"/>
        <line class="cls-2" x1="619.57" y1="348.66" x2="624.33" y2="349.56"/>
      </g>
      <polyline class="cls-13" points="628.13 354.52 628.13 354.52 618.21 354.52 618.21 353.13 618.21 352.44 618.21 351.75 618.21 351.05 618.21 349.67 618.21 349.67"/>
      <g>
        <polygon class="cls-13" points="614.04 474.37 611.49 473.48 611.99 476.14 614.04 474.37 611.49 473.48 611.99 476.14 614.04 474.37"/>
        <line class="cls-2" x1="608.12" y1="475.49" x2="612.89" y2="474.59"/>
      </g>
      <polygon class="cls-13" points="611.7 476.7 611.7 478.09 608.06 478.09 608.06 479.47 605.43 479.47 605.43 481.55 615.34 481.55 615.34 480.17 615.34 479.47 615.34 478.78 615.34 478.09 615.34 476.7 611.7 476.7"/>
      <line class="cls-21" x1="612.89" y1="441.76" x2="612.89" y2="468.66"/>
      <line class="cls-21" x1="609.52" y1="441.76" x2="609.52" y2="468.66"/>
      <line class="cls-21" x1="612.89" y1="372.71" x2="612.89" y2="403.21"/>
      <line class="cls-21" x1="609.52" y1="372.71" x2="609.52" y2="403.21"/>
      <line class="cls-21" x1="606.15" y1="372.71" x2="606.15" y2="468.66"/>
      <g>
        <polygon class="cls-13" points="356.41 237.11 353.86 236.21 354.36 238.87 356.41 237.11 353.86 236.21 354.36 238.87 356.41 237.11"/>
        <line class="cls-2" x1="350.49" y1="238.22" x2="355.26" y2="237.33"/>
      </g>
      <text class="cls-6" transform="translate(356.28 348.88) rotate(-90)"><tspan x="0" y="0">BANCADA</tspan></text>
      <polygon class="cls-13" points="354.07 239.44 354.07 240.82 350.43 240.82 350.43 242.21 347.8 242.21 347.8 244.29 357.71 244.29 357.71 242.9 357.71 242.21 357.71 241.52 357.71 240.82 357.71 239.44 354.07 239.44"/>
      <g>
        <polygon class="cls-13" points="356.41 418.35 353.86 417.45 354.36 420.11 356.41 418.35 353.86 417.45 354.36 420.11 356.41 418.35"/>
        <line class="cls-2" x1="350.49" y1="419.46" x2="355.26" y2="418.57"/>
      </g>
      <polygon class="cls-13" points="354.07 420.68 354.07 422.06 350.43 422.06 350.43 423.45 347.8 423.45 347.8 425.53 357.71 425.53 357.71 424.14 357.71 423.45 357.71 422.76 357.71 422.06 357.71 420.68 354.07 420.68"/>
      <line class="cls-21" x1="355.26" y1="350.68" x2="355.26" y2="412.69"/>
      <line class="cls-21" x1="351.89" y1="350.68" x2="351.89" y2="412.69"/>
      <line class="cls-21" x1="355.26" y1="248.92" x2="355.26" y2="312.13"/>
      <line class="cls-21" x1="351.89" y1="248.92" x2="351.89" y2="312.13"/>
      <line class="cls-21" x1="348.52" y1="336.24" x2="348.52" y2="412.69"/>
      <line class="cls-21" x1="348.52" y1="248.92" x2="348.52" y2="325.29"/>
      <polyline class="cls-21" points="348.52 323.38 343.12 323.38 343.11 323.38 343.11 114.6 66.26 114.6 66.26 528.18 343.11 528.18 343.11 338.66 348.52 338.66"/>
      <text class="cls-7" transform="translate(624.84 459.93)"><tspan x="0" y="0">TV</tspan></text>
      <g>
        <path d="M429.86,265.4c-.14-.11-.28-.22-.41-.33-.46-.41-.98-.74-1.28-1.33-.45-.9-.99-1.76-1.49-2.63-.16-.29-.4-.44-.74-.45-1.19,0-2.38-.04-3.58-.04-.84,0-1.07.23-1.07,1.06,0,2.44,0,4.88,0,7.32,0,.28-.04.44-.39.44-2.2,0-4.4,0-6.61,0-.24,0-.39-.07-.5-.3-.37-.76-1-1.18-1.83-1.18-.84,0-1.48.42-1.83,1.19-.19.4-.5.3-.78.27-.29-.02-.27-.28-.27-.5,0-.11,0-.21,0-.32,0-1.08,0-2.17,0-3.26,0-1.02,0-2.04,0-3.06s.02-2.12,0-3.18c-.01-.56.03-.64.61-.64,2.43,0,4.85,0,7.28,0,2.07,0,4.14,0,6.21,0,.29,0,.44.1.51.38.06.27.15.53.24.8.08.21.23.34.46.27s.29-.26.23-.48c-.08-.3-.17-.59-.26-.88-.21-.7-.37-.82-1.1-.82-4.48,0-8.97,0-13.45,0-.46,0-.93-.04-1.25.38-.06.07-.09.16-.09.25v11c0,.37.25.7.61.8.19.05.4.05.62.04.23-.02.29.14.34.31.22.79.76,1.28,1.56,1.42.8.14,1.49-.12,2-.79.12-.16.23-.33.26-.53.05-.36.26-.42.59-.42,1.4,0,2.81,0,4.21,0,1.83,0,3.66,0,5.49,0,.35,0,.54.07.65.45.23.82.99,1.32,1.88,1.32s1.62-.5,1.88-1.32c.11-.34.26-.46.61-.44.3.01.46,0,.63-.11.26-.16.41-.45.41-.76v-3.18c0-.28-.13-.55-.36-.72ZM411.98,271.19c-.75,0-1.24-.51-1.23-1.26,0-.71.56-1.27,1.25-1.26.68.01,1.27.6,1.26,1.28,0,.7-.56,1.24-1.28,1.23ZM426.67,271.19c-.72,0-1.27-.57-1.25-1.27.02-.67.6-1.24,1.25-1.25.73,0,1.27.55,1.27,1.29,0,.74-.52,1.23-1.27,1.22ZM429.58,269.01c.01.24-.06.41-.35.42-.34.01-.57-.03-.75-.4-.35-.71-.98-1.08-1.77-1.08-.81,0-1.43.39-1.8,1.11-.14.27-.31.39-.61.38-.61-.02-1.22-.02-1.83,0-.31,0-.43-.11-.42-.42,0-1.2,0-2.41,0-3.62t0,0c0-1.19.01-2.38,0-3.58,0-.36.11-.48.48-.48,1.02.02,2.04.02,3.06,0,.29,0,.47.1.61.34.47.85.97,1.67,1.42,2.53.35.68.98,1.06,1.53,1.53.14.12.42.21.34.44-.08.23-.35.11-.53.12-.69.03-.96.35-.83,1.03.18.89.2.92,1.15,1.07.41.06.3.37.32.61Z"/>
        <path d="M415.2,267.62c-1.67,0-3.34,0-5.02,0-.33,0-.68.01-.85-.37-.16-.36-.06-1.17.19-1.38.15-.13.18-.28.18-.46,0-.49,0-.98,0-1.47,0-.46-.01-.9-.26-1.34-.26-.46-.24-1-.05-1.5.15-.4.31-.79.47-1.18.14-.36.4-.55.79-.54.4,0,.8,0,1.19,0,.22,0,.4.07.43.32.02.28-.16.38-.39.4-.34.02-.69.01-1.03.03-.24,0-.65.62-.57.83.07.16.23.1.35.1,1.67,0,3.34,0,5.02,0,1.33,0,2.65,0,3.98,0,.33,0,.38-.08.28-.39-.13-.39-.31-.57-.76-.56-1.72.03-3.45,0-5.17,0-.11,0-.21,0-.32,0-.26-.02-.54-.03-.54-.39,0-.36.29-.35.55-.35,1.95,0,3.9,0,5.85,0,.47,0,.74.19.9.62.28.73.76,1.45.51,2.24-.33,1.04-.15,2.08-.21,3.11-.02.24.06.4.23.59.36.39.21.89.11,1.32-.09.37-.48.36-.8.36-1.69,0-3.37,0-5.06,0ZM415.18,265.75c1.46,0,2.92,0,4.37,0,.21,0,.41.01.41-.29,0-.58,0-1.17,0-1.75,0-.17-.04-.28-.25-.25-.42.06-.79-.06-1.12-.31-.14-.1-.24-.11-.38,0-.58.43-1.18.44-1.77.03-.17-.11-.29-.12-.46,0-.56.39-1.14.4-1.7.01-.18-.12-.31-.13-.49,0-.58.41-1.17.37-1.74-.03-.16-.11-.26-.12-.42,0-.24.2-.53.31-.84.31-.29,0-.36.14-.35.4.01.48.02.96,0,1.43-.02.35.1.46.45.45,1.43-.02,2.86,0,4.29,0ZM415.2,266.88s0,0,0,0c1.56,0,3.13,0,4.69,0,.16,0,.44.09.44-.18,0-.27-.28-.16-.44-.19-.01,0-.03,0-.04,0-3.1,0-6.2,0-9.3,0-.12,0-.24,0-.36.02-.09.01-.14.08-.14.17,0,.09.05.15.14.16.14.02.29.02.44.02,1.52,0,3.05,0,4.57,0ZM417.33,261.82c-.14,0-.29,0-.43,0-.31-.02-.37.15-.28.4.09.25.24.44.51.5.27.05.53,0,.72-.22.13-.16.24-.34.17-.54-.08-.22-.29-.11-.45-.13-.08-.01-.16,0-.24,0ZM412.93,261.82c-.16,0-.32,0-.48,0-.22,0-.28.13-.24.31.07.29.25.51.54.58.31.07.58-.01.77-.28.1-.14.18-.32.11-.49-.08-.19-.28-.11-.43-.12-.09,0-.19,0-.28,0ZM419.5,262.73c.35,0,.64-.25.73-.62.05-.21-.02-.3-.23-.3-.26,0-.53,0-.79,0-.4,0-.51.2-.32.55.13.24.34.37.61.36ZM410.76,261.82s0,0,0,0c-.12,0-.24,0-.36,0-.36.01-.45.15-.31.48.19.45.77.59,1.12.26.18-.16.29-.37.2-.6-.08-.21-.3-.11-.46-.13-.07,0-.13,0-.2,0ZM415.13,261.82c-.12,0-.24,0-.35,0-.35,0-.44.16-.31.47.21.5.86.6,1.2.19.13-.16.22-.35.13-.55-.08-.18-.28-.1-.43-.12-.08,0-.16,0-.24,0Z"/>
        <path d="M427.02,264.9c-.19.29-.46.37-.78.37-1.07,0-2.14,0-3.21,0-.43,0-.66-.18-.66-.6-.01-.73-.01-1.46,0-2.18,0-.43.18-.6.61-.62.4-.01.79,0,1.19,0h0c.39,0,.77,0,1.15,0,.3,0,.5.12.64.39.33.62.68,1.22,1.03,1.83.15.27.23.53.04.82Z"/>
      </g>
      <g>
        <path d="M642.75,450.14c-.25-.08-.51-.07-.76.02h0c-.44.19-.73.5-.88.96-.02.08-.1.12-.18.11-.87-.16-1.56.54-1.38,1.48.11.54.07,1.1-.01,1.64-.08.55.08.93.55,1.12.11.04.14.12.14.23,0,1.16,0,2.33,0,3.49,0,.36,0,.72,0,1.08v.02c.01.61.51,1.1,1.12,1.1h4.23c.57,0,1.08-.41,1.15-.98,0-.04,0-.09.01-.13,0-.12.09-.13.18-.13.36,0,.71,0,1.07,0,.78,0,1.29-.47,1.38-1.25.08-.72.03-1.43.03-2.15,0-.54.04-1.08-.03-1.62-.09-.73-.57-1.31-1.39-1.28-.35.01-.7,0-1.05,0-.16,0-.21-.06-.22-.21,0-.26.06-.53-.04-.78-.02-.06.02-.11.05-.16.22-.44.17-.86-.13-1.24-.3-.37-.71-.52-1.18-.4-.12.03-.2.02-.29-.07-.4-.38-.86-.48-1.38-.31-.11.04-.19.04-.27-.06-.17-.21-.39-.35-.65-.45l-.05-.02ZM646.2,459.3c0,.33-.01.66,0,1,.01.37-.25.61-.62.61-1.39,0-2.79,0-4.18,0-.4,0-.64-.24-.64-.65,0-.87,0-1.73,0-2.6,0-.66,0-1.32,0-1.98,0-.16.04-.28.17-.39.23-.17.31-.43.31-.71,0-.38,0-.38.36-.38.22,0,.42-.05.61-.17.11-.07.19-.06.28.04.63.7,1.67.62,2.18-.16.12-.18.17-.39.2-.6.03-.24.03-.24.27-.25.3,0,.6,0,.9,0,.14,0,.17.06.17.19,0,.5,0,1.01,0,1.51,0,.43,0,.86,0,1.29,0,.24,0,.48,0,.72,0,0,0,0,.01,0,0,.84,0,1.67,0,2.51ZM645.93,452.57c-.11,0-.22,0-.33,0-.1,0-.21-.01-.29-.02-.23.03-.45.02-.67.02-.21,0-.29.09-.3.29,0,.18.01.37-.04.55-.09.36-.4.61-.77.64-.34.02-.68-.2-.81-.53-.01-.03-.03-.06-.03-.1-.03-.13-.1-.22-.24-.24-.13-.02-.21.07-.28.17-.25.37-.63.44-1,.19-.1-.07-.19-.13-.32-.07-.13.06-.15.18-.15.3,0,.28,0,.56,0,.84,0,.24-.14.39-.35.37-.21-.01-.32-.16-.31-.39,0-.46,0-.92,0-1.38,0-.3.02-.6.01-.89,0-.24.13-.44.36-.55.23-.11.47-.08.69.06.03.02.05.04.08.07.1.09.21.14.34.05.13-.08.14-.2.1-.33-.07-.23-.03-.44.1-.64.17-.27.43-.41.75-.39.32.03.56.18.7.48,0,.02.01.03.02.05.11.24.24.28.46.14.48-.29.91-.2,1.23.25.15.21.23.23.46.11.44-.22.92,0,.97.48.03.29-.06.48-.39.46ZM646.72,456.94c.04-.3-.04-.68,0-1.05.01-.14.07-.2.2-.19.08,0,.16,0,.24,0,.34,0,.47.11.47.44.01.57.01,1.15,0,1.72,0,.34-.13.44-.47.44-.01,0-.02,0-.03,0-.46,0-.44.07-.42-.44.01-.28-.02-.56,0-.92ZM648.88,458.27c0,.26-.01.52-.09.76-.13.4-.37.58-.79.6-.37.01-.73,0-1.1,0-.12,0-.17-.05-.17-.16,0-.15,0-.31-.02-.46,0-.13.05-.19.18-.19.15,0,.3,0,.45,0,.49-.06.79-.35.81-.85.02-.64.03-1.28,0-1.93-.02-.57-.37-.87-.94-.88-.15,0-.33.06-.44-.03-.12-.09-.02-.28-.05-.43,0-.02,0-.05,0-.07-.02-.26,0-.28.27-.28.37,0,.74-.01,1.12.01.41.03.62.28.72.67.04.17.06.35.06.53,0,.45-.02.89,0,1.34.02.45-.02.9,0,1.36Z"/>
        <path d="M645.44,457.22c0,.58,0,1.16,0,1.74,0,.05,0,.09,0,.14,0,.21-.11.34-.26.34-.16,0-.26-.12-.27-.34,0-.55,0-1.09,0-1.64,0-.67,0-1.34,0-2.01,0-.08,0-.16.02-.24.03-.13.11-.2.25-.19.13,0,.21.08.24.2.02.07.02.14.02.2,0,.6,0,1.19,0,1.79Z"/>
        <path d="M643.16,457.23c0,.62,0,1.25,0,1.87,0,.21-.09.33-.24.34-.15.01-.28-.11-.28-.32-.01-.41,0-.82,0-1.24,0-.5,0-1,0-1.49,0-.34.03-.69,0-1.03,0-.04,0-.08.01-.12.03-.14.12-.22.27-.22.15,0,.23.1.24.25,0,.27,0,.54,0,.81,0,.38,0,.77,0,1.15Z"/>
        <path d="M643.79,457.22c0-.63,0-1.25,0-1.88,0-.12.02-.23.14-.29.14-.08.32,0,.36.17.01.06.01.13.01.19,0,1.21,0,2.42,0,3.63,0,.05,0,.09,0,.14-.02.16-.13.27-.26.27-.14,0-.24-.12-.24-.28,0-.26,0-.52,0-.77,0-.39,0-.78,0-1.17,0,0,0,0,0,0Z"/>
        <path d="M642.03,457.23c0,.6,0,1.2,0,1.81,0,.05,0,.1,0,.15-.02.15-.13.26-.26.25-.14-.01-.23-.1-.25-.24,0-.05,0-.09,0-.14,0-1.22,0-2.44,0-3.66,0-.05,0-.1,0-.15.02-.14.11-.21.25-.22.13,0,.22.07.25.2.01.06.01.13.01.19,0,.61,0,1.22,0,1.82Z"/>
      </g>
      <text class="cls-7" transform="translate(374.72 210.33)"><tspan x="0" y="0">TV</tspan></text>
      <g>
        <path d="M390.8,210.38c-.25-.08-.51-.07-.76.02h0c-.44.19-.73.5-.88.96-.02.08-.1.12-.18.11-.87-.16-1.56.54-1.38,1.48.11.54.07,1.1-.01,1.64-.08.55.08.93.55,1.12.11.04.14.12.14.23,0,1.16,0,2.33,0,3.49,0,.36,0,.72,0,1.08v.02c.01.61.51,1.1,1.12,1.1h4.23c.57,0,1.08-.41,1.15-.98,0-.04,0-.09.01-.13,0-.12.09-.13.18-.13.36,0,.71,0,1.07,0,.78,0,1.29-.47,1.38-1.25.08-.72.03-1.43.03-2.15,0-.54.04-1.08-.03-1.62-.09-.73-.57-1.31-1.39-1.28-.35.01-.7,0-1.05,0-.16,0-.21-.06-.22-.21,0-.26.06-.53-.04-.78-.02-.06.02-.11.05-.16.22-.44.17-.86-.13-1.24-.3-.37-.71-.52-1.18-.4-.12.03-.2.02-.29-.07-.4-.38-.86-.48-1.38-.31-.11.04-.19.04-.27-.06-.17-.21-.39-.35-.65-.45l-.05-.02ZM394.25,219.55c0,.33-.01.66,0,1,.01.37-.25.61-.62.61-1.39,0-2.79,0-4.18,0-.4,0-.64-.24-.64-.65,0-.87,0-1.73,0-2.6,0-.66,0-1.32,0-1.98,0-.16.04-.28.17-.39.23-.17.31-.43.31-.71,0-.38,0-.38.36-.38.22,0,.42-.05.61-.17.11-.07.19-.06.28.04.63.7,1.67.62,2.18-.16.12-.18.17-.39.2-.6.03-.24.03-.24.27-.25.3,0,.6,0,.9,0,.14,0,.17.06.17.19,0,.5,0,1.01,0,1.51,0,.43,0,.86,0,1.29,0,.24,0,.48,0,.72,0,0,0,0,.01,0,0,.84,0,1.67,0,2.51ZM393.98,212.82c-.11,0-.22,0-.33,0-.1,0-.21-.01-.29-.02-.23.03-.45.02-.67.02-.21,0-.29.09-.3.29,0,.18.01.37-.04.55-.09.36-.4.61-.77.64-.34.02-.68-.2-.81-.53-.01-.03-.03-.06-.03-.1-.03-.13-.1-.22-.24-.24-.13-.02-.21.07-.28.17-.25.37-.63.44-1,.19-.1-.07-.19-.13-.32-.07-.13.06-.15.18-.15.3,0,.28,0,.56,0,.84,0,.24-.14.39-.35.37-.21-.01-.32-.16-.31-.39,0-.46,0-.92,0-1.38,0-.3.02-.6.01-.89,0-.24.13-.44.36-.55.23-.11.47-.08.69.06.03.02.05.04.08.07.1.09.21.14.34.05.13-.08.14-.2.1-.33-.07-.23-.03-.44.1-.64.17-.27.43-.41.75-.39.32.03.56.18.7.48,0,.02.01.03.02.05.11.24.24.28.46.14.48-.29.91-.2,1.23.25.15.21.23.23.46.11.44-.22.92,0,.97.48.03.29-.06.48-.39.46ZM394.77,217.18c.04-.3-.04-.68,0-1.05.01-.14.07-.2.2-.19.08,0,.16,0,.24,0,.34,0,.47.11.47.44.01.57.01,1.15,0,1.72,0,.34-.13.44-.47.44-.01,0-.02,0-.03,0-.46,0-.44.07-.42-.44.01-.28-.02-.56,0-.92ZM396.93,218.51c0,.26-.01.52-.09.76-.13.4-.37.58-.79.6-.37.01-.73,0-1.1,0-.12,0-.17-.05-.17-.16,0-.15,0-.31-.02-.46,0-.13.05-.19.18-.19.15,0,.3,0,.45,0,.49-.06.79-.35.81-.85.02-.64.03-1.28,0-1.93-.02-.57-.37-.87-.94-.88-.15,0-.33.06-.44-.03-.12-.09-.02-.28-.05-.43,0-.02,0-.05,0-.07-.02-.26,0-.28.27-.28.37,0,.74-.01,1.12.01.41.03.62.28.72.67.04.17.06.35.06.53,0,.45-.02.89,0,1.34.02.45-.02.9,0,1.36Z"/>
        <path d="M393.49,217.47c0,.58,0,1.16,0,1.74,0,.05,0,.09,0,.14,0,.21-.11.34-.26.34-.16,0-.26-.12-.27-.34,0-.55,0-1.09,0-1.64,0-.67,0-1.34,0-2.01,0-.08,0-.16.02-.24.03-.13.11-.2.25-.19.13,0,.21.08.24.2.02.07.02.14.02.2,0,.6,0,1.19,0,1.79Z"/>
        <path d="M391.22,217.47c0,.62,0,1.25,0,1.87,0,.21-.09.33-.24.34-.15.01-.28-.11-.28-.32-.01-.41,0-.82,0-1.24,0-.5,0-1,0-1.49,0-.34.03-.69,0-1.03,0-.04,0-.08.01-.12.03-.14.12-.22.27-.22.15,0,.23.1.24.25,0,.27,0,.54,0,.81,0,.38,0,.77,0,1.15Z"/>
        <path d="M391.85,217.46c0-.63,0-1.25,0-1.88,0-.12.02-.23.14-.29.14-.08.32,0,.36.17.01.06.01.13.01.19,0,1.21,0,2.42,0,3.63,0,.05,0,.09,0,.14-.02.16-.13.27-.26.27-.14,0-.24-.12-.24-.28,0-.26,0-.52,0-.77,0-.39,0-.78,0-1.17,0,0,0,0,0,0Z"/>
        <path d="M390.08,217.48c0,.6,0,1.2,0,1.81,0,.05,0,.1,0,.15-.02.15-.13.26-.26.25-.14-.01-.23-.1-.25-.24,0-.05,0-.09,0-.14,0-1.22,0-2.44,0-3.66,0-.05,0-.1,0-.15.02-.14.11-.21.25-.22.13,0,.22.07.25.2.01.06.01.13.01.19,0,.61,0,1.22,0,1.82Z"/>
      </g>
      <g>
        <path d="M411.52,210.38c-.25-.08-.51-.07-.76.02h0c-.44.19-.73.5-.88.96-.02.08-.1.12-.18.11-.87-.16-1.56.54-1.38,1.48.11.54.07,1.1-.01,1.64s.08.93.55,1.12c.11.04.14.12.14.23,0,1.16,0,2.33,0,3.49,0,.36,0,.72,0,1.08v.02c.01.61.51,1.1,1.12,1.1h4.23c.57,0,1.08-.41,1.15-.98,0-.04,0-.09.01-.13,0-.12.09-.13.18-.13.36,0,.71,0,1.07,0,.78,0,1.29-.47,1.38-1.25.08-.72.03-1.43.03-2.15,0-.54.04-1.08-.03-1.62-.09-.73-.57-1.31-1.39-1.28-.35.01-.7,0-1.05,0-.16,0-.21-.06-.22-.21,0-.26.06-.53-.04-.78-.02-.06.02-.11.05-.16.22-.44.17-.86-.13-1.24-.3-.37-.71-.52-1.18-.4-.12.03-.2.02-.29-.07-.4-.38-.86-.48-1.38-.31-.11.04-.19.04-.27-.06-.17-.21-.39-.35-.65-.45l-.05-.02ZM414.97,219.55c0,.33-.01.66,0,1,.01.37-.25.61-.62.61-1.39,0-2.79,0-4.18,0-.4,0-.64-.24-.64-.65,0-.87,0-1.73,0-2.6,0-.66,0-1.32,0-1.98,0-.16.04-.28.17-.39.23-.17.31-.43.31-.71,0-.38,0-.38.36-.38.22,0,.42-.05.61-.17.11-.07.19-.06.28.04.63.7,1.67.62,2.18-.16.12-.18.17-.39.2-.6.03-.24.03-.24.27-.25.3,0,.6,0,.9,0,.14,0,.17.06.17.19,0,.5,0,1.01,0,1.51,0,.43,0,.86,0,1.29,0,.24,0,.48,0,.72,0,0,0,0,.01,0,0,.84,0,1.67,0,2.51ZM414.7,212.82c-.11,0-.22,0-.33,0-.1,0-.21-.01-.29-.02-.23.03-.45.02-.67.02-.21,0-.29.09-.3.29,0,.18.01.37-.04.55-.09.36-.4.61-.77.64-.34.02-.68-.2-.81-.53-.01-.03-.03-.06-.03-.1-.03-.13-.1-.22-.24-.24-.13-.02-.21.07-.28.17-.25.37-.63.44-1,.19-.1-.07-.19-.13-.32-.07-.13.06-.15.18-.15.3,0,.28,0,.56,0,.84,0,.24-.14.39-.35.37-.21-.01-.32-.16-.31-.39,0-.46,0-.92,0-1.38,0-.3.02-.6.01-.89,0-.24.13-.44.36-.55.23-.11.47-.08.69.06.03.02.05.04.08.07.1.09.21.14.34.05.13-.08.14-.2.1-.33-.07-.23-.03-.44.1-.64.17-.27.43-.41.75-.39.32.03.56.18.7.48,0,.02.01.03.02.05.11.24.24.28.46.14.48-.29.91-.2,1.23.25.15.21.23.23.46.11.44-.22.92,0,.97.48.03.29-.06.48-.39.46ZM415.49,217.18c.04-.3-.04-.68,0-1.05.01-.14.07-.2.2-.19.08,0,.16,0,.24,0,.34,0,.47.11.47.44.01.57.01,1.15,0,1.72,0,.34-.13.44-.47.44-.01,0-.02,0-.03,0-.46,0-.44.07-.42-.44.01-.28-.02-.56,0-.92ZM417.65,218.51c0,.26-.01.52-.09.76-.13.4-.37.58-.79.6-.37.01-.73,0-1.1,0-.12,0-.17-.05-.17-.16,0-.15,0-.31-.02-.46,0-.13.05-.19.18-.19.15,0,.3,0,.45,0,.49-.06.79-.35.81-.85.02-.64.03-1.28,0-1.93-.02-.57-.37-.87-.94-.88-.15,0-.33.06-.44-.03-.12-.09-.02-.28-.05-.43,0-.02,0-.05,0-.07-.02-.26,0-.28.27-.28.37,0,.74-.01,1.12.01.41.03.62.28.72.67.04.17.06.35.06.53,0,.45-.02.89,0,1.34.02.45-.02.9,0,1.36Z"/>
        <path d="M414.21,217.47c0,.58,0,1.16,0,1.74,0,.05,0,.09,0,.14,0,.21-.11.34-.26.34-.16,0-.26-.12-.27-.34,0-.55,0-1.09,0-1.64,0-.67,0-1.34,0-2.01,0-.08,0-.16.02-.24.03-.13.11-.2.25-.19.13,0,.21.08.24.2.02.07.02.14.02.2,0,.6,0,1.19,0,1.79Z"/>
        <path d="M411.94,217.47c0,.62,0,1.25,0,1.87,0,.21-.09.33-.24.34-.15.01-.28-.11-.28-.32-.01-.41,0-.82,0-1.24,0-.5,0-1,0-1.49,0-.34.03-.69,0-1.03,0-.04,0-.08.01-.12.03-.14.12-.22.27-.22.15,0,.23.1.24.25,0,.27,0,.54,0,.81,0,.38,0,.77,0,1.15Z"/>
        <path d="M412.57,217.46c0-.63,0-1.25,0-1.88,0-.12.02-.23.14-.29.14-.08.32,0,.36.17.01.06.01.13.01.19,0,1.21,0,2.42,0,3.63,0,.05,0,.09,0,.14-.02.16-.13.27-.26.27-.14,0-.24-.12-.24-.28,0-.26,0-.52,0-.77,0-.39,0-.78,0-1.17,0,0,0,0,0,0Z"/>
        <path d="M410.8,217.48c0,.6,0,1.2,0,1.81,0,.05,0,.1,0,.15-.02.15-.13.26-.26.25-.14-.01-.23-.1-.25-.24,0-.05,0-.09,0-.14,0-1.22,0-2.44,0-3.66,0-.05,0-.1,0-.15.02-.14.11-.21.25-.22.13,0,.22.07.25.2.01.06.01.13.01.19,0,.61,0,1.22,0,1.82Z"/>
      </g>
      <g>
        <path d="M536.44,549.56c0,1.89,0,3.79,0,5.68,0,1.09-.42,1.51-1.5,1.51-3.8,0-7.6,0-11.39,0-1.06,0-1.48-.43-1.48-1.49,0-3.79,0-7.57,0-11.36,0-.02,0-.05,0-.07,0-1.02.44-1.45,1.44-1.45,1.83,0,3.67,0,5.5,0,1.98,0,3.95,0,5.93,0,1.08,0,1.5.42,1.5,1.51,0,1.89,0,3.79,0,5.68ZM529.29,542.81c-1.96,0-3.93,0-5.89,0-.67,0-.89.22-.89.88,0,3.92,0,7.84,0,11.75,0,.66.23.88.89.88,3.89,0,7.79,0,11.68,0,.73,0,.93-.21.93-.95,0-3.87,0-7.74,0-11.61,0-.75-.2-.95-.97-.95-1.92,0-3.83,0-5.75,0Z"/>
        <path d="M529.26,556.17c-1.89,0-3.78,0-5.68,0-.76,0-.94-.18-.94-.93,0-3.78,0-7.57,0-11.35,0-.75.18-.94.93-.94,3.78,0,7.57,0,11.35,0,.76,0,.94.18.94.93,0,3.78,0,7.57,0,11.35,0,.75-.18.94-.93.94-1.89,0-3.78,0-5.68,0ZM526.03,549.54c0,1.43,0,2.85,0,4.28,0,.31.09.44.41.42.27-.02.55-.02.83,0,.3.02.4-.1.4-.39-.01-.91,0-1.82,0-2.73,0-.29.09-.41.39-.4.43.01.86.02,1.29,0,.98-.06,1.91-.3,2.55-1.12,1.4-1.8.42-4.27-1.82-4.61-1.19-.18-2.39-.04-3.59-.09-.34-.01-.46.1-.45.45.02,1.4,0,2.8,0,4.2Z"/>
        <path d="M527.65,547.79c0-.39,0-.79,0-1.18,0-.24.08-.35.33-.35.56,0,1.12,0,1.68.08.74.11,1.15.51,1.19,1.17.06,1-.25,1.5-1.04,1.72-.62.17-1.26.14-1.89.13-.23,0-.27-.14-.27-.33,0-.41,0-.81,0-1.22Z"/>
      </g>
      <g>
        <path d="M224.37,561.21c0,1.89,0,3.79,0,5.68,0,1.09-.42,1.51-1.5,1.51-3.8,0-7.6,0-11.39,0-1.06,0-1.48-.43-1.48-1.49,0-3.79,0-7.57,0-11.36,0-.02,0-.05,0-.07,0-1.02.44-1.45,1.44-1.45,1.83,0,3.67,0,5.5,0,1.98,0,3.95,0,5.93,0,1.08,0,1.5.42,1.5,1.51,0,1.89,0,3.79,0,5.68ZM217.22,554.46c-1.96,0-3.93,0-5.89,0-.67,0-.89.22-.89.88,0,3.92,0,7.84,0,11.75,0,.66.23.88.89.88,3.89,0,7.79,0,11.68,0,.73,0,.93-.21.93-.95,0-3.87,0-7.74,0-11.61,0-.75-.2-.95-.97-.95-1.92,0-3.83,0-5.75,0Z"/>
        <path d="M217.19,567.82c-1.89,0-3.78,0-5.68,0-.76,0-.94-.18-.94-.93,0-3.78,0-7.57,0-11.35,0-.75.18-.94.93-.94,3.78,0,7.57,0,11.35,0,.76,0,.94.18.94.93,0,3.78,0,7.57,0,11.35,0,.75-.18.94-.93.94-1.89,0-3.78,0-5.68,0ZM213.96,561.19c0,1.43,0,2.85,0,4.28,0,.31.09.44.41.42.27-.02.55-.02.83,0,.3.02.4-.1.4-.39-.01-.91,0-1.82,0-2.73,0-.29.09-.41.39-.4.43.01.86.02,1.29,0,.98-.06,1.91-.3,2.55-1.12,1.4-1.8.42-4.27-1.82-4.61-1.19-.18-2.39-.04-3.59-.09-.34-.01-.46.1-.45.45.02,1.4,0,2.8,0,4.2Z"/>
        <path d="M215.59,559.44c0-.39,0-.79,0-1.18,0-.24.08-.35.33-.35.56,0,1.12,0,1.68.08.74.11,1.15.51,1.19,1.17.06,1-.25,1.5-1.04,1.72-.62.17-1.26.14-1.89.13-.23,0-.27-.14-.27-.33,0-.41,0-.81,0-1.22Z"/>
      </g>
      <g>
        <path d="M38.49,297.1c0,1.89,0,3.79,0,5.68,0,1.09-.42,1.51-1.5,1.51-3.8,0-7.6,0-11.39,0-1.06,0-1.48-.43-1.48-1.49,0-3.79,0-7.57,0-11.36,0-.02,0-.05,0-.07,0-1.02.44-1.45,1.44-1.45,1.83,0,3.67,0,5.5,0,1.98,0,3.95,0,5.93,0,1.08,0,1.5.42,1.5,1.51,0,1.89,0,3.79,0,5.68ZM31.34,290.35c-1.96,0-3.93,0-5.89,0-.67,0-.89.22-.89.88,0,3.92,0,7.84,0,11.75,0,.66.23.88.89.88,3.89,0,7.79,0,11.68,0,.73,0,.93-.21.93-.95,0-3.87,0-7.74,0-11.61,0-.75-.2-.95-.97-.95-1.92,0-3.83,0-5.75,0Z"/>
        <path d="M31.31,303.71c-1.89,0-3.78,0-5.68,0-.76,0-.94-.18-.94-.93,0-3.78,0-7.57,0-11.35,0-.75.18-.94.93-.94,3.78,0,7.57,0,11.35,0,.76,0,.94.18.94.93,0,3.78,0,7.57,0,11.35,0,.75-.18.94-.93.94-1.89,0-3.78,0-5.68,0ZM28.08,297.08c0,1.43,0,2.85,0,4.28,0,.31.09.44.41.42.27-.02.55-.02.83,0,.3.02.4-.1.4-.39-.01-.91,0-1.82,0-2.73,0-.29.09-.41.39-.4.43.01.86.02,1.29,0,.98-.06,1.91-.3,2.55-1.12,1.4-1.8.42-4.27-1.82-4.61-1.19-.18-2.39-.04-3.59-.09-.34-.01-.46.1-.45.45.02,1.4,0,2.8,0,4.2Z"/>
        <path d="M29.7,295.33c0-.39,0-.79,0-1.18,0-.24.08-.35.33-.35.56,0,1.12,0,1.68.08.74.11,1.15.51,1.19,1.17.06,1-.25,1.5-1.04,1.72-.62.17-1.26.14-1.89.13-.23,0-.27-.14-.27-.33,0-.41,0-.81,0-1.22Z"/>
      </g>
      <rect class="cls-21" x="376.34" y="432.23" width="19.23" height="10.26"/>
      <rect class="cls-21" x="376.34" y="444.89" width="19.23" height="10.26"/>
      <text class="cls-4" transform="translate(382.63 464.12)"><tspan x="0" y="0">C3</tspan></text>
      <rect class="cls-21" x="376.34" y="456.95" width="19.23" height="10.26"/>
      <text class="cls-4" transform="translate(382.39 476.33)"><tspan x="0" y="0">C4</tspan></text>
      <rect class="cls-21" x="376.34" y="469.15" width="19.23" height="10.26"/>
      <path class="cls-32" d="M406.83,493.42c-6.33.04-11.3,5.22-11.26,11.35-.04,6.22,5.07,11.38,11.4,11.35,6.07-.03,11.22-4.88,11.28-11.21.07-6.51-5.18-11.52-11.42-11.48ZM411.61,503.15c.16.35.04.53-.35.53-.49,0-.98,0-1.47,0l1.42-1.42c.13.3.27.59.4.89ZM411.92,505.2c.48,0,.86.37.86.85,0,.49-.36.87-.84.88-.48.01-.88-.38-.88-.87,0-.47.39-.86.86-.86ZM406.19,503.68c-.48,0-.96,0-1.43,0-.71,0-1.42,0-2.14,0-.49,0-.59-.16-.38-.6.24-.54.49-1.08.73-1.63.14-.33.37-.46.72-.46,1.73,0,3.47,0,5.2,0l-2.7,2.7ZM402.78,506.05c0,.46-.39.86-.86.87-.49,0-.87-.37-.87-.87,0-.48.37-.86.85-.86.46,0,.86.39.87.86ZM406.92,495.65c2.06,0,3.96.69,5.48,1.83l-2.46,2.46c-2.21,0-4.42,0-6.63,0-.55,0-.93.23-1.15.74-.38.85-.75,1.7-1.15,2.54-.12.26-.33.49-.47.75-.1.18-.21.37-.22.57-.02.79-.01,1.58-.01,2.37q0,.53.52.63v.28c0,.41,0,.83,0,1.24l-1.21,1.21c-1.13-1.49-1.82-3.37-1.82-5.48,0-5.25,4.26-9.15,9.13-9.13ZM406.91,513.87c-2,.03-3.93-.64-5.5-1.81l4.54-4.54h4.99c0,.56,0,1.1,0,1.64,0,.36.08.43.44.43.39,0,.79,0,1.18,0,.33,0,.38-.05.39-.39,0-.56,0-1.11,0-1.68.54-.07.55-.08.55-.6,0-.76,0-1.52,0-2.28,0-.29-.09-.51-.27-.73-.17-.19-.31-.41-.42-.64-.28-.6-.55-1.19-.82-1.79l2.18-2.18c1.16,1.54,1.84,3.45,1.83,5.55-.02,5.13-4.24,9.09-9.11,9.05Z"/>
      <g>
        <line class="cls-30" x1="369.88" y1="504.63" x2="371.38" y2="504.63"/>
        <line class="cls-22" x1="374.48" y1="504.63" x2="435" y2="504.63"/>
        <line class="cls-30" x1="436.56" y1="504.63" x2="438.06" y2="504.63"/>
      </g>
      <polyline class="cls-23" points="681.24 461.12 732.74 461.12 732.74 461.38 732.74 426.74"/>
      <line class="cls-23" x1="709.89" y1="460.91" x2="709.89" y2="483.93"/>
      <g>
        <path d="M367.63,166.93s-.01,0-.02,0c-5.3,0-10.61,0-15.91,0,0,0-.02,0-.03,0,0,0,0,0,0,0,0,0,0,0,0,0v7.77h15.97s.01-7.73,0-7.77ZM358.1,174.23c-.12.12-.24.25-.36.37-.02.02-.05.03-.08.03-.21,0-.42,0-.62,0-.06,0-.13-.01-.19-.02-.02,0-.04,0-.05-.02,0-.02.01-.04.03-.05.1-.09.19-.17.29-.26.06-.05.11-.11.17-.17,0,0,.02-.02.03-.03-.02,0-.03,0-.04,0-.2,0-.41,0-.61,0-.03,0-.05,0-.08.03-.18.17-.37.34-.55.5-.02.02-.05.03-.08.03-.64,0-1.27,0-1.91,0-.25,0-.49,0-.74,0-.14,0-.27,0-.41-.01-.01,0-.03,0-.05,0,.01-.02.02-.04.03-.05.05-.05.09-.1.14-.15.07-.07.14-.13.21-.2.02-.02.03-.04.03-.07,0-.33,0-.65,0-.98,0-.01,0-.03,0-.05h-.05c-.15,0-.29,0-.44,0-.1,0-.21-.01-.31-.02,0,0-.02,0-.03,0-.04,0-.05-.02-.03-.06.05-.14.09-.28.17-.41.07-.11.15-.2.25-.27.08-.05.16-.09.25-.1.03,0,.07-.02.1-.02.03,0,.04-.02.04-.05,0-.05.01-.1.02-.15.02-.37.02-.75.02-1.12,0-.27,0-.54,0-.81,0-.85,0-1.7,0-2.55,0-.02,0-.04,0-.05,0,0,0,0,0,0,0,0,0,0,0,0,0,0,.01,0,.02,0,1.61,0,3.22,0,4.83,0,0,0,.01,0,.02,0,0,.01,0,.02,0,.03,0,.01,0,.03,0,.04,0,.92,0,1.84,0,2.76,0,.02,0,.04,0,.07-.02,0-.03,0-.04,0-.23,0-.46,0-.7,0-.03,0-.05-.01-.06-.03-.19-.22-.39-.44-.59-.66-.06-.07-.13-.14-.2-.2-.07-.06-.14-.1-.23-.12-.07-.01-.14-.02-.21-.02-.26,0-.52,0-.78,0-.3,0-.59,0-.89.01-.02,0-.04,0-.06.03-.17.17-.3.36-.42.57-.04.07-.08.13-.12.19-.08.1-.12.22-.15.34-.01.06,0,.12.05.16.05.05.11.09.18.1.06,0,.11,0,.14-.05.07-.09.15-.19.21-.28.12-.17.23-.35.34-.53.02-.03.04-.04.08-.04.15,0,.3,0,.45,0,.02,0,.03,0,.05,0,.03,0,.04.03.04.06,0,.03-.02.06-.03.08-.08.17-.15.33-.23.5-.05.1-.1.2-.15.29-.03.05-.04.1-.05.16-.03.16-.05.33-.07.49-.02.13-.03.25-.04.38-.01.13-.02.27-.03.4,0,.04,0,.08,0,.12-.02,0-.04,0-.06,0-.1,0-.21,0-.31,0-.14,0-.27,0-.41.01-.21,0-.43.01-.64.02-.07,0-.14,0-.2,0-.02,0-.04,0-.06.02-.02.02-.04.04-.06.06-.12.1-.18.22-.22.37,0,0,0,.01,0,.02,0,.06,0,.07.06.07.12,0,.25.01.37.01.38,0,.76,0,1.14,0,.21,0,.43,0,.64-.02.06,0,.11,0,.17-.01.08,0,.14-.06.17-.13.03-.06.05-.13.06-.2.03-.18.03-.36.04-.54.01-.19.03-.37.04-.56,0-.03.01-.05.02-.08,0,0,0,0,0,0,.01.01.02.02.03.04.03.05.06.09.08.14.25.47.49.94.73,1.41.09.17.18.34.27.51.03.05.06.1.1.15.09.13.23.2.39.21.13,0,.26,0,.39,0,.06,0,.07-.02.04-.07-.18-.34-.36-.68-.54-1.03-.24-.47-.48-.94-.72-1.41-.02-.04-.04-.09-.06-.13-.01-.02-.01-.05-.01-.07.01-.08.04-.15.07-.23.1-.21.2-.41.3-.61,0-.02.02-.03.03-.05.02-.02.03-.03.06,0,.02.02.04.03.05.05.13.14.26.28.39.43.03.03.06.07.09.1.02.02.04.03.06.03.11,0,.21,0,.32,0,.21,0,.42,0,.62.01,0,0,0,0,.01,0,.03,0,.04,0,.04.04,0,0,0,.02,0,.03,0,1.06,0,2.11,0,3.17,0,.04-.01.07-.04.09ZM366.6,170.87c-.61.56-1.21,1.11-1.82,1.67-.26.24-.51.48-.77.71-.02.02-.05.03-.08.03-.61,0-1.22,0-1.84,0-.02,0-.03,0-.05,0,0,0,0,0,0-.01.61-.57,1.22-1.14,1.84-1.71,0,0,0,0,0,0h-.88c-.15,0-.29,0-.44,0-.15,0-.29,0-.44,0-.15,0-.29,0-.44,0-.15,0-.29,0-.44,0-.15,0-.29,0-.44,0v-1.48c.12,0,.23,0,.34,0,.11,0,.23,0,.34,0h2.39s0,0,0,0c-.01-.01-.02-.02-.04-.03-.38-.35-.76-.7-1.15-1.05-.21-.2-.42-.4-.64-.59-.01-.01-.02-.02-.04-.04.02,0,.04,0,.05,0,.61,0,1.23,0,1.84,0,.03,0,.06.01.08.03.85.78,1.69,1.57,2.54,2.35.04.03.07.07.11.11-.01.01-.02.03-.04.04Z"/>
        <path d="M356.45,169.19c-.07,0-.15,0-.22,0-.13-.02-.24-.09-.3-.21-.11-.19-.11-.39,0-.58.07-.13.18-.2.33-.21.04,0,.07,0,.12-.01.05,0,.11.01.17.03.17.04.37.2.37.47,0,.28-.2.5-.46.53Z"/>
      </g>
      <rect class="cls-23" x="226.93" y="296.7" width="61.93" height="10.87" transform="translate(515.79 604.28) rotate(180)"/>
      <rect class="cls-23" x="129.99" y="296.7" width="61.93" height="10.87" transform="translate(321.92 604.28) rotate(180)"/>
      <rect class="cls-23" x="195.56" y="296.7" width="27.41" height="10.87" transform="translate(418.53 604.28) rotate(180)"/>
      <text class="cls-15" transform="translate(197.34 303.77)"><tspan x="0" y="0">MESA R1</tspan></text>
      <text class="cls-3" transform="translate(132.77 304.45)"><tspan x="0" y="0">SUPLENTES R1 A</tspan></text>
      <text class="cls-3" transform="translate(231.48 304.45)"><tspan x="0" y="0">SUPLENTES R1 B</tspan></text>
      <g class="cls-36">
        <g>
          <rect class="cls-19" x="528.78" y="236.68" width="17.56" height="35.97" transform="translate(326.94 810.96) rotate(-94.61)"/>
          <rect class="cls-19" x="512.16" y="30.51" width="17.56" height="35.97" transform="translate(514.48 571.65) rotate(-94.61)"/>
          <rect class="cls-19" x="417.03" y="76.48" width="224.45" height="150.25" transform="translate(420.69 691.33) rotate(-94.61)"/>
          <circle class="cls-19" cx="529.25" cy="151.61" r="17.28"/>
          <line class="cls-19" x1="454.37" y1="157.64" x2="604.14" y2="145.57"/>
        </g>
        <g>
          <rect class="cls-19" x="708.4" y="223.31" width="17.56" height="35.97" transform="translate(534.32 975.56) rotate(-94.61)"/>
          <rect class="cls-19" x="691.77" y="17.15" width="17.56" height="35.97" transform="translate(721.85 736.24) rotate(-94.61)"/>
          <rect class="cls-19" x="596.65" y="63.11" width="224.45" height="150.25" transform="translate(628.07 855.93) rotate(-94.61)"/>
          <circle class="cls-19" cx="708.87" cy="138.24" r="17.28"/>
          <line class="cls-19" x1="633.99" y1="144.28" x2="783.75" y2="132.2"/>
        </g>
        <g>
          <rect class="cls-26" x="96.25" y="198.01" width="17.9" height="36.66"/>
          <rect class="cls-26" x="307.04" y="198.01" width="17.9" height="36.66"/>
          <rect class="cls-26" x="96.2" y="139.78" width="228.74" height="153.12"/>
          <circle class="cls-26" cx="210.57" cy="216.34" r="17.61"/>
          <line class="cls-26" x1="210.57" y1="139.78" x2="210.57" y2="292.91"/>
        </g>
        <g>
          <rect class="cls-26" x="307" y="398.21" width="17.9" height="36.66" transform="translate(631.89 833.08) rotate(180)"/>
          <rect class="cls-26" x="96.2" y="398.21" width="17.9" height="36.66" transform="translate(210.31 833.08) rotate(180)"/>
          <rect class="cls-26" x="96.2" y="339.98" width="228.74" height="153.12" transform="translate(421.15 833.08) rotate(180)"/>
          <circle class="cls-26" cx="210.57" cy="416.54" r="17.61"/>
          <line class="cls-26" x1="210.57" y1="493.1" x2="210.57" y2="339.98"/>
        </g>
        <text class="cls-33" transform="translate(518.14 200.29)"><tspan x="0" y="0">S1</tspan></text>
        <text class="cls-33" transform="translate(696.87 197.03)"><tspan x="0" y="0">S2</tspan></text>
        <text class="cls-34" transform="translate(247.68 244.48)"><tspan x="0" y="0">R1</tspan></text>
        <text class="cls-34" transform="translate(245.37 392.84)"><tspan x="0" y="0">R2</tspan></text>
      </g>
      <rect class="cls-23" x="132.29" y="325.31" width="61.93" height="10.87"/>
      <rect class="cls-23" x="229.22" y="325.31" width="61.93" height="10.87"/>
      <rect class="cls-23" x="198.18" y="325.31" width="27.41" height="10.87"/>
      <text class="cls-15" transform="translate(224.35 329.12) rotate(-180)"><tspan x="0" y="0">MESA R2</tspan></text>
      <text class="cls-3" transform="translate(289.01 328.43) rotate(-180)"><tspan x="0" y="0">SUPLENTES R2 A</tspan></text>
      <text class="cls-3" transform="translate(190.31 328.43) rotate(-180)"><tspan x="0" y="0">SUPLENTES R2 B</tspan></text>
    </g>
  </g>
</svg>