<?xml version="1.0" encoding="UTF-8"?>
<svg id="Layer_2" xmlns="http://www.w3.org/2000/svg" xmlns:xlink="http://www.w3.org/1999/xlink" viewBox="0 0 804.32 576.65">
  <defs>
    <style>
      .cls-1 {
        filter: url(#outer-glow-17);
      }

      .cls-1, .cls-2, .cls-3, .cls-4, .cls-5, .cls-6, .cls-7, .cls-8, .cls-9, .cls-10, .cls-11, .cls-12, .cls-13, .cls-14, .cls-15, .cls-16, .cls-17, .cls-18, .cls-19, .cls-20, .cls-21, .cls-22, .cls-23, .cls-24, .cls-25, .cls-26, .cls-27, .cls-28, .cls-29, .cls-30, .cls-31, .cls-32, .cls-33, .cls-34, .cls-35, .cls-36, .cls-37, .cls-38, .cls-39, .cls-40, .cls-41, .cls-42, .cls-43, .cls-44, .cls-45, .cls-46 {
        fill: #6fccdd;
      }

      .cls-47 {
        font-size: 3.85px;
      }

      .cls-47, .cls-48, .cls-49, .cls-50, .cls-51, .cls-52, .cls-53, .cls-54, .cls-55, .cls-56, .cls-57, .cls-58, .cls-59, .cls-60, .cls-61, .cls-62, .cls-63, .cls-64, .cls-65 {
        fill: #010101;
      }

      .cls-47, .cls-50, .cls-52, .cls-53, .cls-54, .cls-57, .cls-61, .cls-62, .cls-63, .cls-64, .cls-65 {
        font-family: MontserratRoman-SemiBold, Montserrat;
        font-variation-settings: 'wght' 600;
        font-weight: 600;
      }

      .cls-48 {
        font-size: 23.43px;
      }

      .cls-48, .cls-51, .cls-55, .cls-58, .cls-59 {
        font-family: MontserratRoman-ExtraBold, Montserrat;
        font-variation-settings: 'wght' 800;
        font-weight: 700;
      }

      .cls-2 {
        filter: url(#outer-glow-22);
      }

      .cls-3 {
        filter: url(#outer-glow-21);
      }

      .cls-4 {
        filter: url(#outer-glow-36);
      }

      .cls-49, .cls-66 {
        stroke-width: .5px;
      }

      .cls-49, .cls-66, .cls-67, .cls-68, .cls-56, .cls-69, .cls-70, .cls-71, .cls-72, .cls-73, .cls-74, .cls-75, .cls-76 {
        stroke-miterlimit: 10;
      }

      .cls-49, .cls-66, .cls-67, .cls-56, .cls-69, .cls-70, .cls-71, .cls-72, .cls-73, .cls-74, .cls-76 {
        stroke: #010101;
      }

      .cls-50 {
        font-size: 6.33px;
      }

      .cls-5 {
        filter: url(#outer-glow-15);
      }

      .cls-6 {
        filter: url(#outer-glow-1);
      }

      .cls-77 {
        fill: #231f20;
      }

      .cls-7 {
        filter: url(#outer-glow-11);
      }

      .cls-8 {
        filter: url(#outer-glow-32);
      }

      .cls-51 {
        font-size: 4.98px;
      }

      .cls-9 {
        filter: url(#outer-glow-47);
      }

      .cls-10 {
        filter: url(#outer-glow-14);
      }

      .cls-11 {
        filter: url(#outer-glow-5);
      }

      .cls-78 {
        fill: #fff;
      }

      .cls-12 {
        filter: url(#outer-glow-16);
      }

      .cls-66, .cls-67, .cls-68, .cls-69, .cls-70, .cls-71, .cls-72, .cls-73, .cls-74, .cls-75, .cls-76 {
        fill: none;
      }

      .cls-13 {
        filter: url(#outer-glow-34);
      }

      .cls-52 {
        font-size: 4.99px;
      }

      .cls-14 {
        filter: url(#outer-glow-33);
      }

      .cls-53 {
        font-size: 6.52px;
      }

      .cls-54 {
        font-size: 7.32px;
      }

      .cls-16 {
        filter: url(#outer-glow-2);
      }

      .cls-55 {
        font-size: 7.44px;
      }

      .cls-17 {
        filter: url(#outer-glow-29);
      }

      .cls-18 {
        filter: url(#outer-glow-24);
      }

      .cls-68 {
        stroke-dasharray: 3.1 3.1;
      }

      .cls-68, .cls-75 {
        stroke: #231f20;
      }

      .cls-19 {
        filter: url(#outer-glow-6);
      }

      .cls-57 {
        font-size: 5px;
      }

      .cls-69, .cls-71, .cls-72, .cls-74 {
        stroke-width: .75px;
      }

      .cls-70, .cls-76 {
        stroke-width: .49px;
      }

      .cls-71 {
        stroke-dasharray: 1.46 1.46;
      }

      .cls-20 {
        filter: url(#outer-glow-39);
      }

      .cls-21 {
        filter: url(#outer-glow-9);
      }

      .cls-22 {
        filter: url(#outer-glow-44);
      }

      .cls-58 {
        font-size: 11.71px;
      }

      .cls-72 {
        stroke-dasharray: 1.47 1.47;
      }

      .cls-59 {
        font-size: 23.88px;
      }

      .cls-23 {
        filter: url(#outer-glow-35);
      }

      .cls-73 {
        stroke-dasharray: 1.48;
      }

      .cls-24 {
        filter: url(#outer-glow-20);
      }

      .cls-25 {
        filter: url(#outer-glow-12);
      }

      .cls-26 {
        filter: url(#outer-glow-3);
      }

      .cls-27 {
        filter: url(#outer-glow-25);
      }

      .cls-28 {
        filter: url(#outer-glow-27);
      }

      .cls-29 {
        filter: url(#outer-glow-26);
      }

      .cls-30 {
        filter: url(#outer-glow-19);
      }

      .cls-74 {
        stroke-dasharray: 1.46 1.46;
      }

      .cls-31 {
        filter: url(#outer-glow-30);
      }

      .cls-32 {
        filter: url(#outer-glow-23);
      }

      .cls-33 {
        filter: url(#outer-glow-13);
      }

      .cls-34 {
        filter: url(#outer-glow-43);
      }

      .cls-35 {
        filter: url(#outer-glow-31);
      }

      .cls-79 {
        filter: url(#outer-glow-40);
      }

      .cls-36 {
        filter: url(#outer-glow-8);
      }

      .cls-61 {
        font-size: 6px;
      }

      .cls-62 {
        font-size: 5.35px;
      }

      .cls-37 {
        filter: url(#outer-glow-41);
      }

      .cls-38 {
        filter: url(#outer-glow-18);
      }

      .cls-76 {
        stroke-dasharray: 1.63 1.63;
      }

      .cls-63 {
        font-size: 4.4px;
      }

      .cls-39 {
        filter: url(#outer-glow-48);
      }

      .cls-40 {
        filter: url(#outer-glow-10);
      }

      .cls-41 {
        filter: url(#outer-glow-7);
      }

      .cls-64 {
        font-size: 4.85px;
      }

      .cls-42 {
        filter: url(#outer-glow-37);
      }

      .cls-43 {
        filter: url(#outer-glow-28);
      }

      .cls-44 {
        filter: url(#outer-glow-46);
      }

      .cls-45 {
        filter: url(#outer-glow-38);
      }

      .cls-46 {
        filter: url(#outer-glow-4);
      }

      .cls-65 {
        font-size: 19.19px;
      }
    </style>
    <filter id="outer-glow-1" x="389.98" y="219.74" width="30.24" height="66.96" filterUnits="userSpaceOnUse">
      <feOffset dx="0" dy="0"/>
      <feGaussianBlur result="blur" stdDeviation="5"/>
      <feFlood flood-color="#55c6d3" flood-opacity=".5"/>
      <feComposite in2="blur" operator="in"/>
      <feComposite in="SourceGraphic"/>
    </filter>
    <filter id="outer-glow-2" x="389.5" y="219.26" width="31.44" height="67.44" filterUnits="userSpaceOnUse">
      <feOffset dx="0" dy="0"/>
      <feGaussianBlur result="blur-2" stdDeviation="5"/>
      <feFlood flood-color="#55c6d3" flood-opacity=".5"/>
      <feComposite in2="blur-2" operator="in"/>
      <feComposite in="SourceGraphic"/>
    </filter>
    <filter id="outer-glow-3" x="369.1" y="219.74" width="31.44" height="46.32" filterUnits="userSpaceOnUse">
      <feOffset dx="0" dy="0"/>
      <feGaussianBlur result="blur-3" stdDeviation="5"/>
      <feFlood flood-color="#55c6d3" flood-opacity=".5"/>
      <feComposite in2="blur-3" operator="in"/>
      <feComposite in="SourceGraphic"/>
    </filter>
    <filter id="outer-glow-4" x="369.58" y="319.1" width="51.36" height="45.84" filterUnits="userSpaceOnUse">
      <feOffset dx="0" dy="0"/>
      <feGaussianBlur result="blur-4" stdDeviation="5"/>
      <feFlood flood-color="#55c6d3" flood-opacity=".5"/>
      <feComposite in2="blur-4" operator="in"/>
      <feComposite in="SourceGraphic"/>
    </filter>
    <filter id="outer-glow-5" x="369.58" y="319.1" width="51.36" height="124.08" filterUnits="userSpaceOnUse">
      <feOffset dx="0" dy="0"/>
      <feGaussianBlur result="blur-5" stdDeviation="5"/>
      <feFlood flood-color="#55c6d3" flood-opacity=".5"/>
      <feComposite in2="blur-5" operator="in"/>
      <feComposite in="SourceGraphic"/>
    </filter>
    <filter id="outer-glow-6" x="369.58" y="340.94" width="31.2" height="53.28" filterUnits="userSpaceOnUse">
      <feOffset dx="0" dy="0"/>
      <feGaussianBlur result="blur-6" stdDeviation="5"/>
      <feFlood flood-color="#55c6d3" flood-opacity=".5"/>
      <feComposite in2="blur-6" operator="in"/>
      <feComposite in="SourceGraphic"/>
    </filter>
    <filter id="outer-glow-7" x="369.1" y="239.66" width="31.44" height="47.04" filterUnits="userSpaceOnUse">
      <feOffset dx="0" dy="0"/>
      <feGaussianBlur result="blur-7" stdDeviation="5"/>
      <feFlood flood-color="#55c6d3" flood-opacity=".5"/>
      <feComposite in2="blur-7" operator="in"/>
      <feComposite in="SourceGraphic"/>
    </filter>
    <filter id="outer-glow-8" x="369.82" y="256.22" width="50.4" height="30.72" filterUnits="userSpaceOnUse">
      <feOffset dx="0" dy="0"/>
      <feGaussianBlur result="blur-8" stdDeviation="5"/>
      <feFlood flood-color="#55c6d3" flood-opacity=".5"/>
      <feComposite in2="blur-8" operator="in"/>
      <feComposite in="SourceGraphic"/>
    </filter>
    <filter id="outer-glow-9" x="665.26" y="345.02" width="92.16" height="154.32" filterUnits="userSpaceOnUse">
      <feOffset dx="0" dy="0"/>
      <feGaussianBlur result="blur-9" stdDeviation="5"/>
      <feFlood flood-color="#55c6d3" flood-opacity=".5"/>
      <feComposite in2="blur-9" operator="in"/>
      <feComposite in="SourceGraphic"/>
    </filter>
    <filter id="outer-glow-10" x="699.34" y="345.02" width="58.08" height="97.2" filterUnits="userSpaceOnUse">
      <feOffset dx="0" dy="0"/>
      <feGaussianBlur result="blur-10" stdDeviation="5"/>
      <feFlood flood-color="#55c6d3" flood-opacity=".5"/>
      <feComposite in2="blur-10" operator="in"/>
      <feComposite in="SourceGraphic"/>
    </filter>
    <filter id="outer-glow-11" x="370.06" y="348.38" width="50.16" height="31.2" filterUnits="userSpaceOnUse">
      <feOffset dx="0" dy="0"/>
      <feGaussianBlur result="blur-11" stdDeviation="5"/>
      <feFlood flood-color="#55c6d3" flood-opacity=".5"/>
      <feComposite in2="blur-11" operator="in"/>
      <feComposite in="SourceGraphic"/>
    </filter>
    <filter id="outer-glow-12" x="375.58" y="335.18" width="35.28" height="35.52" filterUnits="userSpaceOnUse">
      <feOffset dx="0" dy="0"/>
      <feGaussianBlur result="blur-12" stdDeviation="5"/>
      <feFlood flood-color="#55c6d3" flood-opacity=".5"/>
      <feComposite in2="blur-12" operator="in"/>
      <feComposite in="SourceGraphic"/>
    </filter>
    <filter id="outer-glow-13" x="381.1" y="335.18" width="34.8" height="35.52" filterUnits="userSpaceOnUse">
      <feOffset dx="0" dy="0"/>
      <feGaussianBlur result="blur-13" stdDeviation="5"/>
      <feFlood flood-color="#55c6d3" flood-opacity=".5"/>
      <feComposite in2="blur-13" operator="in"/>
      <feComposite in="SourceGraphic"/>
    </filter>
    <filter id="outer-glow-14" x="373.66" y="235.82" width="35.28" height="35.52" filterUnits="userSpaceOnUse">
      <feOffset dx="0" dy="0"/>
      <feGaussianBlur result="blur-14" stdDeviation="5"/>
      <feFlood flood-color="#55c6d3" flood-opacity=".5"/>
      <feComposite in2="blur-14" operator="in"/>
      <feComposite in="SourceGraphic"/>
    </filter>
    <filter id="outer-glow-15" x="378.94" y="235.82" width="34.56" height="35.52" filterUnits="userSpaceOnUse">
      <feOffset dx="0" dy="0"/>
      <feGaussianBlur result="blur-15" stdDeviation="5"/>
      <feFlood flood-color="#55c6d3" flood-opacity=".5"/>
      <feComposite in2="blur-15" operator="in"/>
      <feComposite in="SourceGraphic"/>
    </filter>
    <filter id="outer-glow-16" x="383.5" y="235.58" width="33.36" height="33.36" filterUnits="userSpaceOnUse">
      <feOffset dx="0" dy="0"/>
      <feGaussianBlur result="blur-16" stdDeviation="5"/>
      <feFlood flood-color="#55c6d3" flood-opacity=".5"/>
      <feComposite in2="blur-16" operator="in"/>
      <feComposite in="SourceGraphic"/>
    </filter>
    <filter id="outer-glow-17" x="617.26" y="320.54" width="32.4" height="32.88" filterUnits="userSpaceOnUse">
      <feOffset dx="0" dy="0"/>
      <feGaussianBlur result="blur-17" stdDeviation="5"/>
      <feFlood flood-color="#55c6d3" flood-opacity=".5"/>
      <feComposite in2="blur-17" operator="in"/>
      <feComposite in="SourceGraphic"/>
    </filter>
    <filter id="outer-glow-18" x="619.9" y="320.54" width="32.64" height="32.88" filterUnits="userSpaceOnUse">
      <feOffset dx="0" dy="0"/>
      <feGaussianBlur result="blur-18" stdDeviation="5"/>
      <feFlood flood-color="#55c6d3" flood-opacity=".5"/>
      <feComposite in2="blur-18" operator="in"/>
      <feComposite in="SourceGraphic"/>
    </filter>
    <filter id="outer-glow-19" x="622.78" y="320.54" width="32.4" height="32.88" filterUnits="userSpaceOnUse">
      <feOffset dx="0" dy="0"/>
      <feGaussianBlur result="blur-19" stdDeviation="5"/>
      <feFlood flood-color="#55c6d3" flood-opacity=".5"/>
      <feComposite in2="blur-19" operator="in"/>
      <feComposite in="SourceGraphic"/>
    </filter>
    <filter id="outer-glow-20" x="625.42" y="320.54" width="32.64" height="32.88" filterUnits="userSpaceOnUse">
      <feOffset dx="0" dy="0"/>
      <feGaussianBlur result="blur-20" stdDeviation="5"/>
      <feFlood flood-color="#55c6d3" flood-opacity=".5"/>
      <feComposite in2="blur-20" operator="in"/>
      <feComposite in="SourceGraphic"/>
    </filter>
    <filter id="outer-glow-21" x="627.82" y="320.54" width="33.12" height="32.88" filterUnits="userSpaceOnUse">
      <feOffset dx="0" dy="0"/>
      <feGaussianBlur result="blur-21" stdDeviation="5"/>
      <feFlood flood-color="#55c6d3" flood-opacity=".5"/>
      <feComposite in2="blur-21" operator="in"/>
      <feComposite in="SourceGraphic"/>
    </filter>
    <filter id="outer-glow-22" x="631.18" y="320.54" width="32.88" height="32.88" filterUnits="userSpaceOnUse">
      <feOffset dx="0" dy="0"/>
      <feGaussianBlur result="blur-22" stdDeviation="5"/>
      <feFlood flood-color="#55c6d3" flood-opacity=".5"/>
      <feComposite in2="blur-22" operator="in"/>
      <feComposite in="SourceGraphic"/>
    </filter>
    <filter id="outer-glow-23" x="634.06" y="320.54" width="33.12" height="32.88" filterUnits="userSpaceOnUse">
      <feOffset dx="0" dy="0"/>
      <feGaussianBlur result="blur-23" stdDeviation="5"/>
      <feFlood flood-color="#55c6d3" flood-opacity=".5"/>
      <feComposite in2="blur-23" operator="in"/>
      <feComposite in="SourceGraphic"/>
    </filter>
    <filter id="outer-glow-24" x="617.26" y="325.1" width="32.64" height="32.88" filterUnits="userSpaceOnUse">
      <feOffset dx="0" dy="0"/>
      <feGaussianBlur result="blur-24" stdDeviation="5"/>
      <feFlood flood-color="#55c6d3" flood-opacity=".5"/>
      <feComposite in2="blur-24" operator="in"/>
      <feComposite in="SourceGraphic"/>
    </filter>
    <filter id="outer-glow-25" x="619.9" y="325.1" width="32.16" height="33.12" filterUnits="userSpaceOnUse">
      <feOffset dx="0" dy="0"/>
      <feGaussianBlur result="blur-25" stdDeviation="5"/>
      <feFlood flood-color="#55c6d3" flood-opacity=".5"/>
      <feComposite in2="blur-25" operator="in"/>
      <feComposite in="SourceGraphic"/>
    </filter>
    <filter id="outer-glow-26" x="622.3" y="327.26" width="30.72" height="31.44" filterUnits="userSpaceOnUse">
      <feOffset dx="0" dy="0"/>
      <feGaussianBlur result="blur-26" stdDeviation="5"/>
      <feFlood flood-color="#55c6d3" flood-opacity=".5"/>
      <feComposite in2="blur-26" operator="in"/>
      <feComposite in="SourceGraphic"/>
    </filter>
    <filter id="outer-glow-27" x="624.46" y="325.1" width="32.64" height="32.88" filterUnits="userSpaceOnUse">
      <feOffset dx="0" dy="0"/>
      <feGaussianBlur result="blur-27" stdDeviation="5"/>
      <feFlood flood-color="#55c6d3" flood-opacity=".5"/>
      <feComposite in2="blur-27" operator="in"/>
      <feComposite in="SourceGraphic"/>
    </filter>
    <filter id="outer-glow-28" x="627.1" y="325.1" width="32.88" height="32.88" filterUnits="userSpaceOnUse">
      <feOffset dx="0" dy="0"/>
      <feGaussianBlur result="blur-28" stdDeviation="5"/>
      <feFlood flood-color="#55c6d3" flood-opacity=".5"/>
      <feComposite in2="blur-28" operator="in"/>
      <feComposite in="SourceGraphic"/>
    </filter>
    <filter id="outer-glow-29" x="629.98" y="327.26" width="30.72" height="31.44" filterUnits="userSpaceOnUse">
      <feOffset dx="0" dy="0"/>
      <feGaussianBlur result="blur-29" stdDeviation="5"/>
      <feFlood flood-color="#55c6d3" flood-opacity=".5"/>
      <feComposite in2="blur-29" operator="in"/>
      <feComposite in="SourceGraphic"/>
    </filter>
    <filter id="outer-glow-30" x="632.14" y="325.1" width="32.64" height="32.88" filterUnits="userSpaceOnUse">
      <feOffset dx="0" dy="0"/>
      <feGaussianBlur result="blur-30" stdDeviation="5"/>
      <feFlood flood-color="#55c6d3" flood-opacity=".5"/>
      <feComposite in2="blur-30" operator="in"/>
      <feComposite in="SourceGraphic"/>
    </filter>
    <filter id="outer-glow-31" x="634.78" y="325.1" width="32.4" height="33.12" filterUnits="userSpaceOnUse">
      <feOffset dx="0" dy="0"/>
      <feGaussianBlur result="blur-31" stdDeviation="5"/>
      <feFlood flood-color="#55c6d3" flood-opacity=".5"/>
      <feComposite in2="blur-31" operator="in"/>
      <feComposite in="SourceGraphic"/>
    </filter>
    <filter id="outer-glow-32" x="374.62" y="378.38" width="35.04" height="35.52" filterUnits="userSpaceOnUse">
      <feOffset dx="0" dy="0"/>
      <feGaussianBlur result="blur-32" stdDeviation="5"/>
      <feFlood flood-color="#55c6d3" flood-opacity=".5"/>
      <feComposite in2="blur-32" operator="in"/>
      <feComposite in="SourceGraphic"/>
    </filter>
    <filter id="outer-glow-33" x="379.9" y="378.38" width="32.64" height="35.52" filterUnits="userSpaceOnUse">
      <feOffset dx="0" dy="0"/>
      <feGaussianBlur result="blur-33" stdDeviation="5"/>
      <feFlood flood-color="#55c6d3" flood-opacity=".5"/>
      <feComposite in2="blur-33" operator="in"/>
      <feComposite in="SourceGraphic"/>
    </filter>
    <filter id="outer-glow-34" x="382.78" y="378.14" width="33.6" height="33.12" filterUnits="userSpaceOnUse">
      <feOffset dx="0" dy="0"/>
      <feGaussianBlur result="blur-34" stdDeviation="5"/>
      <feFlood flood-color="#55c6d3" flood-opacity=".5"/>
      <feComposite in2="blur-34" operator="in"/>
      <feComposite in="SourceGraphic"/>
    </filter>
    <filter id="outer-glow-35" x="707.74" y="379.1" width="35.04" height="35.52" filterUnits="userSpaceOnUse">
      <feOffset dx="0" dy="0"/>
      <feGaussianBlur result="blur-35" stdDeviation="5"/>
      <feFlood flood-color="#55c6d3" flood-opacity=".5"/>
      <feComposite in2="blur-35" operator="in"/>
      <feComposite in="SourceGraphic"/>
    </filter>
    <filter id="outer-glow-36" x="712.78" y="379.1" width="34.56" height="35.76" filterUnits="userSpaceOnUse">
      <feOffset dx="0" dy="0"/>
      <feGaussianBlur result="blur-36" stdDeviation="5"/>
      <feFlood flood-color="#55c6d3" flood-opacity=".5"/>
      <feComposite in2="blur-36" operator="in"/>
      <feComposite in="SourceGraphic"/>
    </filter>
    <filter id="outer-glow-37" x="717.34" y="378.86" width="33.6" height="33.36" filterUnits="userSpaceOnUse">
      <feOffset dx="0" dy="0"/>
      <feGaussianBlur result="blur-37" stdDeviation="5"/>
      <feFlood flood-color="#55c6d3" flood-opacity=".5"/>
      <feComposite in2="blur-37" operator="in"/>
      <feComposite in="SourceGraphic"/>
    </filter>
    <filter id="outer-glow-38" x="708.22" y="455.42" width="35.28" height="35.52" filterUnits="userSpaceOnUse">
      <feOffset dx="0" dy="0"/>
      <feGaussianBlur result="blur-38" stdDeviation="5"/>
      <feFlood flood-color="#55c6d3" flood-opacity=".5"/>
      <feComposite in2="blur-38" operator="in"/>
      <feComposite in="SourceGraphic"/>
    </filter>
    <filter id="outer-glow-39" x="713.74" y="455.42" width="35.04" height="35.52" filterUnits="userSpaceOnUse">
      <feOffset dx="0" dy="0"/>
      <feGaussianBlur result="blur-39" stdDeviation="5"/>
      <feFlood flood-color="#55c6d3" flood-opacity=".5"/>
      <feComposite in2="blur-39" operator="in"/>
      <feComposite in="SourceGraphic"/>
    </filter>
    <filter id="outer-glow-40" x="676.54" y="455.42" width="39.84" height="35.52" filterUnits="userSpaceOnUse">
      <feOffset dx="0" dy="0"/>
      <feGaussianBlur result="blur-40" stdDeviation="5"/>
      <feFlood flood-color="#55c6d3" flood-opacity=".5"/>
      <feComposite in2="blur-40" operator="in"/>
      <feComposite in="SourceGraphic"/>
    </filter>
    <filter id="outer-glow-41" x="388.54" y="314.06" width="32.64" height="33.12" filterUnits="userSpaceOnUse">
      <feOffset dx="0" dy="0"/>
      <feGaussianBlur result="blur-41" stdDeviation="5"/>
      <feFlood flood-color="#55c6d3" flood-opacity=".5"/>
      <feComposite in2="blur-41" operator="in"/>
      <feComposite in="SourceGraphic"/>
    </filter>
    <filter id="outer-glow-43" x="389.74" y="315.26" width="35.04" height="30.72" filterUnits="userSpaceOnUse">
      <feOffset dx="0" dy="0"/>
      <feGaussianBlur result="blur-42" stdDeviation="5"/>
      <feFlood flood-color="#55c6d3" flood-opacity=".5"/>
      <feComposite in2="blur-42" operator="in"/>
      <feComposite in="SourceGraphic"/>
    </filter>
    <filter id="outer-glow-44" x="626.62" y="334.22" width="32.88" height="32.64" filterUnits="userSpaceOnUse">
      <feOffset dx="0" dy="0"/>
      <feGaussianBlur result="blur-43" stdDeviation="5"/>
      <feFlood flood-color="#55c6d3" flood-opacity=".5"/>
      <feComposite in2="blur-43" operator="in"/>
      <feComposite in="SourceGraphic"/>
    </filter>
    <filter id="outer-glow-46" x="627.58" y="330.62" width="30.72" height="35.04" filterUnits="userSpaceOnUse">
      <feOffset dx="0" dy="0"/>
      <feGaussianBlur result="blur-44" stdDeviation="5"/>
      <feFlood flood-color="#55c6d3" flood-opacity=".5"/>
      <feComposite in2="blur-44" operator="in"/>
      <feComposite in="SourceGraphic"/>
    </filter>
    <filter id="outer-glow-47" x="666.22" y="411.74" width="82.08" height="64.8" filterUnits="userSpaceOnUse">
      <feOffset dx="0" dy="0"/>
      <feGaussianBlur result="blur-45" stdDeviation="5"/>
      <feFlood flood-color="#55c6d3" flood-opacity=".5"/>
      <feComposite in2="blur-45" operator="in"/>
      <feComposite in="SourceGraphic"/>
    </filter>
    <filter id="outer-glow-48" x="694.3" y="445.82" width="31.2" height="53.28" filterUnits="userSpaceOnUse">
      <feOffset dx="0" dy="0"/>
      <feGaussianBlur result="blur-46" stdDeviation="5"/>
      <feFlood flood-color="#55c6d3" flood-opacity=".5"/>
      <feComposite in2="blur-46" operator="in"/>
      <feComposite in="SourceGraphic"/>
    </filter>
  </defs>
  <g id="Layer_1-2" data-name="Layer_1">
    <g>
      <polyline class="cls-67" points="377.54 113.78 369.89 114.6 370.68 31.8 400.3 29.98 407.24 110.59 398.72 111.51"/>
      <text class="cls-65" transform="translate(471.33 423.33)"><tspan x="0" y="0">FUNZONE</tspan></text>
      <g>
        <rect class="cls-67" x="528.78" y="236.68" width="17.56" height="35.97" transform="translate(326.94 810.96) rotate(-94.61)"/>
        <rect class="cls-67" x="512.16" y="30.51" width="17.56" height="35.97" transform="translate(514.48 571.65) rotate(-94.61)"/>
        <rect class="cls-67" x="417.03" y="76.48" width="224.45" height="150.25" transform="translate(420.69 691.33) rotate(-94.61)"/>
        <circle class="cls-67" cx="529.25" cy="151.6" r="17.28"/>
        <line class="cls-67" x1="454.37" y1="157.64" x2="604.14" y2="145.57"/>
      </g>
      <g>
        <rect class="cls-67" x="708.4" y="223.31" width="17.56" height="35.97" transform="translate(534.32 975.56) rotate(-94.61)"/>
        <rect class="cls-67" x="691.77" y="17.15" width="17.56" height="35.97" transform="translate(721.86 736.24) rotate(-94.61)"/>
        <rect class="cls-67" x="596.65" y="63.11" width="224.45" height="150.25" transform="translate(628.07 855.93) rotate(-94.61)"/>
        <circle class="cls-67" cx="708.87" cy="138.24" r="17.28"/>
        <line class="cls-67" x1="633.99" y1="144.28" x2="783.75" y2="132.2"/>
      </g>
      <rect class="cls-67" x="611.26" y="139.86" width="26.9" height="10.67" transform="translate(719.21 -489.16) rotate(85.39)"/>
      <rect class="cls-67" x="590.48" y="92.3" width="60.77" height="10.67" transform="translate(668.27 -529.07) rotate(85.39)"/>
      <rect class="cls-67" x="579.05" y="93.22" width="60.77" height="10.67" transform="translate(658.67 -516.83) rotate(85.39)"/>
      <rect class="cls-67" x="598.13" y="187.11" width="60.77" height="10.67" transform="translate(769.8 -449.51) rotate(85.39)"/>
      <rect class="cls-67" x="586.69" y="188.03" width="60.77" height="10.67" transform="translate(760.21 -437.26) rotate(85.39)"/>
      <rect class="cls-67" x="599.82" y="140.79" width="26.9" height="10.67" transform="translate(709.61 -476.91) rotate(85.39)"/>
      <polygon class="cls-67" points="803.79 260.66 444.24 283.97 428.67 31.31 788.22 7.99 803.79 260.66"/>
      <polyline class="cls-67" points="638.58 272 653.47 318.28 653.04 360.51"/>
      <line class="cls-67" x1="400.74" y1="33.03" x2="428.67" y2="31.31"/>
      <polyline class="cls-67" points="600.73 350.85 600.73 515.27 438.05 515.27 438.05 320.06 600.73 320.06 600.73 343.68"/>
      <polyline class="cls-67" points="600.73 483.93 600.73 360.51 600.73 360.51"/>
      <polyline class="cls-67" points="605.59 360.51 653.04 360.51 653.04 483.93 605.43 483.93"/>
      <polyline class="cls-67" points="69.06 86.69 369.88 86.69 369.88 114.61"/>
      <polyline class="cls-67" points="61.89 86.69 57.14 86.69 57.14 114.61"/>
      <polyline class="cls-67" points="57.14 114.61 57.14 121.49 57.14 479.6"/>
      <polyline class="cls-67" points="57.14 486.77 57.14 497.47 57.14 534.77 369.88 534.77 369.88 528.88"/>
      <polyline class="cls-67" points="362.4 340.72 362.4 372.77 362.4 427.63 369.88 427.63 369.88 521.71"/>
      <polyline class="cls-67" points="364.43 216.68 364.43 224.16 369.89 224.16 369.89 249.17"/>
      <line class="cls-67" x1="369.89" y1="114.6" x2="369.89" y2="157.42"/>
      <line class="cls-67" x1="362.4" y1="323.69" x2="362.4" y2="320.37"/>
      <polyline class="cls-67" points="347.8 234.8 362.4 234.8 362.4 294.94"/>
      <line class="cls-67" x1="343.11" y1="114.6" x2="343.11" y2="234.8"/>
      <polyline class="cls-56" points="405.21 271.67 405.21 301.22 405.21 320.37 405.21 326.94"/>
      <g>
        <polyline class="cls-6" points="405.2 234.8 405.21 234.8 405.21 271.67"/>
        <polygon class="cls-16" points="405.71 271.67 404.71 271.67 404.71 234.8 405.21 234.8 405.2 234.3 405.71 234.3 405.71 271.67"/>
      </g>
      <line class="cls-56" x1="381.78" y1="234.8" x2="381.24" y2="234.8"/>
      <polyline class="cls-67" points="347.8 234.8 362.4 234.8 362.52 234.8"/>
      <polyline class="cls-67" points="385.21 427.63 385.21 427.63 377.13 427.63 347.8 427.63"/>
      <polygon class="cls-56" points="410.59 157.42 411.65 174.7 369.89 174.7 369.89 157.42 410.59 157.42"/>
      <polygon class="cls-56" points="413.24 200.42 369.89 200.32 369.89 181.87 412.1 181.87 413.24 200.42"/>
      <polygon class="cls-56" points="405.2 200.48 405.2 234.8 381.78 234.8 381.78 226.85 401.26 226.85 401.26 200.48 405.2 200.48"/>
      <polyline class="cls-56" points="405.2 234.95 405.2 234.8 384.82 234.8"/>
      <polyline class="cls-67" points="369.88 214.18 369.88 200.48 401.26 200.48"/>
      <polyline class="cls-67" points="623.17 360.51 653.04 360.51 653.04 483.93 623.17 483.93"/>
      <text class="cls-48" transform="translate(518.14 200.29)"><tspan x="0" y="0">S1</tspan></text>
      <text class="cls-48" transform="translate(696.87 197.03)"><tspan x="0" y="0">S2</tspan></text>
      <polyline class="cls-67" points="57.14 486.77 57.14 497.48 .52 497.48 18.77 121.49 57.14 121.49 57.14 479.6"/>
      <rect class="cls-67" x="202.94" y="392.75" width="14.24" height="298.29" transform="translate(751.96 331.84) rotate(90)"/>
      <path class="cls-67" d="M612.35,576.08l-174.29-26.57v-16.16c84.29,1.92,178,13.6,178,13.6l-3.7,29.13Z"/>
      <rect class="cls-60" x="627.65" y="458.54" width="20.91" height="29.87" transform="translate(1111.58 -164.63) rotate(90)"/>
      <polyline class="cls-67" points="623.17 422.43 623.17 360.92 653.04 360.92 653.04 483.5 623.17 483.5 623.17 433.41"/>
      <rect class="cls-60" x="617.04" y="366.63" width="42.13" height="29.87" transform="translate(1019.68 -256.54) rotate(90)"/>
      <g>
        <path class="cls-60" d="M642.86,414.94c-.49,0-.98,0-1.47,0-.42,0-.85,0-1.27,0-.61,0-.97-.24-.93-.63.06-.57.5-.61.94-.62,1.96,0,3.91,0,5.87,0,.18,0,.36,0,.55,0,0-.03,0-.07,0-.1-.89,0-1.78.01-2.67,0-.43,0-1.02.09-1.02-.54,0-.63.59-.48.98-.48,1.14-.01,2.29-.01,3.43,0,.9,0,1.32.43,1.34,1.32,0,.76,0,1.51,0,2.27-.01.88-.46,1.34-1.33,1.35-1.24.01-2.47,0-3.71,0-.36,0-.72-.06-.72-.49,0-.47.38-.53.75-.54.99,0,1.97,0,2.96-.11-1.18,0-2.35,0-3.53,0-1.01,0-2.03,0-3.04,0-.4,0-.78-.13-.78-.6,0-.49.35-.64.79-.64.96,0,1.91,0,2.87,0,0-.06,0-.12,0-.18Z"/>
        <path class="cls-60" d="M646.94,406.71c-.75-.33-1.52-.43-2.24-.69-.32-.12-.86-.11-.72-.63.15-.53.6-.26.94-.17.84.22,1.67.45,2.51.7.86.26,1.18.68,1.19,1.57,0,.44.02.89,0,1.33-.04.65-.35,1.13-1,1.32-.99.3-1.99.57-2.98.85-.27.08-.54.09-.65-.23-.12-.36.14-.5.42-.58.83-.24,1.66-.47,2.48-.71l-.03-.14c-.46.12-.92.24-1.38.37-.64.18-1.28.35-1.92.55-.38.12-.59.02-.55-.4.05-.5-.22-.58-.64-.57-.79.02-1.59,0-2.38,0-.39,0-.8-.08-.79-.57,0-.49.42-.54.81-.54.95,0,1.9,0,2.85-.06-.14-.17-.33-.13-.5-.13-.83,0-1.66,0-2.49-.01-.37,0-.68-.14-.67-.57,0-.4.31-.53.65-.53.85-.02,1.7-.02,2.55,0,.4,0,.65-.08.6-.55-.04-.46.19-.53.59-.41.92.27,1.84.53,2.77.78.16.04.33.17.58.05Z"/>
        <path class="cls-60" d="M648.76,408.03c.01-.6.5-1.1,1.09-1.1.61,0,1.12.52,1.11,1.14,0,.59-.52,1.1-1.1,1.1-.62,0-1.12-.51-1.1-1.14Z"/>
        <path class="cls-60" d="M648.76,414.99c.02-.6.52-1.09,1.11-1.08.6.01,1.13.56,1.1,1.16-.03.59-.54,1.09-1.12,1.08-.61,0-1.11-.54-1.09-1.16Z"/>
      </g>
      <polyline class="cls-67" points="381.78 234.8 376.28 234.8 376.28 249.17 376.28 270.9"/>
      <rect class="cls-26" x="384.32" y="234.8" width="1" height="16.12"/>
      <polyline class="cls-67" points="384.82 288.18 384.82 301.22 384.82 309.56"/>
      <polyline class="cls-67" points="376.28 274.66 376.28 294.93 376.28 294.94"/>
      <polygon class="cls-46" points="385.71 349.9 384.71 349.9 384.71 340.22 404.71 340.22 404.71 334.11 405.71 334.11 405.71 341.22 385.71 341.22 385.71 349.9"/>
      <polyline class="cls-67" points="362.4 336.24 362.4 340.72 377.13 340.72 377.13 363.93"/>
      <polyline class="cls-67" points="385.21 427.63 377.13 427.63 377.13 385.58"/>
      <polygon class="cls-11" points="405.71 428.13 384.71 428.13 384.71 385.11 385.71 385.11 385.71 427.13 404.71 427.13 404.71 334.11 405.71 334.11 405.71 428.13"/>
      <rect class="cls-19" x="384.71" y="355.95" width="1" height="23.1"/>
      <polyline class="cls-67" points="377.13 379.53 377.13 372.77 377.13 370.6"/>
      <polyline class="cls-67" points="405.21 326.94 405.21 320.37 384.82 320.37 384.82 313.32"/>
      <rect class="cls-56" x="362.4" y="294.94" width="13.88" height="25.43"/>
      <rect class="cls-41" x="384.32" y="254.68" width="1" height="16.99"/>
      <line class="cls-67" x1="384.82" y1="284.42" x2="384.82" y2="271.67"/>
      <line class="cls-66" x1="384.82" y1="301.22" x2="405.2" y2="301.22"/>
      <rect class="cls-36" x="384.82" y="271.42" width="20.38" height=".5"/>
      <polyline class="cls-69" points="680.85 461.12 680.85 360.51 699.87 360.51"/>
      <polygon class="cls-21" points="742.23 484.31 680.47 484.31 680.47 461.12 681.22 461.12 681.22 483.56 741.48 483.56 741.48 360.88 709.12 360.88 709.12 360.13 742.23 360.13 742.23 484.31"/>
      <path class="cls-40" d="M742.23,427.12h-27.76v-66.99h27.76v66.99ZM715.21,426.37h26.26v-65.49h-26.26v65.49Z"/>
      <rect class="cls-69" x="662.46" y="430.56" width="26.46" height="10.33" transform="translate(1111.41 -239.96) rotate(90)"/>
      <line class="cls-56" x1="381.78" y1="226.85" x2="380.06" y2="226.85"/>
      <line class="cls-56" x1="401.26" y1="200.48" x2="401.26" y2="200.32"/>
      <polyline class="cls-67" points="378.43 226.85 376.28 226.85 369.47 226.85"/>
      <line class="cls-67" x1="376.28" y1="249.17" x2="362.4" y2="249.17"/>
      <line class="cls-67" x1="377.13" y1="372.77" x2="362.4" y2="372.77"/>
      <rect class="cls-7" x="385.21" y="363.43" width="19.99" height="1"/>
      <line class="cls-56" x1="381.78" y1="226.85" x2="381.78" y2="226.81"/>
      <line class="cls-56" x1="381.78" y1="235.25" x2="381.78" y2="234.8"/>
      <line class="cls-67" x1="376.28" y1="230.82" x2="376.28" y2="226.85"/>
      <line class="cls-67" x1="376.28" y1="234.8" x2="376.28" y2="232.57"/>
      <g>
        <path class="cls-60" d="M367.73,242.27c.3-.69.4-1.4.63-2.06.11-.3.1-.79.58-.66.49.13.24.55.15.86-.21.77-.42,1.54-.64,2.3-.24.79-.63,1.08-1.44,1.09-.41,0-.81.02-1.22,0-.6-.03-1.03-.32-1.21-.91-.27-.91-.52-1.82-.78-2.73-.07-.25-.08-.5.21-.59.33-.11.46.13.54.39.22.76.44,1.52.65,2.28l.12-.03c-.11-.42-.22-.84-.34-1.26-.16-.59-.32-1.18-.5-1.76-.11-.35-.02-.54.36-.5.46.05.53-.21.53-.59-.02-.73,0-1.46,0-2.19,0-.36.07-.73.52-.72.45,0,.5.39.5.74,0,.87,0,1.74.05,2.62.16-.13.12-.3.12-.46,0-.76,0-1.52,0-2.29,0-.34.13-.62.52-.61.36,0,.48.29.49.6.02.78.02,1.56,0,2.34,0,.37.08.59.5.55.42-.04.49.18.38.54-.25.84-.49,1.69-.72,2.54-.04.15-.16.3-.04.53Z"/>
        <path class="cls-60" d="M366.52,243.94c.55,0,1.01.46,1.01,1,0,.56-.48,1.03-1.05,1.02-.54,0-1.01-.48-1.01-1,0-.57.47-1.02,1.05-1.01Z"/>
        <g>
          <path class="cls-60" d="M373.01,236.94c0,.44,0,.88,0,1.33,0,.38,0,.77,0,1.15,0,.55-.21.87-.57.84-.51-.05-.55-.45-.56-.85,0-1.76,0-3.53,0-5.29,0-.16,0-.33,0-.49-.03,0-.06,0-.09,0,0,.8,0,1.6,0,2.41,0,.38.08.92-.49.92-.56,0-.43-.53-.44-.89-.01-1.03,0-2.06,0-3.1,0-.81.39-1.2,1.19-1.2.68,0,1.37,0,2.05,0,.79.01,1.21.41,1.22,1.2.01,1.12,0,2.23,0,3.35,0,.33-.05.65-.44.65-.42,0-.48-.34-.48-.67,0-.89,0-1.78-.1-2.67,0,1.06,0,2.12,0,3.19,0,.92,0,1.83,0,2.75,0,.36-.12.7-.54.71-.44,0-.58-.32-.58-.72,0-.86,0-1.73,0-2.59-.05,0-.11,0-.16,0Z"/>
          <path class="cls-60" d="M373.05,231.61c-.54-.02-.98-.47-.97-1,0-.54.51-1.02,1.04-.99.53.03.98.49.97,1.01,0,.55-.48,1-1.04.98Z"/>
        </g>
      </g>
      <g>
        <line class="cls-70" x1="607.52" y1="347.26" x2="606.79" y2="347.26"/>
        <line class="cls-76" x1="605.16" y1="347.26" x2="592.95" y2="347.26"/>
        <line class="cls-70" x1="592.13" y1="347.26" x2="591.39" y2="347.26"/>
        <polygon class="cls-60" points="606.71 346.26 606.54 346.44 607.43 347.26 606.54 348.09 606.71 348.27 607.79 347.26 606.71 346.26"/>
        <polygon class="cls-60" points="592.21 346.26 592.38 346.44 591.49 347.26 592.38 348.09 592.21 348.27 591.13 347.26 592.21 346.26"/>
      </g>
      <text class="cls-63" transform="translate(368.33 365.46) rotate(-90)"><tspan x="0" y="0">POSTO </tspan><tspan x="-.93" y="5.28">MÉDICO</tspan></text>
      <text class="cls-63" transform="translate(396.2 296.64) rotate(-90)"><tspan x="0" y="0">CENTRAL</tspan></text>
      <text class="cls-63" transform="translate(396.2 317.84) rotate(-90)"><tspan x="0" y="0">STAFF</tspan></text>
      <g>
        <path class="cls-25" d="M390.79,355.58v-5.21h2.65c.69,0,1.2.13,1.54.38.34.25.5.58.5.98,0,.27-.07.5-.21.71-.14.2-.34.36-.59.48s-.56.17-.91.17l.14-.36c.36,0,.68.06.96.17.28.11.49.27.64.49.15.21.23.47.23.77,0,.45-.18.8-.55,1.05-.36.25-.9.38-1.6.38h-2.8ZM392.24,354.52h1.23c.26,0,.45-.04.58-.13.13-.09.19-.22.19-.4s-.06-.31-.19-.4-.32-.13-.58-.13h-1.34v-1.02h1.12c.25,0,.43-.04.56-.13s.19-.21.19-.37c0-.17-.06-.3-.19-.38s-.31-.12-.56-.12h-1.01v3.08Z"/>
        <path class="cls-33" d="M398.53,355.69c-.45,0-.84-.1-1.19-.32s-.62-.52-.81-.93-.3-.9-.3-1.46.1-1.06.3-1.46c.2-.41.47-.72.81-.93.34-.21.74-.32,1.19-.32s.84.11,1.18.32c.35.21.62.52.81.93.2.41.29.89.29,1.46s-.1,1.06-.29,1.46c-.2.41-.47.71-.81.93s-.74.32-1.18.32ZM398.53,354.48c.16,0,.3-.05.42-.15.12-.1.22-.26.29-.48.07-.22.1-.51.1-.87s-.03-.66-.1-.88c-.07-.22-.17-.38-.29-.48-.12-.1-.26-.15-.42-.15s-.3.05-.42.15c-.12.1-.22.26-.29.48-.07.22-.11.51-.11.88s.04.65.11.87c.07.22.17.38.29.48.12.1.26.15.42.15Z"/>
      </g>
      <text class="cls-55" transform="translate(51.74 9.27)"><tspan x="0" y="0">B0</tspan></text>
      <text class="cls-55" transform="translate(44.06 37.79)"><tspan x="0" y="0">B1 - B5</tspan></text>
      <text class="cls-55" transform="translate(119.51 37.79)"><tspan x="0" y="0">C1/C2/C3/C4</tspan></text>
      <text class="cls-55" transform="translate(121.28 9.27)"><tspan x="0" y="0">R1/R2/S1/S2</tspan></text>
      <text class="cls-61" transform="translate(605.32 73.31) rotate(85.39)"><tspan x="0" y="0">SUPLENTES S1 A</tspan></text>
      <text class="cls-57" transform="translate(610.98 135.41) rotate(85.39)"><tspan x="0" y="0">MESA S1</tspan></text>
      <text class="cls-57" transform="translate(622.28 133.99) rotate(85.39)"><tspan x="0" y="0">MESA S2</tspan></text>
      <text class="cls-61" transform="translate(613.06 168.89) rotate(85.39)"><tspan x="0" y="0">SUPLENTES S1 B</tspan></text>
      <text class="cls-61" transform="translate(616.48 72.71) rotate(85.39)"><tspan x="0" y="0">SUPLENTES S2 A</tspan></text>
      <text class="cls-61" transform="translate(624.22 168.29) rotate(85.39)"><tspan x="0" y="0">SUPLENTES S2 B</tspan></text>
      <g>
        <path class="cls-10" d="M388.8,256.26v-5.21h2.65c.69,0,1.2.13,1.54.38.34.25.51.58.51.98,0,.27-.07.5-.21.71-.14.2-.34.36-.59.48s-.56.17-.91.17l.14-.36c.36,0,.68.06.96.17s.49.27.64.49c.15.21.23.47.23.77,0,.45-.18.8-.55,1.05s-.9.38-1.6.38h-2.8ZM390.25,255.2h1.23c.26,0,.45-.04.58-.13.13-.09.19-.22.19-.4s-.06-.31-.19-.4c-.13-.09-.32-.13-.58-.13h-1.34v-1.02h1.12c.25,0,.43-.04.56-.13.12-.08.19-.21.19-.37,0-.17-.06-.3-.19-.38-.12-.08-.31-.12-.56-.12h-1.01v3.08Z"/>
        <path class="cls-5" d="M394.22,256.26v-.93l1.94-1.81c.14-.13.25-.24.31-.35.06-.1.11-.19.13-.27.02-.08.03-.16.03-.23,0-.16-.06-.29-.17-.39-.11-.09-.28-.14-.5-.14-.19,0-.36.04-.53.13-.16.08-.29.21-.4.37l-1.09-.6c.19-.33.47-.59.83-.79.37-.2.81-.3,1.32-.3.4,0,.75.07,1.06.2s.54.31.71.55c.17.23.26.51.26.84,0,.16-.02.33-.07.5-.04.17-.13.35-.26.53-.13.19-.31.39-.56.62l-1.54,1.43-.25-.52h2.83v1.17h-4.05Z"/>
        <path class="cls-12" d="M401.74,251.85l-.97.52v-.23l.97.53-.44.71-.88-.54.11-.07.02,1h-.85l.02-1,.12.07-.89.54-.42-.71.97-.53v.23l-.97-.52.42-.73.9.55-.13.07-.02-1h.85l-.02,1-.11-.07.88-.55.44.73Z"/>
      </g>
      <text class="cls-58" transform="translate(304.05 9.96)"><tspan x="0" y="0">GARAGEM</tspan></text>
      <text class="cls-53" transform="translate(315.93 22.91)"><tspan x="0" y="0">REFORÇOS</tspan><tspan x="-5.45" y="7.82">ALIMENTARES</tspan></text>
      <text class="cls-53" transform="translate(304.71 43.43)"><tspan x="0" y="0">MESAS REFEIÇÃO</tspan></text>
      <text class="cls-53" transform="translate(18.47 22.01)"><tspan x="0" y="0">BALNEÁRIO ÁRBITROS</tspan></text>
      <text class="cls-53" transform="translate(18.91 50.54)"><tspan x="0" y="0">BALNEÁRIOS ATLETAS</tspan></text>
      <text class="cls-52" transform="translate(24.24 61.25)"><tspan x="0" y="0">*BALNEÁRIOS DIVIDIDOS</tspan></text>
      <text class="cls-53" transform="translate(123.31 50.25)"><tspan x="0" y="0">CARRINHAS</tspan><tspan x="-3.63" y="7.82" xml:space="preserve"> TRANSPORTE</tspan></text>
      <text class="cls-53" transform="translate(128.61 22.01)"><tspan x="0" y="0">CAMPOS</tspan></text>
      <text class="cls-47" transform="translate(414.92 340.75) rotate(-90)"><tspan x="0" y="0">ENTRADA</tspan><tspan x="-7.57" y="4.62">ATLETAS E STAFF</tspan></text>
      <g>
        <path class="cls-1" d="M632.93,337.85h1.54v.43h-2.04v-2.72h1.99v.43h-1.48v1.87ZM632.89,336.69h1.35v.42h-1.35v-.42Z"/>
        <path class="cls-38" d="M635.03,338.28v-2.72h.42l1.71,2.1h-.21v-2.1h.5v2.72h-.42l-1.7-2.1h.21v2.1h-.5Z"/>
        <path class="cls-30" d="M638.73,338.28v-2.29h-.9v-.43h2.31v.43h-.9v2.29h-.51Z"/>
        <path class="cls-24" d="M640.52,338.28v-2.72h1.12c.24,0,.45.04.62.11.17.08.31.19.4.33.09.14.14.32.14.52s-.05.37-.14.51c-.09.14-.23.25-.4.33-.17.08-.38.12-.62.12h-.83l.22-.23v1.02h-.5ZM641.02,337.32l-.22-.25h.81c.22,0,.39-.05.5-.14.11-.1.17-.23.17-.4s-.06-.3-.17-.4c-.11-.09-.28-.14-.5-.14h-.81l.22-.25v1.58ZM642.3,338.28l-.69-.99h.54l.69.99h-.54Z"/>
        <path class="cls-3" d="M642.97,338.28l1.22-2.72h.5l1.23,2.72h-.53l-1.05-2.45h.2l-1.05,2.45h-.52ZM643.54,337.65l.14-.4h1.47l.14.4h-1.74Z"/>
        <path class="cls-2" d="M646.27,338.28v-2.72h1.19c.29,0,.55.06.77.17.22.11.4.27.52.48.12.2.19.44.19.71s-.06.51-.19.71c-.12.21-.3.36-.52.48-.22.11-.48.17-.77.17h-1.19ZM646.77,337.85h.66c.21,0,.38-.04.53-.12.15-.08.27-.19.35-.33.08-.14.13-.3.13-.49s-.04-.36-.13-.49c-.08-.14-.2-.25-.35-.32-.15-.08-.33-.12-.53-.12h-.66v1.87Z"/>
        <path class="cls-32" d="M649.09,338.28l1.22-2.72h.5l1.23,2.72h-.53l-1.05-2.45h.2l-1.05,2.45h-.52ZM649.66,337.65l.14-.4h1.47l.14.4h-1.74Z"/>
        <path class="cls-18" d="M632.36,342.95v-2.72h1.28c.32,0,.57.06.74.19s.26.3.26.51c0,.15-.03.27-.1.37-.07.1-.16.18-.27.24-.11.06-.24.08-.37.08l.07-.14c.15,0,.29.03.41.08.12.06.22.14.29.24.07.11.11.24.11.4,0,.23-.09.41-.27.54s-.44.19-.79.19h-1.36ZM632.87,342.55h.82c.19,0,.33-.03.43-.09.1-.06.15-.16.15-.3s-.05-.23-.15-.3c-.1-.06-.25-.1-.43-.1h-.86v-.39h.75c.17,0,.31-.03.4-.09.1-.06.14-.16.14-.28s-.05-.22-.14-.28c-.1-.06-.23-.09-.4-.09h-.72v1.93Z"/>
        <path class="cls-27" d="M635.98,342.98c-.19,0-.38-.03-.56-.08-.18-.05-.34-.13-.46-.23l.21-.39c.1.08.22.15.36.19.14.05.29.07.44.07.18,0,.32-.04.42-.11.1-.07.16-.17.16-.3s-.05-.22-.14-.29c-.09-.07-.25-.11-.45-.11h-.25v-.35l.78-.92.07.19h-1.46v-.43h1.85v.34l-.78.92-.26-.15h.16c.33,0,.58.08.75.22.17.15.25.34.25.57,0,.15-.04.29-.12.43-.08.13-.2.24-.36.31-.16.08-.36.12-.61.12Z"/>
        <path class="cls-29" d="M637.41,343.54l.22-.87.07.29c-.09,0-.17-.03-.23-.08-.06-.06-.09-.13-.09-.23s.03-.17.09-.23c.06-.06.13-.09.22-.09s.17.03.23.09c.06.06.09.14.09.23,0,.03,0,.06,0,.09,0,.03-.01.06-.03.1-.01.04-.03.09-.05.15l-.2.55h-.31Z"/>
        <path class="cls-28" d="M639.6,342.95v-2.72h1.28c.32,0,.57.06.74.19s.26.3.26.51c0,.15-.03.27-.1.37-.07.1-.16.18-.27.24-.11.06-.24.08-.37.08l.07-.14c.15,0,.29.03.41.08.12.06.22.14.29.24.07.11.11.24.11.4,0,.23-.09.41-.27.54s-.44.19-.79.19h-1.36ZM640.11,342.55h.82c.19,0,.33-.03.43-.09.1-.06.15-.16.15-.3s-.05-.23-.15-.3c-.1-.06-.25-.1-.43-.1h-.86v-.39h.75c.17,0,.31-.03.4-.09.1-.06.14-.16.14-.28s-.05-.22-.14-.28c-.1-.06-.23-.09-.4-.09h-.72v1.93Z"/>
        <path class="cls-43" d="M642.33,342.32v-.35l1.34-1.75h.54l-1.32,1.75-.26-.08h2.15v.42h-2.46ZM643.83,342.95v-1.05s.01-.55.01-.55h.48v1.59h-.49Z"/>
        <path class="cls-17" d="M645.03,343.54l.22-.87.07.29c-.09,0-.17-.03-.23-.08-.06-.06-.09-.13-.09-.23s.03-.17.09-.23c.06-.06.13-.09.22-.09s.17.03.23.09c.06.06.09.14.09.23,0,.03,0,.06,0,.09,0,.03-.01.06-.03.1-.01.04-.03.09-.05.15l-.2.55h-.31Z"/>
        <path class="cls-31" d="M647.22,342.95v-2.72h1.28c.32,0,.57.06.74.19s.26.3.26.51c0,.15-.03.27-.1.37-.07.1-.16.18-.27.24-.11.06-.24.08-.37.08l.07-.14c.15,0,.29.03.41.08.12.06.22.14.29.24.07.11.11.24.11.4,0,.23-.09.41-.27.54s-.44.19-.79.19h-1.36ZM647.73,342.55h.82c.19,0,.33-.03.43-.09.1-.06.15-.16.15-.3s-.05-.23-.15-.3c-.1-.06-.25-.1-.43-.1h-.86v-.39h.75c.17,0,.31-.03.4-.09.1-.06.14-.16.14-.28s-.05-.22-.14-.28c-.1-.06-.23-.09-.4-.09h-.72v1.93Z"/>
        <path class="cls-35" d="M650.88,342.98c-.19,0-.38-.03-.56-.08-.18-.05-.34-.13-.46-.23l.21-.39c.1.08.22.15.36.19.14.05.29.07.44.07.18,0,.32-.04.43-.11.1-.07.16-.18.16-.31,0-.08-.02-.16-.07-.23-.04-.06-.12-.11-.23-.15s-.25-.05-.45-.05h-.65l.14-1.48h1.6v.43h-1.42l.27-.24-.11,1.11-.26-.24h.54c.27,0,.49.04.66.11.17.07.29.17.36.3.08.12.11.27.11.43s-.04.3-.12.44c-.08.13-.2.24-.35.32-.16.08-.36.12-.61.12Z"/>
      </g>
      <text class="cls-64" transform="translate(359.02 180.49)"><tspan x="0" y="0">ENTRADA/SAÍDA PÚBLICO</tspan></text>
      <text class="cls-64" transform="translate(70.78 94.59)"><tspan x="0" y="0">ENTRADA/SAÍDA PÚBLICO</tspan></text>
      <text class="cls-64" transform="translate(373.25 534.28)"><tspan x="0" y="0">ENTRADA/SAÍDA </tspan><tspan x="10.41" y="5.82">PÚBLICO</tspan></text>
      <text class="cls-64" transform="translate(11.78 490.4)"><tspan x="0" y="0">ENTRADA/SAÍDA </tspan><tspan x="10.41" y="5.82">PÚBLICO</tspan></text>
      <g>
        <path class="cls-8" d="M389.69,398.72v-5.21h2.65c.69,0,1.2.13,1.54.38s.51.58.51.98c0,.27-.07.5-.21.71-.14.2-.34.36-.6.48s-.56.17-.91.17l.14-.36c.36,0,.68.06.96.17.27.11.49.27.64.49s.23.47.23.77c0,.45-.18.8-.55,1.05-.36.25-.9.38-1.6.38h-2.8ZM391.14,397.66h1.23c.26,0,.45-.04.58-.13s.19-.22.19-.4-.06-.31-.19-.4-.32-.13-.58-.13h-1.34v-1.02h1.12c.25,0,.43-.04.56-.13.12-.08.19-.21.19-.37,0-.17-.06-.3-.19-.38s-.31-.12-.56-.12h-1.01v3.08Z"/>
        <path class="cls-14" d="M395.9,398.72v-4.68l.64.62h-1.61v-1.14h2.44v5.21h-1.47Z"/>
        <path class="cls-13" d="M401.19,394.31l-.97.52v-.23l.97.53-.44.71-.88-.54.11-.07.02,1h-.85v-1s.13.07.13.07l-.89.54-.42-.71.97-.53v.23l-.97-.52.42-.73.9.55-.13.07v-1s.83,0,.83,0l-.02,1-.11-.07.88-.55.44.73Z"/>
      </g>
      <text class="cls-51" transform="translate(383.12 438.84)"><tspan x="0" y="0">C1</tspan></text>
      <text class="cls-51" transform="translate(382.64 452.07)"><tspan x="0" y="0">C2</tspan></text>
      <g>
        <path class="cls-23" d="M722.76,399.54v-5.21h2.65c.69,0,1.2.13,1.54.38.34.25.51.58.51.98,0,.27-.07.5-.21.71-.14.2-.34.36-.6.48s-.56.17-.91.17l.14-.36c.36,0,.68.06.96.17s.49.27.64.49.23.47.23.77c0,.45-.18.8-.55,1.05-.37.25-.9.38-1.6.38h-2.79ZM724.21,398.47h1.23c.26,0,.45-.04.58-.13s.19-.22.19-.4-.06-.31-.19-.4c-.13-.09-.32-.13-.58-.13h-1.34v-1.02h1.12c.25,0,.43-.04.56-.13.12-.08.19-.21.19-.37,0-.17-.06-.3-.19-.38-.12-.08-.31-.12-.56-.12h-1.01v3.08Z"/>
        <path class="cls-4" d="M729.94,399.64c-.36,0-.72-.04-1.08-.13-.36-.09-.67-.21-.93-.38l.53-1.1c.21.13.44.24.7.31.26.08.5.11.75.11s.45-.05.6-.14c.15-.09.22-.23.22-.4,0-.16-.06-.28-.19-.37-.12-.09-.33-.13-.61-.13h-.62v-.92l1.4-1.52.14.51h-2.67v-1.15h3.77v.93l-1.4,1.5-.72-.41h.4c.64,0,1.13.15,1.47.44.34.29.51.66.51,1.12,0,.29-.08.57-.24.84-.16.27-.41.48-.74.65s-.76.25-1.29.25Z"/>
        <path class="cls-42" d="M735.73,395.13l-.97.52v-.23l.97.53-.44.71-.88-.54.11-.07.02,1h-.85v-1s.13.07.13.07l-.89.54-.42-.71.97-.53v.23l-.97-.52.42-.73.9.55-.13.07v-1s.83,0,.83,0l-.02,1-.11-.07.88-.55.44.73Z"/>
      </g>
      <g>
        <path class="cls-45" d="M723.41,475.72v-5.21h2.65c.69,0,1.2.13,1.54.38.34.25.51.58.51.98,0,.27-.07.5-.21.71-.14.2-.34.36-.59.48-.26.11-.56.17-.91.17l.14-.36c.36,0,.68.06.96.17.28.11.49.27.64.49.15.21.23.47.23.77,0,.45-.18.79-.55,1.05-.36.25-.9.38-1.6.38h-2.8ZM724.86,474.66h1.23c.26,0,.45-.04.58-.13.13-.09.19-.22.19-.4s-.06-.31-.19-.4-.32-.13-.58-.13h-1.34v-1.02h1.12c.25,0,.43-.04.56-.13.12-.08.19-.21.19-.37,0-.17-.06-.3-.19-.38-.12-.08-.31-.12-.56-.12h-1.01v3.08Z"/>
        <path class="cls-20" d="M728.8,474.72v-.95l2.33-3.26h1.53l-2.28,3.26-.7-.21h4.07v1.16h-4.96ZM731.55,475.72v-1l.04-1.16v-.89h1.39v3.05h-1.43Z"/>
      </g>
      <g class="cls-79">
        <path class="cls-15" d="M691.76,475.72v-5.21h2.65c.69,0,1.2.13,1.54.38.34.25.51.58.51.98,0,.27-.07.5-.21.71-.14.2-.34.36-.59.48-.26.11-.56.17-.91.17l.14-.36c.36,0,.68.06.96.17.28.11.49.27.64.49.15.21.23.47.23.77,0,.45-.18.79-.55,1.05-.36.25-.9.38-1.6.38h-2.8ZM693.21,474.66h1.23c.26,0,.45-.04.58-.13.13-.09.19-.22.19-.4s-.06-.31-.19-.4-.32-.13-.58-.13h-1.34v-1.02h1.12c.25,0,.43-.04.56-.13.12-.08.19-.21.19-.37,0-.17-.06-.3-.19-.38-.12-.08-.31-.12-.56-.12h-1.01v3.08Z"/>
        <path class="cls-15" d="M699.03,475.82c-.37,0-.73-.04-1.09-.13s-.67-.21-.94-.38l.54-1.1c.21.13.44.24.69.31.25.07.5.11.74.11s.46-.05.61-.14c.15-.09.23-.23.23-.41,0-.1-.03-.2-.09-.27s-.16-.14-.31-.19c-.15-.04-.35-.07-.62-.07h-1.41l.26-3.04h3.32v1.14h-2.79l.74-.65-.17,2.04-.75-.65h1.15c.52,0,.93.07,1.24.22s.54.34.68.59c.14.25.22.53.22.83s-.08.59-.24.86c-.16.27-.41.49-.74.66-.33.17-.76.25-1.28.25Z"/>
      </g>
      <g>
        <polygon class="cls-37" points="403.73 330.59 406.07 331.94 406.07 329.23 403.73 330.59 406.07 331.94 406.07 329.23 403.73 330.59"/>
        <rect class="cls-34" x="404.9" y="330.34" width="4.85" height=".5"/>
      </g>
      <g>
        <polygon class="cls-60" points="361.41 525.3 363.76 526.66 363.76 523.95 361.41 525.3 363.76 526.66 363.76 523.95 361.41 525.3"/>
        <line class="cls-49" x1="367.44" y1="525.3" x2="362.59" y2="525.3"/>
      </g>
      <g>
        <polygon class="cls-60" points="376.95 525.3 374.6 523.95 374.6 526.66 376.95 525.3 374.6 523.95 374.6 526.66 376.95 525.3"/>
        <line class="cls-49" x1="370.92" y1="525.3" x2="375.77" y2="525.3"/>
      </g>
      <g>
        <polygon class="cls-60" points="46.58 483.18 48.92 484.53 48.92 481.82 46.58 483.18 48.92 484.53 48.92 481.82 46.58 483.18"/>
        <line class="cls-49" x1="52.6" y1="483.18" x2="47.75" y2="483.18"/>
      </g>
      <g>
        <polygon class="cls-60" points="62.11 483.18 59.77 481.82 59.77 484.53 62.11 483.18 59.77 481.82 59.77 484.53 62.11 483.18"/>
        <line class="cls-49" x1="56.09" y1="483.18" x2="60.94" y2="483.18"/>
      </g>
      <g>
        <polygon class="cls-60" points="65.47 95.76 66.83 93.42 64.12 93.42 65.47 95.76 66.83 93.42 64.12 93.42 65.47 95.76"/>
        <line class="cls-49" x1="65.47" y1="89.74" x2="65.47" y2="94.59"/>
      </g>
      <g>
        <polygon class="cls-60" points="65.47 80.23 64.12 82.58 66.83 82.58 65.47 80.23 64.12 82.58 66.83 82.58 65.47 80.23"/>
        <line class="cls-49" x1="65.47" y1="86.26" x2="65.47" y2="81.4"/>
      </g>
      <g>
        <polygon class="cls-60" points="343.12 330.59 345.46 331.94 345.46 329.23 343.12 330.59 345.46 331.94 345.46 329.23 343.12 330.59"/>
        <line class="cls-73" x1="362.4" y1="330.59" x2="344.29" y2="330.59"/>
      </g>
      <polygon class="cls-60" points="359.71 330.59 362.06 331.94 362.06 329.23 359.71 330.59 362.06 331.94 362.06 329.23 359.71 330.59"/>
      <g>
        <polygon class="cls-22" points="643.04 351.65 644.39 349.31 641.69 349.31 643.04 351.65 644.39 349.31 641.69 349.31 643.04 351.65"/>
        <rect class="cls-44" x="642.79" y="345.63" width=".5" height="4.85"/>
      </g>
      <g>
        <polygon class="cls-60" points="614.04 362.69 611.49 361.79 611.99 364.45 614.04 362.69 611.49 361.79 611.99 364.45 614.04 362.69"/>
        <line class="cls-49" x1="608.12" y1="363.8" x2="612.89" y2="362.9"/>
      </g>
      <g>
        <polygon class="cls-60" points="427.27 178.54 429.61 179.89 429.61 177.19 427.27 178.54 429.61 179.89 429.61 177.19 427.27 178.54"/>
        <line class="cls-49" x1="433.29" y1="178.54" x2="428.44" y2="178.54"/>
      </g>
      <g>
        <polygon class="cls-60" points="357.68 178.54 355.34 177.19 355.34 179.89 357.68 178.54 355.34 177.19 355.34 179.89 357.68 178.54"/>
        <line class="cls-49" x1="351.66" y1="178.54" x2="356.51" y2="178.54"/>
      </g>
      <g>
        <line class="cls-69" x1="703.73" y1="356.21" x2="702.99" y2="356.21"/>
        <line class="cls-74" x1="701.54" y1="356.21" x2="644.05" y2="356.21"/>
        <line class="cls-69" x1="643.33" y1="356.21" x2="642.59" y2="356.21"/>
        <g>
          <path class="cls-78" d="M703.6,353.95c1.25,0,2.26,1.01,2.26,2.26s-1.01,2.26-2.26,2.26-2.26-1.01-2.26-2.26,1.01-2.26,2.26-2.26Z"/>
          <path class="cls-60" d="M703.6,353.65c-1.41,0-2.56,1.15-2.56,2.56s1.15,2.56,2.56,2.56,2.56-1.15,2.56-2.56-1.15-2.56-2.56-2.56,1.41,0,0,0ZM703.6,358.17c-1.08,0-1.96-.88-1.96-1.96s.88-1.96,1.96-1.96,1.96.88,1.96,1.96-.88,1.96-1.96,1.96,1.08,0,0,0Z"/>
        </g>
        <g>
          <circle class="cls-78" cx="642.72" cy="356.21" r="2.26"/>
          <path class="cls-60" d="M642.72,353.65c1.41,0,2.56,1.15,2.56,2.56s-1.15,2.56-2.56,2.56-2.56-1.15-2.56-2.56,1.15-2.56,2.56-2.56-1.41,0,0,0ZM642.72,358.17c1.08,0,1.96-.88,1.96-1.96s-.88-1.96-1.96-1.96-1.96.88-1.96,1.96.88,1.96,1.96,1.96-1.08,0,0,0Z"/>
        </g>
      </g>
      <g>
        <line class="cls-69" x1="390.06" y1="58.89" x2="389.88" y2="58.18"/>
        <line class="cls-71" x1="389.52" y1="56.77" x2="376.62" y2="6.6"/>
        <line class="cls-69" x1="376.44" y1="5.89" x2="376.26" y2="5.18"/>
        <g>
          <path class="cls-78" d="M392.22,58.21c.31,1.21-.42,2.44-1.62,2.75-1.21.31-2.44-.42-2.75-1.62-.31-1.21.42-2.44,1.62-2.75,1.21-.31,2.44.42,2.75,1.62Z"/>
          <path class="cls-60" d="M392.51,58.13c-.35-1.36-1.75-2.19-3.11-1.84-1.36.35-2.19,1.75-1.84,3.11.35,1.36,1.75,2.19,3.11,1.84,1.36-.35,2.19-1.75,1.84-3.11-.35-1.36.35,1.36,0,0ZM388.14,59.26c-.27-1.04.36-2.11,1.41-2.38,1.04-.27,2.11.36,2.38,1.41.27,1.04-.36,2.11-1.41,2.38-1.04.27-2.11-.36-2.38-1.41-.27-1.04.27,1.04,0,0Z"/>
        </g>
        <g>
          <path class="cls-78" d="M378.47,4.74c-.31-1.21-1.54-1.93-2.75-1.62-1.21.31-1.93,1.54-1.62,2.75.31,1.21,1.54,1.93,2.75,1.62,1.21-.31,1.93-1.54,1.62-2.75Z"/>
          <path class="cls-60" d="M378.76,4.67c.35,1.36-.47,2.76-1.84,3.11-1.36.35-2.76-.47-3.11-1.84-.35-1.36.47-2.76,1.84-3.11,1.36-.35,2.76.47,3.11,1.84.35,1.36-.35-1.36,0,0ZM374.39,5.79c.27,1.04,1.34,1.68,2.38,1.41,1.04-.27,1.68-1.34,1.41-2.38-.27-1.04-1.34-1.68-2.38-1.41-1.04.27-1.68,1.34-1.41,2.38.27,1.04-.27-1.04,0,0Z"/>
        </g>
      </g>
      <text class="cls-53" transform="translate(666.87 516.11)"><tspan x="0" y="0">PEQUENO ALMOÇO</tspan></text>
      <text class="cls-53" transform="translate(608.98 404.93) rotate(90)"><tspan x="0" y="0">BANCADA</tspan></text>
      <g>
        <line class="cls-69" x1="697.09" y1="504.95" x2="696.61" y2="504.39"/>
        <line class="cls-72" x1="695.65" y1="503.28" x2="636.66" y2="434.86"/>
        <line class="cls-69" x1="636.18" y1="434.31" x2="635.7" y2="433.75"/>
        <g>
          <path class="cls-78" d="M698.71,503.38c.81.94.71,2.37-.24,3.18-.94.81-2.37.71-3.18-.24-.81-.94-.71-2.37.24-3.18s2.37-.71,3.18.24Z"/>
          <path class="cls-60" d="M698.94,503.18c-.92-1.07-2.54-1.19-3.6-.27-1.07.92-1.19,2.54-.27,3.6.92,1.07,2.54,1.19,3.6.27,1.07-.92,1.19-2.54.27-3.6-.92-1.07.92,1.07,0,0ZM695.52,506.13c-.7-.82-.61-2.05.2-2.76.82-.7,2.05-.61,2.76.2.7.82.61,2.05-.2,2.76-.82.7-2.05.61-2.76-.2-.7-.82.7.82,0,0Z"/>
        </g>
        <g>
          <path class="cls-78" d="M637.49,432.37c-.81-.94-2.24-1.05-3.18-.24-.94.81-1.05,2.24-.24,3.18.81.94,2.24,1.05,3.18.24.94-.81,1.05-2.24.24-3.18Z"/>
          <path class="cls-60" d="M637.72,432.18c.92,1.07.8,2.68-.27,3.6-1.07.92-2.68.8-3.6-.27-.92-1.07-.8-2.68.27-3.6s2.68-.8,3.6.27c.92,1.07-.92-1.07,0,0ZM634.3,435.12c.7.82,1.94.91,2.76.2.82-.7.91-1.94.2-2.76-.7-.82-1.94-.91-2.76-.2-.82.7-.91,1.94-.2,2.76.7.82-.7-.82,0,0Z"/>
        </g>
      </g>
      <polyline class="cls-67" points="615.58 272.73 630.58 320.06 630.58 349.83"/>
      <line class="cls-67" x1="617.42" y1="479.43" x2="617.42" y2="365.43"/>
      <polygon class="cls-60" points="611.7 365.01 611.7 366.4 608.06 366.4 608.06 367.79 605.43 367.79 605.43 369.87 615.34 369.87 615.34 368.48 615.34 367.79 615.34 367.09 615.34 366.4 615.34 365.01 611.7 365.01"/>
      <g>
        <polygon class="cls-60" points="625.49 349.77 622.93 350.67 623.43 348.01 625.49 349.77 622.93 350.67 623.43 348.01 625.49 349.77"/>
        <line class="cls-49" x1="619.57" y1="348.66" x2="624.33" y2="349.56"/>
      </g>
      <polyline class="cls-60" points="628.13 354.52 628.13 354.52 618.21 354.52 618.21 353.13 618.21 352.44 618.21 351.75 618.21 351.05 618.21 349.67 618.21 349.67"/>
      <g>
        <polygon class="cls-60" points="614.04 474.37 611.49 473.48 611.99 476.14 614.04 474.37 611.49 473.48 611.99 476.14 614.04 474.37"/>
        <line class="cls-49" x1="608.12" y1="475.49" x2="612.89" y2="474.59"/>
      </g>
      <polygon class="cls-60" points="611.7 476.7 611.7 478.09 608.06 478.09 608.06 479.47 605.43 479.47 605.43 481.55 615.34 481.55 615.34 480.17 615.34 479.47 615.34 478.78 615.34 478.09 615.34 476.7 611.7 476.7"/>
      <line class="cls-67" x1="612.89" y1="441.76" x2="612.89" y2="468.66"/>
      <line class="cls-67" x1="609.52" y1="441.76" x2="609.52" y2="468.66"/>
      <line class="cls-67" x1="612.89" y1="372.71" x2="612.89" y2="403.21"/>
      <line class="cls-67" x1="609.52" y1="372.71" x2="609.52" y2="403.21"/>
      <line class="cls-67" x1="606.15" y1="372.71" x2="606.15" y2="468.66"/>
      <g>
        <polygon class="cls-60" points="356.41 237.11 353.86 236.21 354.36 238.87 356.41 237.11 353.86 236.21 354.36 238.87 356.41 237.11"/>
        <line class="cls-49" x1="350.49" y1="238.22" x2="355.26" y2="237.33"/>
      </g>
      <text class="cls-53" transform="translate(356.28 348.88) rotate(-90)"><tspan x="0" y="0">BANCADA</tspan></text>
      <polygon class="cls-60" points="354.07 239.44 354.07 240.82 350.43 240.82 350.43 242.21 347.8 242.21 347.8 244.29 357.71 244.29 357.71 242.9 357.71 242.21 357.71 241.52 357.71 240.82 357.71 239.44 354.07 239.44"/>
      <g>
        <polygon class="cls-60" points="356.41 418.35 353.86 417.45 354.36 420.11 356.41 418.35 353.86 417.45 354.36 420.11 356.41 418.35"/>
        <line class="cls-49" x1="350.49" y1="419.46" x2="355.26" y2="418.56"/>
      </g>
      <polygon class="cls-60" points="354.07 420.67 354.07 422.06 350.43 422.06 350.43 423.45 347.8 423.45 347.8 425.53 357.71 425.53 357.71 424.14 357.71 423.45 357.71 422.75 357.71 422.06 357.71 420.67 354.07 420.67"/>
      <line class="cls-67" x1="355.26" y1="350.67" x2="355.26" y2="412.69"/>
      <line class="cls-67" x1="351.89" y1="350.67" x2="351.89" y2="412.69"/>
      <line class="cls-67" x1="355.26" y1="248.92" x2="355.26" y2="312.13"/>
      <line class="cls-67" x1="351.89" y1="248.92" x2="351.89" y2="312.13"/>
      <line class="cls-67" x1="348.52" y1="336.24" x2="348.52" y2="412.69"/>
      <line class="cls-67" x1="348.52" y1="248.92" x2="348.52" y2="325.29"/>
      <polyline class="cls-67" points="348.52 323.38 343.12 323.38 343.11 323.38 343.11 114.6 66.26 114.6 66.26 528.18 343.11 528.18 343.11 338.66 348.52 338.66"/>
      <text class="cls-54" transform="translate(624.84 459.93)"><tspan x="0" y="0">TV</tspan></text>
      <g>
        <path d="M429.86,265.4c-.14-.11-.28-.22-.41-.33-.46-.41-.98-.74-1.28-1.33-.45-.9-.99-1.76-1.49-2.63-.16-.29-.4-.44-.74-.45-1.19,0-2.38-.04-3.58-.04-.84,0-1.07.23-1.07,1.06,0,2.44,0,4.88,0,7.32,0,.28-.04.44-.39.44-2.2,0-4.4,0-6.61,0-.24,0-.39-.07-.5-.3-.37-.76-1-1.18-1.83-1.18-.84,0-1.48.42-1.83,1.19-.19.4-.5.3-.78.27-.29-.02-.27-.28-.27-.5,0-.11,0-.21,0-.32,0-1.08,0-2.17,0-3.26,0-1.02,0-2.04,0-3.06s.02-2.12,0-3.18c-.01-.56.03-.64.61-.64,2.43,0,4.85,0,7.28,0,2.07,0,4.14,0,6.21,0,.29,0,.44.1.51.38.06.27.15.53.24.8.08.21.23.34.46.27s.29-.26.23-.48c-.08-.3-.17-.59-.26-.88-.21-.7-.37-.82-1.1-.82-4.48,0-8.97,0-13.45,0-.46,0-.93-.04-1.25.38-.06.07-.09.16-.09.25v11c0,.37.25.7.61.8.19.05.4.05.62.04.23-.02.29.14.34.31.22.79.76,1.28,1.56,1.42.8.14,1.49-.12,2-.79.12-.16.23-.33.26-.53.05-.36.26-.42.59-.42,1.4,0,2.81,0,4.21,0,1.83,0,3.66,0,5.49,0,.35,0,.54.07.65.45.23.82.99,1.32,1.88,1.32s1.62-.5,1.88-1.32c.11-.34.26-.46.61-.44.3.01.46,0,.63-.11.26-.16.41-.45.41-.76v-3.18c0-.28-.13-.55-.36-.72ZM411.98,271.19c-.75,0-1.24-.51-1.23-1.26,0-.71.56-1.27,1.25-1.26.68.01,1.27.6,1.26,1.28,0,.7-.56,1.24-1.28,1.23ZM426.67,271.19c-.72,0-1.27-.57-1.25-1.27.02-.67.6-1.24,1.25-1.25.73,0,1.27.55,1.27,1.29,0,.74-.52,1.23-1.27,1.22ZM429.58,269.01c.01.24-.06.41-.35.42-.34.01-.57-.03-.75-.4-.35-.71-.98-1.08-1.77-1.08-.81,0-1.43.39-1.8,1.11-.14.27-.31.39-.61.38-.61-.02-1.22-.02-1.83,0-.31,0-.43-.11-.42-.42,0-1.2,0-2.41,0-3.62t0,0c0-1.19.01-2.38,0-3.58,0-.36.11-.48.48-.48,1.02.02,2.04.02,3.06,0,.29,0,.47.1.61.34.47.85.97,1.67,1.42,2.53.35.68.98,1.06,1.53,1.53.14.12.42.21.34.44-.08.23-.35.11-.53.12-.69.03-.96.35-.83,1.03.18.89.2.92,1.15,1.07.41.06.3.37.32.61Z"/>
        <path d="M415.2,267.62c-1.67,0-3.34,0-5.02,0-.33,0-.68.01-.85-.37-.16-.36-.06-1.17.19-1.38.15-.13.18-.28.18-.46,0-.49,0-.98,0-1.47,0-.46-.01-.9-.26-1.34-.26-.46-.24-1-.05-1.5.15-.4.31-.79.47-1.18.14-.36.4-.55.79-.54.4,0,.8,0,1.19,0,.22,0,.4.07.43.32.02.28-.16.38-.39.4-.34.02-.69.01-1.03.03-.24,0-.65.62-.57.83.07.16.23.1.35.1,1.67,0,3.34,0,5.02,0,1.33,0,2.65,0,3.98,0,.33,0,.38-.08.28-.39-.13-.39-.31-.57-.76-.56-1.72.03-3.45,0-5.17,0-.11,0-.21,0-.32,0-.26-.02-.54-.03-.54-.39,0-.36.29-.35.55-.35,1.95,0,3.9,0,5.85,0,.47,0,.74.19.9.62.28.73.76,1.45.51,2.24-.33,1.04-.15,2.08-.21,3.11-.02.24.06.4.23.59.36.39.21.89.11,1.32-.09.37-.48.36-.8.36-1.69,0-3.37,0-5.06,0ZM415.18,265.75c1.46,0,2.92,0,4.37,0,.21,0,.41.01.41-.29,0-.58,0-1.17,0-1.75,0-.17-.04-.28-.25-.25-.42.06-.79-.06-1.12-.31-.14-.1-.24-.11-.38,0-.58.43-1.18.44-1.77.03-.17-.11-.29-.12-.46,0-.56.39-1.14.4-1.7.01-.18-.12-.31-.13-.49,0-.58.41-1.17.37-1.74-.03-.16-.11-.26-.12-.42,0-.24.2-.53.31-.84.31-.29,0-.36.14-.35.4.01.48.02.96,0,1.43-.02.35.1.46.45.45,1.43-.02,2.86,0,4.29,0ZM415.2,266.88s0,0,0,0c1.56,0,3.13,0,4.69,0,.16,0,.44.09.44-.18,0-.27-.28-.16-.44-.19-.01,0-.03,0-.04,0-3.1,0-6.2,0-9.3,0-.12,0-.24,0-.36.02-.09.01-.14.08-.14.17,0,.09.05.15.14.16.14.02.29.02.44.02,1.52,0,3.05,0,4.57,0ZM417.33,261.82c-.14,0-.29,0-.43,0-.31-.02-.37.15-.28.4.09.25.24.44.51.5.27.05.53,0,.72-.22.13-.16.24-.34.17-.54-.08-.22-.29-.11-.45-.13-.08-.01-.16,0-.24,0ZM412.93,261.82c-.16,0-.32,0-.48,0-.22,0-.28.13-.24.31.07.29.25.51.54.58.31.07.58-.01.77-.28.1-.14.18-.32.11-.49-.08-.19-.28-.11-.43-.12-.09,0-.19,0-.28,0ZM419.5,262.73c.35,0,.64-.25.73-.62.05-.21-.02-.3-.23-.3-.26,0-.53,0-.79,0-.4,0-.51.2-.32.55.13.24.34.37.61.36ZM410.76,261.82s0,0,0,0c-.12,0-.24,0-.36,0-.36.01-.45.15-.31.48.19.45.77.59,1.12.26.18-.16.29-.37.2-.6-.08-.21-.3-.11-.46-.13-.07,0-.13,0-.2,0ZM415.13,261.82c-.12,0-.24,0-.35,0-.35,0-.44.16-.31.47.21.5.86.6,1.2.19.13-.16.22-.35.13-.55-.08-.18-.28-.1-.43-.12-.08,0-.16,0-.24,0Z"/>
        <path d="M427.02,264.9c-.19.29-.46.37-.78.37-1.07,0-2.14,0-3.21,0-.43,0-.66-.18-.66-.6-.01-.73-.01-1.46,0-2.18,0-.43.18-.6.61-.62.4-.01.79,0,1.19,0h0c.39,0,.77,0,1.15,0,.3,0,.5.12.64.39.33.62.68,1.22,1.03,1.83.15.27.23.53.04.82Z"/>
      </g>
      <g>
        <path d="M642.75,450.14c-.25-.08-.51-.07-.76.02h0c-.44.19-.73.5-.88.96-.02.08-.1.12-.18.11-.87-.16-1.56.54-1.38,1.48.11.54.07,1.1-.01,1.64-.08.55.08.93.55,1.12.11.04.14.12.14.23,0,1.16,0,2.33,0,3.49,0,.36,0,.72,0,1.08v.02c.01.61.51,1.1,1.12,1.1h4.23c.57,0,1.08-.41,1.15-.98,0-.04,0-.09.01-.13,0-.12.09-.13.18-.13.36,0,.71,0,1.07,0,.78,0,1.29-.47,1.38-1.25.08-.72.03-1.43.03-2.15,0-.54.04-1.08-.03-1.62-.09-.73-.57-1.31-1.39-1.28-.35.01-.7,0-1.05,0-.16,0-.21-.06-.22-.21,0-.26.06-.53-.04-.78-.02-.06.02-.11.05-.16.22-.44.17-.86-.13-1.24-.3-.37-.71-.52-1.18-.4-.12.03-.2.02-.29-.07-.4-.38-.86-.48-1.38-.31-.11.04-.19.04-.27-.06-.17-.21-.39-.35-.65-.45l-.05-.02ZM646.2,459.3c0,.33-.01.66,0,1,.01.37-.25.61-.62.61-1.39,0-2.79,0-4.18,0-.4,0-.64-.24-.64-.65,0-.87,0-1.73,0-2.6,0-.66,0-1.32,0-1.98,0-.16.04-.28.17-.39.23-.17.31-.43.31-.71,0-.38,0-.38.36-.38.22,0,.42-.05.61-.17.11-.07.19-.06.28.04.63.7,1.67.62,2.18-.16.12-.18.17-.39.2-.6.03-.24.03-.24.27-.25.3,0,.6,0,.9,0,.14,0,.17.06.17.19,0,.5,0,1.01,0,1.51,0,.43,0,.86,0,1.29,0,.24,0,.48,0,.72,0,0,0,0,.01,0,0,.84,0,1.67,0,2.51ZM645.93,452.57c-.11,0-.22,0-.33,0-.1,0-.21-.01-.29-.02-.23.03-.45.02-.67.02-.21,0-.29.09-.3.29,0,.18.01.37-.04.55-.09.36-.4.61-.77.64-.34.02-.68-.2-.81-.53-.01-.03-.03-.06-.03-.1-.03-.13-.1-.22-.24-.24-.13-.02-.21.07-.28.17-.25.37-.63.44-1,.19-.1-.07-.19-.13-.32-.07-.13.06-.15.18-.15.3,0,.28,0,.56,0,.84,0,.24-.14.39-.35.37-.21-.01-.32-.16-.31-.39,0-.46,0-.92,0-1.38,0-.3.02-.6.01-.89,0-.24.13-.44.36-.55.23-.11.47-.08.69.06.03.02.05.04.08.07.1.09.21.14.34.05.13-.08.14-.2.1-.33-.07-.23-.03-.44.1-.64.17-.27.43-.41.75-.39.32.03.56.18.7.48,0,.02.01.03.02.05.11.24.24.28.46.14.48-.29.91-.2,1.23.25.15.21.23.23.46.11.44-.22.92,0,.97.48.03.29-.06.48-.39.46ZM646.72,456.94c.04-.3-.04-.68,0-1.05.01-.14.07-.2.2-.19.08,0,.16,0,.24,0,.34,0,.47.11.47.44.01.57.01,1.15,0,1.72,0,.34-.13.44-.47.44-.01,0-.02,0-.03,0-.46,0-.44.07-.42-.44.01-.28-.02-.56,0-.92ZM648.88,458.27c0,.26-.01.52-.09.76-.13.4-.37.58-.79.6-.37.01-.73,0-1.1,0-.12,0-.17-.05-.17-.16,0-.15,0-.31-.02-.46,0-.13.05-.19.18-.19.15,0,.3,0,.45,0,.49-.06.79-.35.81-.85.02-.64.03-1.28,0-1.93-.02-.57-.37-.87-.94-.88-.15,0-.33.06-.44-.03-.12-.09-.02-.28-.05-.43,0-.02,0-.05,0-.07-.02-.26,0-.28.27-.28.37,0,.74-.01,1.12.01.41.03.62.28.72.67.04.17.06.35.06.53,0,.45-.02.89,0,1.34.02.45-.02.9,0,1.36Z"/>
        <path d="M645.44,457.22c0,.58,0,1.16,0,1.74,0,.05,0,.09,0,.14,0,.21-.11.34-.26.34-.16,0-.26-.12-.27-.34,0-.55,0-1.09,0-1.64,0-.67,0-1.34,0-2.01,0-.08,0-.16.02-.24.03-.13.11-.2.25-.19.13,0,.21.08.24.2.02.07.02.14.02.2,0,.6,0,1.19,0,1.79Z"/>
        <path d="M643.16,457.23c0,.62,0,1.25,0,1.87,0,.21-.09.33-.24.34-.15.01-.28-.11-.28-.32-.01-.41,0-.82,0-1.24,0-.5,0-1,0-1.49,0-.34.03-.69,0-1.03,0-.04,0-.08.01-.12.03-.14.12-.22.27-.22.15,0,.23.1.24.25,0,.27,0,.54,0,.81,0,.38,0,.77,0,1.15Z"/>
        <path d="M643.79,457.22c0-.63,0-1.25,0-1.88,0-.12.02-.23.14-.29.14-.08.32,0,.36.17.01.06.01.13.01.19,0,1.21,0,2.42,0,3.63,0,.05,0,.09,0,.14-.02.16-.13.27-.26.27-.14,0-.24-.12-.24-.28,0-.26,0-.52,0-.77,0-.39,0-.78,0-1.17,0,0,0,0,0,0Z"/>
        <path d="M642.03,457.23c0,.6,0,1.2,0,1.81,0,.05,0,.1,0,.15-.02.15-.13.26-.26.25-.14-.01-.23-.1-.25-.24,0-.05,0-.09,0-.14,0-1.22,0-2.44,0-3.66,0-.05,0-.1,0-.15.02-.14.11-.21.25-.22.13,0,.22.07.25.2.01.06.01.13.01.19,0,.61,0,1.22,0,1.82Z"/>
      </g>
      <text class="cls-54" transform="translate(374.72 210.32)"><tspan x="0" y="0">TV</tspan></text>
      <g>
        <path d="M390.8,210.38c-.25-.08-.51-.07-.76.02h0c-.44.19-.73.5-.88.96-.02.08-.1.12-.18.11-.87-.16-1.56.54-1.38,1.48.11.54.07,1.1-.01,1.64-.08.55.08.93.55,1.12.11.04.14.12.14.23,0,1.16,0,2.33,0,3.49,0,.36,0,.72,0,1.08v.02c.01.61.51,1.1,1.12,1.1h4.23c.57,0,1.08-.41,1.15-.98,0-.04,0-.09.01-.13,0-.12.09-.13.18-.13.36,0,.71,0,1.07,0,.78,0,1.29-.47,1.38-1.25.08-.72.03-1.43.03-2.15,0-.54.04-1.08-.03-1.62-.09-.73-.57-1.31-1.39-1.28-.35.01-.7,0-1.05,0-.16,0-.21-.06-.22-.21,0-.26.06-.53-.04-.78-.02-.06.02-.11.05-.16.22-.44.17-.86-.13-1.24-.3-.37-.71-.52-1.18-.4-.12.03-.2.02-.29-.07-.4-.38-.86-.48-1.38-.31-.11.04-.19.04-.27-.06-.17-.21-.39-.35-.65-.45l-.05-.02ZM394.25,219.55c0,.33-.01.66,0,1,.01.37-.25.61-.62.61-1.39,0-2.79,0-4.18,0-.4,0-.64-.24-.64-.65,0-.87,0-1.73,0-2.6,0-.66,0-1.32,0-1.98,0-.16.04-.28.17-.39.23-.17.31-.43.31-.71,0-.38,0-.38.36-.38.22,0,.42-.05.61-.17.11-.07.19-.06.28.04.63.7,1.67.62,2.18-.16.12-.18.17-.39.2-.6.03-.24.03-.24.27-.25.3,0,.6,0,.9,0,.14,0,.17.06.17.19,0,.5,0,1.01,0,1.51,0,.43,0,.86,0,1.29,0,.24,0,.48,0,.72,0,0,0,0,.01,0,0,.84,0,1.67,0,2.51ZM393.98,212.82c-.11,0-.22,0-.33,0-.1,0-.21-.01-.29-.02-.23.03-.45.02-.67.02-.21,0-.29.09-.3.29,0,.18.01.37-.04.55-.09.36-.4.61-.77.64-.34.02-.68-.2-.81-.53-.01-.03-.03-.06-.03-.1-.03-.13-.1-.22-.24-.24-.13-.02-.21.07-.28.17-.25.37-.63.44-1,.19-.1-.07-.19-.13-.32-.07-.13.06-.15.18-.15.3,0,.28,0,.56,0,.84,0,.24-.14.39-.35.37-.21-.01-.32-.16-.31-.39,0-.46,0-.92,0-1.38,0-.3.02-.6.01-.89,0-.24.13-.44.36-.55.23-.11.47-.08.69.06.03.02.05.04.08.07.1.09.21.14.34.05.13-.08.14-.2.1-.33-.07-.23-.03-.44.1-.64.17-.27.43-.41.75-.39.32.03.56.18.7.48,0,.02.01.03.02.05.11.24.24.28.46.14.48-.29.91-.2,1.23.25.15.21.23.23.46.11.44-.22.92,0,.97.48.03.29-.06.48-.39.46ZM394.77,217.18c.04-.3-.04-.68,0-1.05.01-.14.07-.2.2-.19.08,0,.16,0,.24,0,.34,0,.47.11.47.44.01.57.01,1.15,0,1.72,0,.34-.13.44-.47.44-.01,0-.02,0-.03,0-.46,0-.44.07-.42-.44.01-.28-.02-.56,0-.92ZM396.93,218.51c0,.26-.01.52-.09.76-.13.4-.37.58-.79.6-.37.01-.73,0-1.1,0-.12,0-.17-.05-.17-.16,0-.15,0-.31-.02-.46,0-.13.05-.19.18-.19.15,0,.3,0,.45,0,.49-.06.79-.35.81-.85.02-.64.03-1.28,0-1.93-.02-.57-.37-.87-.94-.88-.15,0-.33.06-.44-.03-.12-.09-.02-.28-.05-.43,0-.02,0-.05,0-.07-.02-.26,0-.28.27-.28.37,0,.74-.01,1.12.01.41.03.62.28.72.67.04.17.06.35.06.53,0,.45-.02.89,0,1.34.02.45-.02.9,0,1.36Z"/>
        <path d="M393.49,217.47c0,.58,0,1.16,0,1.74,0,.05,0,.09,0,.14,0,.21-.11.34-.26.34-.16,0-.26-.12-.27-.34,0-.55,0-1.09,0-1.64,0-.67,0-1.34,0-2.01,0-.08,0-.16.02-.24.03-.13.11-.2.25-.19.13,0,.21.08.24.2.02.07.02.14.02.2,0,.6,0,1.19,0,1.79Z"/>
        <path d="M391.22,217.47c0,.62,0,1.25,0,1.87,0,.21-.09.33-.24.34-.15.01-.28-.11-.28-.32-.01-.41,0-.82,0-1.24,0-.5,0-1,0-1.49,0-.34.03-.69,0-1.03,0-.04,0-.08.01-.12.03-.14.12-.22.27-.22.15,0,.23.1.24.25,0,.27,0,.54,0,.81,0,.38,0,.77,0,1.15Z"/>
        <path d="M391.85,217.46c0-.63,0-1.25,0-1.88,0-.12.02-.23.14-.29.14-.08.32,0,.36.17.01.06.01.13.01.19,0,1.21,0,2.42,0,3.63,0,.05,0,.09,0,.14-.02.16-.13.27-.26.27-.14,0-.24-.12-.24-.28,0-.26,0-.52,0-.77,0-.39,0-.78,0-1.17,0,0,0,0,0,0Z"/>
        <path d="M390.08,217.48c0,.6,0,1.2,0,1.81,0,.05,0,.1,0,.15-.02.15-.13.26-.26.25-.14-.01-.23-.1-.25-.24,0-.05,0-.09,0-.14,0-1.22,0-2.44,0-3.66,0-.05,0-.1,0-.15.02-.14.11-.21.25-.22.13,0,.22.07.25.2.01.06.01.13.01.19,0,.61,0,1.22,0,1.82Z"/>
      </g>
      <g>
        <path d="M411.52,210.38c-.25-.08-.51-.07-.76.02h0c-.44.19-.73.5-.88.96-.02.08-.1.12-.18.11-.87-.16-1.56.54-1.38,1.48.11.54.07,1.1-.01,1.64s.08.93.55,1.12c.11.04.14.12.14.23,0,1.16,0,2.33,0,3.49,0,.36,0,.72,0,1.08v.02c.01.61.51,1.1,1.12,1.1h4.23c.57,0,1.08-.41,1.15-.98,0-.04,0-.09.01-.13,0-.12.09-.13.18-.13.36,0,.71,0,1.07,0,.78,0,1.29-.47,1.38-1.25.08-.72.03-1.43.03-2.15,0-.54.04-1.08-.03-1.62-.09-.73-.57-1.31-1.39-1.28-.35.01-.7,0-1.05,0-.16,0-.21-.06-.22-.21,0-.26.06-.53-.04-.78-.02-.06.02-.11.05-.16.22-.44.17-.86-.13-1.24-.3-.37-.71-.52-1.18-.4-.12.03-.2.02-.29-.07-.4-.38-.86-.48-1.38-.31-.11.04-.19.04-.27-.06-.17-.21-.39-.35-.65-.45l-.05-.02ZM414.97,219.55c0,.33-.01.66,0,1,.01.37-.25.61-.62.61-1.39,0-2.79,0-4.18,0-.4,0-.64-.24-.64-.65,0-.87,0-1.73,0-2.6,0-.66,0-1.32,0-1.98,0-.16.04-.28.17-.39.23-.17.31-.43.31-.71,0-.38,0-.38.36-.38.22,0,.42-.05.61-.17.11-.07.19-.06.28.04.63.7,1.67.62,2.18-.16.12-.18.17-.39.2-.6.03-.24.03-.24.27-.25.3,0,.6,0,.9,0,.14,0,.17.06.17.19,0,.5,0,1.01,0,1.51,0,.43,0,.86,0,1.29,0,.24,0,.48,0,.72,0,0,0,0,.01,0,0,.84,0,1.67,0,2.51ZM414.7,212.82c-.11,0-.22,0-.33,0-.1,0-.21-.01-.29-.02-.23.03-.45.02-.67.02-.21,0-.29.09-.3.29,0,.18.01.37-.04.55-.09.36-.4.61-.77.64-.34.02-.68-.2-.81-.53-.01-.03-.03-.06-.03-.1-.03-.13-.1-.22-.24-.24-.13-.02-.21.07-.28.17-.25.37-.63.44-1,.19-.1-.07-.19-.13-.32-.07-.13.06-.15.18-.15.3,0,.28,0,.56,0,.84,0,.24-.14.39-.35.37-.21-.01-.32-.16-.31-.39,0-.46,0-.92,0-1.38,0-.3.02-.6.01-.89,0-.24.13-.44.36-.55.23-.11.47-.08.69.06.03.02.05.04.08.07.1.09.21.14.34.05.13-.08.14-.2.1-.33-.07-.23-.03-.44.1-.64.17-.27.43-.41.75-.39.32.03.56.18.7.48,0,.02.01.03.02.05.11.24.24.28.46.14.48-.29.91-.2,1.23.25.15.21.23.23.46.11.44-.22.92,0,.97.48.03.29-.06.48-.39.46ZM415.49,217.18c.04-.3-.04-.68,0-1.05.01-.14.07-.2.2-.19.08,0,.16,0,.24,0,.34,0,.47.11.47.44.01.57.01,1.15,0,1.72,0,.34-.13.44-.47.44-.01,0-.02,0-.03,0-.46,0-.44.07-.42-.44.01-.28-.02-.56,0-.92ZM417.65,218.51c0,.26-.01.52-.09.76-.13.4-.37.58-.79.6-.37.01-.73,0-1.1,0-.12,0-.17-.05-.17-.16,0-.15,0-.31-.02-.46,0-.13.05-.19.18-.19.15,0,.3,0,.45,0,.49-.06.79-.35.81-.85.02-.64.03-1.28,0-1.93-.02-.57-.37-.87-.94-.88-.15,0-.33.06-.44-.03-.12-.09-.02-.28-.05-.43,0-.02,0-.05,0-.07-.02-.26,0-.28.27-.28.37,0,.74-.01,1.12.01.41.03.62.28.72.67.04.17.06.35.06.53,0,.45-.02.89,0,1.34.02.45-.02.9,0,1.36Z"/>
        <path d="M414.21,217.47c0,.58,0,1.16,0,1.74,0,.05,0,.09,0,.14,0,.21-.11.34-.26.34-.16,0-.26-.12-.27-.34,0-.55,0-1.09,0-1.64,0-.67,0-1.34,0-2.01,0-.08,0-.16.02-.24.03-.13.11-.2.25-.19.13,0,.21.08.24.2.02.07.02.14.02.2,0,.6,0,1.19,0,1.79Z"/>
        <path d="M411.94,217.47c0,.62,0,1.25,0,1.87,0,.21-.09.33-.24.34-.15.01-.28-.11-.28-.32-.01-.41,0-.82,0-1.24,0-.5,0-1,0-1.49,0-.34.03-.69,0-1.03,0-.04,0-.08.01-.12.03-.14.12-.22.27-.22.15,0,.23.1.24.25,0,.27,0,.54,0,.81,0,.38,0,.77,0,1.15Z"/>
        <path d="M412.57,217.46c0-.63,0-1.25,0-1.88,0-.12.02-.23.14-.29.14-.08.32,0,.36.17.01.06.01.13.01.19,0,1.21,0,2.42,0,3.63,0,.05,0,.09,0,.14-.02.16-.13.27-.26.27-.14,0-.24-.12-.24-.28,0-.26,0-.52,0-.77,0-.39,0-.78,0-1.17,0,0,0,0,0,0Z"/>
        <path d="M410.8,217.48c0,.6,0,1.2,0,1.81,0,.05,0,.1,0,.15-.02.15-.13.26-.26.25-.14-.01-.23-.1-.25-.24,0-.05,0-.09,0-.14,0-1.22,0-2.44,0-3.66,0-.05,0-.1,0-.15.02-.14.11-.21.25-.22.13,0,.22.07.25.2.01.06.01.13.01.19,0,.61,0,1.22,0,1.82Z"/>
      </g>
      <g>
        <path d="M536.44,549.56c0,1.89,0,3.79,0,5.68,0,1.09-.42,1.51-1.5,1.51-3.8,0-7.6,0-11.39,0-1.06,0-1.48-.43-1.48-1.49,0-3.79,0-7.57,0-11.36,0-.02,0-.05,0-.07,0-1.02.44-1.45,1.44-1.45,1.83,0,3.67,0,5.5,0,1.98,0,3.95,0,5.93,0,1.08,0,1.5.42,1.5,1.51,0,1.89,0,3.79,0,5.68ZM529.29,542.81c-1.96,0-3.93,0-5.89,0-.67,0-.89.22-.89.88,0,3.92,0,7.84,0,11.75,0,.66.23.88.89.88,3.89,0,7.79,0,11.68,0,.73,0,.93-.21.93-.95,0-3.87,0-7.74,0-11.61,0-.75-.2-.95-.97-.95-1.92,0-3.83,0-5.75,0Z"/>
        <path d="M529.26,556.17c-1.89,0-3.78,0-5.68,0-.76,0-.94-.18-.94-.93,0-3.78,0-7.57,0-11.35,0-.75.18-.94.93-.94,3.78,0,7.57,0,11.35,0,.76,0,.94.18.94.93,0,3.78,0,7.57,0,11.35,0,.75-.18.94-.93.94-1.89,0-3.78,0-5.68,0ZM526.03,549.54c0,1.43,0,2.85,0,4.28,0,.31.09.44.41.42.27-.02.55-.02.83,0,.3.02.4-.1.4-.39-.01-.91,0-1.82,0-2.73,0-.29.09-.41.39-.4.43.01.86.02,1.29,0,.98-.06,1.91-.3,2.55-1.12,1.4-1.8.42-4.27-1.82-4.61-1.19-.18-2.39-.04-3.59-.09-.34-.01-.46.1-.45.45.02,1.4,0,2.8,0,4.2Z"/>
        <path d="M527.65,547.79c0-.39,0-.79,0-1.18,0-.24.08-.35.33-.35.56,0,1.12,0,1.68.08.74.11,1.15.51,1.19,1.17.06,1-.25,1.5-1.04,1.72-.62.17-1.26.14-1.89.13-.23,0-.27-.14-.27-.33,0-.41,0-.81,0-1.22Z"/>
      </g>
      <g>
        <path d="M224.37,561.21c0,1.89,0,3.79,0,5.68,0,1.09-.42,1.51-1.5,1.51-3.8,0-7.6,0-11.39,0-1.06,0-1.48-.43-1.48-1.49,0-3.79,0-7.57,0-11.36,0-.02,0-.05,0-.07,0-1.02.44-1.45,1.44-1.45,1.83,0,3.67,0,5.5,0,1.98,0,3.95,0,5.93,0,1.08,0,1.5.42,1.5,1.51,0,1.89,0,3.79,0,5.68ZM217.22,554.46c-1.96,0-3.93,0-5.89,0-.67,0-.89.22-.89.88,0,3.92,0,7.84,0,11.75,0,.66.23.88.89.88,3.89,0,7.79,0,11.68,0,.73,0,.93-.21.93-.95,0-3.87,0-7.74,0-11.61,0-.75-.2-.95-.97-.95-1.92,0-3.83,0-5.75,0Z"/>
        <path d="M217.19,567.82c-1.89,0-3.78,0-5.68,0-.76,0-.94-.18-.94-.93,0-3.78,0-7.57,0-11.35,0-.75.18-.94.93-.94,3.78,0,7.57,0,11.35,0,.76,0,.94.18.94.93,0,3.78,0,7.57,0,11.35,0,.75-.18.94-.93.94-1.89,0-3.78,0-5.68,0ZM213.96,561.19c0,1.43,0,2.85,0,4.28,0,.31.09.44.41.42.27-.02.55-.02.83,0,.3.02.4-.1.4-.39-.01-.91,0-1.82,0-2.73,0-.29.09-.41.39-.4.43.01.86.02,1.29,0,.98-.06,1.91-.3,2.55-1.12,1.4-1.8.42-4.27-1.82-4.61-1.19-.18-2.39-.04-3.59-.09-.34-.01-.46.1-.45.45.02,1.4,0,2.8,0,4.2Z"/>
        <path d="M215.59,559.44c0-.39,0-.79,0-1.18,0-.24.08-.35.33-.35.56,0,1.12,0,1.68.08.74.11,1.15.51,1.19,1.17.06,1-.25,1.5-1.04,1.72-.62.17-1.26.14-1.89.13-.23,0-.27-.14-.27-.33,0-.41,0-.81,0-1.22Z"/>
      </g>
      <g>
        <path d="M38.49,297.1c0,1.89,0,3.79,0,5.68,0,1.09-.42,1.51-1.5,1.51-3.8,0-7.6,0-11.39,0-1.06,0-1.48-.43-1.48-1.49,0-3.79,0-7.57,0-11.36,0-.02,0-.05,0-.07,0-1.02.44-1.45,1.44-1.45,1.83,0,3.67,0,5.5,0,1.98,0,3.95,0,5.93,0,1.08,0,1.5.42,1.5,1.51,0,1.89,0,3.79,0,5.68ZM31.34,290.35c-1.96,0-3.93,0-5.89,0-.67,0-.89.22-.89.88,0,3.92,0,7.84,0,11.75,0,.66.23.88.89.88,3.89,0,7.79,0,11.68,0,.73,0,.93-.21.93-.95,0-3.87,0-7.74,0-11.61,0-.75-.2-.95-.97-.95-1.92,0-3.83,0-5.75,0Z"/>
        <path d="M31.31,303.71c-1.89,0-3.78,0-5.68,0-.76,0-.94-.18-.94-.93,0-3.78,0-7.57,0-11.35,0-.75.18-.94.93-.94,3.78,0,7.57,0,11.35,0,.76,0,.94.18.94.93,0,3.78,0,7.57,0,11.35,0,.75-.18.94-.93.94-1.89,0-3.78,0-5.68,0ZM28.08,297.08c0,1.43,0,2.85,0,4.28,0,.31.09.44.41.42.27-.02.55-.02.83,0,.3.02.4-.1.4-.39-.01-.91,0-1.82,0-2.73,0-.29.09-.41.39-.4.43.01.86.02,1.29,0,.98-.06,1.91-.3,2.55-1.12,1.4-1.8.42-4.27-1.82-4.61-1.19-.18-2.39-.04-3.59-.09-.34-.01-.46.1-.45.45.02,1.4,0,2.8,0,4.2Z"/>
        <path d="M29.7,295.33c0-.39,0-.79,0-1.18,0-.24.08-.35.33-.35.56,0,1.12,0,1.68.08.74.11,1.15.51,1.19,1.17.06,1-.25,1.5-1.04,1.72-.62.17-1.26.14-1.89.13-.23,0-.27-.14-.27-.33,0-.41,0-.81,0-1.22Z"/>
      </g>
      <rect class="cls-67" x="376.34" y="432.23" width="19.23" height="10.26"/>
      <rect class="cls-67" x="376.34" y="444.89" width="19.23" height="10.26"/>
      <text class="cls-51" transform="translate(382.63 464.12)"><tspan x="0" y="0">C3</tspan></text>
      <rect class="cls-67" x="376.34" y="456.95" width="19.23" height="10.26"/>
      <text class="cls-51" transform="translate(382.39 476.33)"><tspan x="0" y="0">C4</tspan></text>
      <rect class="cls-67" x="376.34" y="469.15" width="19.23" height="10.26"/>
      <path class="cls-77" d="M406.83,493.42c-6.33.04-11.3,5.22-11.26,11.35-.04,6.22,5.07,11.38,11.4,11.35,6.07-.03,11.22-4.88,11.28-11.21.07-6.51-5.18-11.52-11.42-11.48ZM411.61,503.15c.16.35.04.53-.35.53-.49,0-.98,0-1.47,0l1.42-1.42c.13.3.27.59.4.89ZM411.92,505.2c.48,0,.86.37.86.85,0,.49-.36.87-.84.88-.48.01-.88-.38-.88-.87,0-.47.39-.86.86-.86ZM406.19,503.68c-.48,0-.96,0-1.43,0-.71,0-1.42,0-2.14,0-.49,0-.59-.16-.38-.6.24-.54.49-1.08.73-1.63.14-.33.37-.46.72-.46,1.73,0,3.47,0,5.2,0l-2.7,2.7ZM402.78,506.05c0,.46-.39.86-.86.87-.49,0-.87-.37-.87-.87,0-.48.37-.86.85-.86.46,0,.86.39.87.86ZM406.92,495.65c2.06,0,3.96.69,5.48,1.83l-2.46,2.46c-2.21,0-4.42,0-6.63,0-.55,0-.93.23-1.15.74-.38.85-.75,1.7-1.15,2.54-.12.26-.33.49-.47.75-.1.18-.21.37-.22.57-.02.79-.01,1.58-.01,2.37q0,.53.52.63v.28c0,.41,0,.83,0,1.24l-1.21,1.21c-1.13-1.49-1.82-3.37-1.82-5.48,0-5.25,4.26-9.15,9.13-9.13ZM406.91,513.87c-2,.03-3.93-.64-5.5-1.81l4.54-4.54h4.99c0,.56,0,1.1,0,1.64,0,.36.08.43.44.43.39,0,.79,0,1.18,0,.33,0,.38-.05.39-.39,0-.56,0-1.11,0-1.68.54-.07.55-.08.55-.6,0-.76,0-1.52,0-2.28,0-.29-.09-.51-.27-.73-.17-.19-.31-.41-.42-.64-.28-.6-.55-1.19-.82-1.79l2.18-2.18c1.16,1.54,1.84,3.45,1.83,5.55-.02,5.13-4.24,9.09-9.11,9.05Z"/>
      <g>
        <line class="cls-75" x1="369.88" y1="504.63" x2="371.38" y2="504.63"/>
        <line class="cls-68" x1="374.48" y1="504.63" x2="435" y2="504.63"/>
        <line class="cls-75" x1="436.56" y1="504.63" x2="438.06" y2="504.63"/>
      </g>
      <polygon class="cls-9" points="732.74 461.49 681.24 461.49 681.24 460.74 732.37 460.74 732.37 426.74 733.12 426.74 733.12 461.38 732.74 461.38 732.74 461.49"/>
      <rect class="cls-39" x="709.52" y="460.91" width=".75" height="23.02"/>
      <g>
        <path d="M367.63,166.93s-.01,0-.02,0c-5.3,0-10.61,0-15.91,0,0,0-.02,0-.03,0,0,0,0,0,0,0,0,0,0,0,0,0v7.77h15.97s.01-7.73,0-7.77ZM358.1,174.23c-.12.12-.24.25-.36.37-.02.02-.05.03-.08.03-.21,0-.42,0-.62,0-.06,0-.13-.01-.19-.02-.02,0-.04,0-.05-.02,0-.02.01-.04.03-.05.1-.09.19-.17.29-.26.06-.05.11-.11.17-.17,0,0,.02-.02.03-.03-.02,0-.03,0-.04,0-.2,0-.41,0-.61,0-.03,0-.05,0-.08.03-.18.17-.37.34-.55.5-.02.02-.05.03-.08.03-.64,0-1.27,0-1.91,0-.25,0-.49,0-.74,0-.14,0-.27,0-.41-.01-.01,0-.03,0-.05,0,.01-.02.02-.04.03-.05.05-.05.09-.1.14-.15.07-.07.14-.13.21-.2.02-.02.03-.04.03-.07,0-.33,0-.65,0-.98,0-.01,0-.03,0-.05h-.05c-.15,0-.29,0-.44,0-.1,0-.21-.01-.31-.02,0,0-.02,0-.03,0-.04,0-.05-.02-.03-.06.05-.14.09-.28.17-.41.07-.11.15-.2.25-.27.08-.05.16-.09.25-.1.03,0,.07-.02.1-.02.03,0,.04-.02.04-.05,0-.05.01-.1.02-.15.02-.37.02-.75.02-1.12,0-.27,0-.54,0-.81,0-.85,0-1.7,0-2.55,0-.02,0-.04,0-.05,0,0,0,0,0,0,0,0,0,0,0,0,0,0,.01,0,.02,0,1.61,0,3.22,0,4.83,0,0,0,.01,0,.02,0,0,.01,0,.02,0,.03,0,.01,0,.03,0,.04,0,.92,0,1.84,0,2.76,0,.02,0,.04,0,.07-.02,0-.03,0-.04,0-.23,0-.46,0-.7,0-.03,0-.05-.01-.06-.03-.19-.22-.39-.44-.59-.66-.06-.07-.13-.14-.2-.2-.07-.06-.14-.1-.23-.12-.07-.01-.14-.02-.21-.02-.26,0-.52,0-.78,0-.3,0-.59,0-.89.01-.02,0-.04,0-.06.03-.17.17-.3.36-.42.57-.04.07-.08.13-.12.19-.08.1-.12.22-.15.34-.01.06,0,.12.05.16.05.05.11.09.18.1.06,0,.11,0,.14-.05.07-.09.15-.19.21-.28.12-.17.23-.35.34-.53.02-.03.04-.04.08-.04.15,0,.3,0,.45,0,.02,0,.03,0,.05,0,.03,0,.04.03.04.06,0,.03-.02.06-.03.08-.08.17-.15.33-.23.5-.05.1-.1.2-.15.29-.03.05-.04.1-.05.16-.03.16-.05.33-.07.49-.02.13-.03.25-.04.38-.01.13-.02.27-.03.4,0,.04,0,.08,0,.12-.02,0-.04,0-.06,0-.1,0-.21,0-.31,0-.14,0-.27,0-.41.01-.21,0-.43.01-.64.02-.07,0-.14,0-.2,0-.02,0-.04,0-.06.02-.02.02-.04.04-.06.06-.12.1-.18.22-.22.37,0,0,0,.01,0,.02,0,.06,0,.07.06.07.12,0,.25.01.37.01.38,0,.76,0,1.14,0,.21,0,.43,0,.64-.02.06,0,.11,0,.17-.01.08,0,.14-.06.17-.13.03-.06.05-.13.06-.2.03-.18.03-.36.04-.54.01-.19.03-.37.04-.56,0-.03.01-.05.02-.08,0,0,0,0,0,0,.01.01.02.02.03.04.03.05.06.09.08.14.25.47.49.94.73,1.41.09.17.18.34.27.51.03.05.06.1.1.15.09.13.23.2.39.21.13,0,.26,0,.39,0,.06,0,.07-.02.04-.07-.18-.34-.36-.68-.54-1.03-.24-.47-.48-.94-.72-1.41-.02-.04-.04-.09-.06-.13-.01-.02-.01-.05-.01-.07.01-.08.04-.15.07-.23.1-.21.2-.41.3-.61,0-.02.02-.03.03-.05.02-.02.03-.03.06,0,.02.02.04.03.05.05.13.14.26.28.39.43.03.03.06.07.09.1.02.02.04.03.06.03.11,0,.21,0,.32,0,.21,0,.42,0,.62.01,0,0,0,0,.01,0,.03,0,.04,0,.04.04,0,0,0,.02,0,.03,0,1.06,0,2.11,0,3.17,0,.04-.01.07-.04.09ZM366.6,170.87c-.61.56-1.21,1.11-1.82,1.67-.26.24-.51.48-.77.71-.02.02-.05.03-.08.03-.61,0-1.22,0-1.84,0-.02,0-.03,0-.05,0,0,0,0,0,0-.01.61-.57,1.22-1.14,1.84-1.71,0,0,0,0,0,0h-.88c-.15,0-.29,0-.44,0-.15,0-.29,0-.44,0-.15,0-.29,0-.44,0-.15,0-.29,0-.44,0-.15,0-.29,0-.44,0v-1.48c.12,0,.23,0,.34,0,.11,0,.23,0,.34,0h2.39s0,0,0,0c-.01-.01-.02-.02-.04-.03-.38-.35-.76-.7-1.15-1.05-.21-.2-.42-.4-.64-.59-.01-.01-.02-.02-.04-.04.02,0,.04,0,.05,0,.61,0,1.23,0,1.84,0,.03,0,.06.01.08.03.85.78,1.69,1.57,2.54,2.35.04.03.07.07.11.11-.01.01-.02.03-.04.04Z"/>
        <path d="M356.45,169.19c-.07,0-.15,0-.22,0-.13-.02-.24-.09-.3-.21-.11-.19-.11-.39,0-.58.07-.13.18-.2.33-.21.04,0,.07,0,.12-.01.05,0,.11.01.17.03.17.04.37.2.37.47,0,.28-.2.5-.46.53Z"/>
      </g>
      <g>
        <rect class="cls-69" x="96.25" y="198.01" width="17.9" height="36.66"/>
        <rect class="cls-69" x="307.04" y="198.01" width="17.9" height="36.66"/>
        <rect class="cls-69" x="96.2" y="139.78" width="228.74" height="153.12"/>
        <circle class="cls-69" cx="210.57" cy="216.34" r="17.61"/>
        <line class="cls-69" x1="210.57" y1="139.78" x2="210.57" y2="292.91"/>
      </g>
      <rect class="cls-69" x="226.93" y="296.7" width="61.93" height="10.87" transform="translate(515.79 604.28) rotate(180)"/>
      <rect class="cls-69" x="129.99" y="296.7" width="61.93" height="10.87" transform="translate(321.92 604.28) rotate(180)"/>
      <rect class="cls-69" x="195.56" y="296.7" width="27.41" height="10.87" transform="translate(418.53 604.28) rotate(180)"/>
      <text class="cls-62" transform="translate(197.34 303.77)"><tspan x="0" y="0">MESA R1</tspan></text>
      <text class="cls-50" transform="translate(132.77 304.45)"><tspan x="0" y="0">SUPLENTES R1 A</tspan></text>
      <text class="cls-50" transform="translate(231.48 304.45)"><tspan x="0" y="0">SUPLENTES R1 B</tspan></text>
      <g>
        <rect class="cls-69" x="307" y="398.21" width="17.9" height="36.66" transform="translate(631.89 833.08) rotate(180)"/>
        <rect class="cls-69" x="96.2" y="398.21" width="17.9" height="36.66" transform="translate(210.31 833.08) rotate(180)"/>
        <rect class="cls-69" x="96.2" y="339.98" width="228.74" height="153.12" transform="translate(421.15 833.08) rotate(180)"/>
        <circle class="cls-69" cx="210.57" cy="416.54" r="17.61"/>
        <line class="cls-69" x1="210.57" y1="493.1" x2="210.57" y2="339.98"/>
      </g>
      <rect class="cls-69" x="132.29" y="325.31" width="61.93" height="10.87"/>
      <rect class="cls-69" x="229.22" y="325.31" width="61.93" height="10.87"/>
      <rect class="cls-69" x="198.18" y="325.31" width="27.41" height="10.87"/>
      <text class="cls-62" transform="translate(224.35 329.12) rotate(-180)"><tspan x="0" y="0">MESA R2</tspan></text>
      <text class="cls-50" transform="translate(289.01 328.43) rotate(-180)"><tspan x="0" y="0">SUPLENTES R2 A</tspan></text>
      <text class="cls-50" transform="translate(190.31 328.43) rotate(-180)"><tspan x="0" y="0">SUPLENTES R2 B</tspan></text>
      <text class="cls-59" transform="translate(247.68 244.48)"><tspan x="0" y="0">R1</tspan></text>
      <text class="cls-59" transform="translate(245.37 392.84)"><tspan x="0" y="0">R2</tspan></text>
    </g>
  </g>
</svg>