<?xml version="1.0" encoding="UTF-8"?>
<svg id="Layer_2" xmlns="http://www.w3.org/2000/svg" viewBox="0 0 94.54 78.46">
  <defs>
    <style>
      .cls-1 {
        fill: none;
        stroke: #000;
        stroke-miterlimit: 10;
        stroke-width: 3px;
      }
    </style>
  </defs>
  <g id="Layer_1-2" data-name="Layer_1">
    <g>
      <path class="cls-1" d="M34.67,72.44c-1.55,1.38-3.2,2.76-4.96,4.12C-7.13,48,2.69,13.82,2.69,13.82c0,0,2.35.53,5.68,1.22"/>
      <path class="cls-1" d="M86.18,15.04c3.33-.69,5.68-1.22,5.68-1.22,0,0,9.82,34.18-27.02,62.74-1.75-1.36-3.4-2.73-4.95-4.12"/>
      <path class="cls-1" d="M80.67,16.14c-.33,13.11-4.76,33.32-24.77,52.51-2.6,2.5-5.47,4.98-8.62,7.42-3.15-2.44-6.02-4.92-8.62-7.42C18.64,49.45,14.22,29.25,13.88,16.14c-.22-8.77,1.39-14.37,1.39-14.37,0,0,23.11,5.19,30.47,5.19h3.08c7.35,0,30.46-5.19,30.46-5.19,0,0,1.61,5.6,1.39,14.37Z"/>
    </g>
  </g>
</svg>