<?xml version="1.0" encoding="UTF-8"?>
<svg id="Layer_2" xmlns="http://www.w3.org/2000/svg" viewBox="0 0 81.8 88.76">
  <g id="Layer_1-2" data-name="Layer_1">
    <g>
      <path d="M40.55,88.76c-9.49,0-18.17-3.21-25.79-9.53-7.85-6.52-12.66-15.11-14.29-25.52-.22-1.38-.3-2.78-.38-4.01-.03-.49-.06-.94-.09-1.34.2-8.01,1.92-14.56,5.42-20.59.76-1.31.6-2.42-.48-3.39-.77-.69-1.5-1.43-2.17-2.2-1.06-1.21-1.04-2.66.05-3.77,2.93-2.99,5.84-5.9,8.66-8.66.52-.51,1.12-.78,1.73-.78s1.26.28,1.84.82c.29.27.57.61.87.97.73.88,1.55,1.87,2.83,2.13.19.04.38.06.56.06,1.08,0,1.95-.61,2.73-1.14.42-.29.81-.56,1.18-.71.55-.22,1.1-.46,1.64-.69,1.7-.73,3.3-1.42,5.02-1.78,1.59-.34,2.37-1.37,2.26-2.99-.05-.7-.03-1.41-.01-2.16v-.37c.05-1.96.98-2.98,2.76-3.02,2.1-.05,4.04-.08,5.96-.08,2.05,0,4.06.03,5.96.09,2.03.06,2.85.95,2.92,3.17.13,4.16.41,4.55,4.28,5.95l.1.04c2.65.96,4.83,1.85,6.83,3.12.6.38,1.16.57,1.72.57.82,0,1.55-.39,2.23-1.2.58-.69,1.19-1.34,1.82-1.93.57-.54,1.22-.82,1.88-.82s1.29.28,1.83.81c3.18,3.11,5.94,5.88,8.45,8.45.68.7,1.03,1.4,1.01,2.07-.01.7-.4,1.41-1.14,2.13-3.04,2.91-3.14,3.44-1.32,7.08,2.96,5.91,4.43,12.05,4.38,18.26-.08,10.41-3.54,19.53-10.25,27.11-6.98,7.88-15.74,12.46-26.02,13.6-1.68.19-3.35.28-4.98.28ZM41.11,10.33C20.3,10.33,3.35,27.16,3.33,47.84c-.03,20.75,16.73,37.66,37.36,37.71,20.88,0,37.83-16.77,37.87-37.38.02-10.07-3.87-19.55-10.94-26.71-7.08-7.16-16.47-11.11-26.45-11.13h-.04Z"/>
      <path d="M40.65,64.07h-11.92c-2.5,0-5,0-7.5,0-3.89,0-6.62-2.74-6.63-6.63-.03-6.11-.03-12.55,0-19.11.02-3.76,2.74-6.49,6.48-6.49,6.45-.01,12.91-.02,19.36-.02,6.78,0,13.56,0,20.34.02,3.67,0,6.39,2.63,6.45,6.25.12,6.74.11,13.4,0,19.82-.06,3.43-2.89,6.14-6.44,6.17-2.77.02-5.54.02-8.31.02h-11.83ZM21.86,35.11c-2.92,0-3.96,1.03-3.96,3.93,0,5.89,0,11.78,0,17.67,0,3.19.87,4.06,4.05,4.06h29.44s8.52,0,8.52,0c2.96,0,4.06-1.09,4.06-4,0-5.89,0-11.78,0-17.67,0-3.02-.98-3.99-4.01-3.99h-18.67s-19.44,0-19.44,0Z"/>
      <path d="M58.97,47.97c.08,3.47-.79,6.52-4.68,6.58-4,.04-5.15-2.93-5.05-6.66-.08-3.61.95-6.53,4.84-6.57,4.02-.02,4.97,2.98,4.89,6.6v.06ZM56.77,47.95c0-1.88-.45-3.89-2.39-4.21-3.46-.27-3.49,6.89-1.18,8.19,1.04.72,2.44.3,3-.84.45-.82.55-2.07.57-3.08v-.06Z"/>
      <path d="M38.1,47.89c-.08-3.57.86-6.57,4.82-6.57,3.92,0,4.97,2.92,4.9,6.56.12,3.73-1.02,6.72-5.04,6.67-3.89-.07-4.77-3.11-4.69-6.6v-.06ZM45.45,47.97c.11-2.11-.81-5.02-3.26-4.18-2.58,1.06-2.54,7.44.08,8.42,2.52.89,3.22-2.23,3.18-4.17v-.06Z"/>
      <path d="M22.9,47.77c-.1-4.27,1.49-7.05,6.05-6.32,3.08.58,3.74,3.57,3.68,6.52.1,3.75-1.1,6.68-5.11,6.58-3.95-.1-4.7-3.24-4.62-6.72v-.06ZM25.1,47.84c-.14,2,.14,4.8,2.65,4.4,1.09-.18,1.93-1.11,2.22-2.16.49-1.96.57-5.04-1.46-6.22-.95-.52-2.06-.17-2.66.77-.53.77-.7,2.1-.75,3.15v.06Z"/>
      <path d="M34.38,49.87c.05-.58.32-1.02.95-1.06.58-.03.88.38.93.91.06.64-.31,1.01-.93,1.05-.58.04-.85-.35-.95-.9Z"/>
      <path d="M35.26,45.09c.62.05,1.01.35,1,.99,0,.55-.34.92-.88.95-.64.03-.97-.38-.98-.99,0-.54.3-.88.86-.95Z"/>
    </g>
  </g>
</svg>