<?xml version="1.0" encoding="UTF-8"?>
<svg id="Layer_2" xmlns="http://www.w3.org/2000/svg" viewBox="0 0 26.11 35.38">
  <defs>
    <style>
      .cls-1 {
        fill: #fff;
      }
    </style>
  </defs>
  <g id="Layer_1-2" data-name="Layer_1">
    <path class="cls-1" d="M25.94,17.96h0c-.01-.07-.02-.11-.02-.12-.01-.06-.02-.13-.04-.19-.39-1.94-.62-3.94-.68-5.95.04-2.35.31-4.72.81-7.06.1-.47.18-1.2,0-1.97-.13-.53-.36-1.01-.69-1.41-.64-.79-1.6-1.25-2.63-1.25-.25,0-.5.03-.75.08-.08.02-.15.04-.23.06-.22.06-2.11.6-2.11.6-.03,0-.05.02-.07.02-2.01.63-4.28.96-6.55.96-1.94,0-3.85-.25-5.51-.73-.02,0-.03-.01-.05-.01-.7-.19-2.37-.65-3-.84-.16-.05-.33-.08-.5-.11-.16-.02-.32-.03-.47-.03C2.4.01,1.43.47.79,1.26c-.33.41-.56.88-.68,1.4-.22.95-.04,1.82.07,2.34H.18s.02.09.02.12c.01.07.02.13.03.2.4,1.93.63,3.94.68,5.95-.04,2.35-.31,4.72-.81,7.06-.1.47-.19,1.2,0,1.97.13.53.36,1.01.69,1.42.64.79,1.6,1.25,2.63,1.25.25,0,.5-.03.75-.08.07-.02.15-.04.23-.06.22-.06,2.11-.6,2.11-.6h.01s.04-.01.06-.02c.37-.12.74-.22,1.12-.31,0,.39,0,.72,0,.77,0,1.61,0,2.77-.36,3.53-.76,1.31-1.18,2.9-1.18,4.48h0c0,1.19.41,2.32,1.17,3.18.84.97,2.05,1.53,3.32,1.53h4.83c.09,0,.18,0,.27-.02.82-.07,1.55-.32,2.19-.75.64-.43,1.13-1,1.48-1.71.55-1.09.67-2.46.38-3.95-.2-.99-.57-1.97-1.04-2.77-.36-.76-.35-1.92-.35-3.53v-.75c.07.02.15.04.22.06t0,0h0s.03,0,.04.01c.7.19,2.37.65,3,.84.16.05.33.08.5.11.15.02.31.03.47.03,1.05,0,2.02-.46,2.67-1.25.33-.41.56-.89.68-1.4.22-.94.04-1.82-.07-2.34Z"/>
  </g>
</svg>