<?xml version="1.0" encoding="UTF-8"?>
<svg id="Layer_2" xmlns="http://www.w3.org/2000/svg" viewBox="0 0 96.28 71.6">
  <g id="Layer_1-2" data-name="Layer_1">
    <g>
      <path d="M6.48,71.6c-2.32,0-5.04-1.08-5.91-3.5-.48-1.35-.48-2.84-.48-4.27,0-11.29.02-22.58.02-33.86,0-.48-.02-1.02-.05-1.58-.07-1.59-.15-3.39.33-4.62.46-1.2,2.19-2.11,3.54-2.53l.24-.08.08-.24c1.2-3.47,3.71-4.18,7.11-4.18.67,0,1.35.03,2.03.05h.32s.14-.28.14-.28c.22-.45.43-.89.63-1.31.41-.86.8-1.67,1.25-2.43C20.83,4.36,28.31.08,37.98.05c8.16-.03,16.32-.03,24.48-.03,7.17,0,14.34,0,21.51-.02,1.81,0,3.11.54,4.24,1.76,1.08,1.17,2.24,2.3,3.35,3.39,1.59,1.55,3.22,3.16,4.72,4.93v14.31c-.97,1.7-2.36,2.13-3.84,2.6-5.24,1.63-10.54,3.34-15.68,5l-4.27,1.38c-.35.11-.7.26-1.06.42-.18.08-.86.35-.86.35l-.03.3c-.32,3.39-.91,5.89-1.9,8.12-4.17,9.32-11.25,14.5-21.06,15.39-.87.08-1.74.12-2.58.12h0c-7.98,0-14.7-3.53-19.98-10.49-.09-.12-.18-.25-.27-.39-.23-.35-.5-.76-.89-1.02-3.69-2.48-6.69-5.74-9.46-10.27l-.93-1.52v2.61c0,.65.01,1.3,0,1.95,0,.16-.01.31-.03.46.06,3.83.06,17.86.03,19.71,0,.64,0,1.29.01,1.94.03,1.42.05,2.88-.17,4.29-.53,3.26-2.47,5.49-5.34,6.12-.48.1-.99.16-1.51.16ZM3.68,24.42c-1.4.77-1.6,1.93-1.6,3.06v7.46c0,9.76-.01,19.53.02,29.29,0,2.77,1.72,4.65,4.27,4.67h0c2.59,0,4.26-1.8,4.31-4.58.05-2.53.04-13.53.03-20.11v-4.76c0-.26,0-.52.02-.78,0-1.84,0-3.61,0-5.39v-4.93s-.48-.02-.48-.02c-2.73-.1-4.66-1.31-5.88-3.72l-.23-.46-.45.25ZM57.23,10.57c-5.12,0-9.31.06-13.19.21-11.85.43-21.21,10.71-20.88,22.92.32,11.78,10.28,21.74,21.76,21.74.41,0,.82-.01,1.23-.04,12.02-.75,20.7-9.31,21.59-21.31.12-1.63.74-2.38,2.27-2.79,1.72-.46,3.44-1.05,5.09-1.62.71-.24,1.42-.49,2.13-.72l.34-.11V10.92l-.41-.08c-.16-.03-.29-.06-.4-.09-.21-.05-.4-.09-.6-.09h-.24c-3.12,0-6.23-.02-9.35-.05-3.12-.02-6.24-.05-9.36-.05ZM38.09,2.83c-9.46,0-19.42,6.39-20.49,13.16l-.08.51.85.11c.26.03.51.07.77.09,1.18.08,1.87.31,2.11.69.25.39.16,1.12-.27,2.24-.31.8-.62,1.59-.94,2.38-.5,1.25-1.02,2.54-1.49,3.83-.5,1.39-1,2.48-2.48,2.75l-.48.09.08.49c.57,3.43,1.88,6.35,4,8.93l1.11,1.35-.23-1.73c-1.01-7.69.57-14.17,4.82-19.81,4.3-5.69,10.17-8.98,17.94-10.05l.83-.11-3.43-4.73-.21-.03c-.78-.1-1.6-.15-2.42-.15ZM80.61,27.85l12.82-4.13v-12.96h-12.82v17.09ZM12.2,20.98c1.08,0,1.29.62,1.54,2.14.1.62.21,1.27.47,1.83l.29.61.5-.46c1.09-1.01,1.44-2.15,1.82-3.35.11-.35.22-.72.36-1.1l.21-.6-.63-.07c-1.58-.17-2.98-.31-4.36-.31s-2.6.16-3.71.48c-.59.17-1.07.55-1.35,1.08-.31.58-.37,1.28-.15,1.98.37,1.17,1.05,1.77,2.02,1.77.21,0,.44-.03.67-.09l.31-.08.06-.31c.07-.35.11-.73.14-1.11.14-1.43.27-2.24,1.46-2.38.13-.01.25-.02.36-.02ZM76.84,3.74c.21.31.41.6.6.89.75,1.12,1.45,2.18,2.41,3.07l.14.13h10.29l-5.16-4.88h-8.82l.54.78ZM45.32,3.84c.75,1.54,1.67,2.61,2.47,3.45l.15.16h27.57l-.59-.94c-.78-1.25-1.46-2.33-2.45-3.25l-.14-.13h-27.35l.35.72Z"/>
      <path d="M45.43,44.29c-6.16,0-11.17-5.05-11.17-11.25,0-3.04,1.16-5.88,3.27-8,2.11-2.11,4.93-3.28,7.96-3.28,3.02,0,5.83,1.17,7.92,3.27,2.12,2.13,3.28,5,3.27,8.06-.02,6.22-4.92,11.13-11.14,11.19h-.1ZM45.48,24.76c-2.27,0-4.4.9-6.01,2.52-1.56,1.58-2.41,3.65-2.38,5.82.06,4.54,3.82,8.23,8.38,8.23,4.56,0,8.3-3.71,8.33-8.26.04-4.54-3.67-8.27-8.26-8.31h-.07Z"/>
    </g>
  </g>
</svg>