<?xml version="1.0" encoding="UTF-8"?>
<svg id="Layer_2" xmlns="http://www.w3.org/2000/svg" viewBox="0 0 48.42 67">
  <defs>
    <style>
      .cls-1 {
        fill: #fff;
      }
    </style>
  </defs>
  <g id="Layer_1-2" data-name="Layer_1">
    <g>
      <g id="Layer_1-2">
        <g>
          <path d="M48.11,34.45c.19.91.5,2.37.15,3.84-.16.69-.46,1.37-.98,2.02-.92,1.13-2.31,1.78-3.81,1.78-.23,0-.47-.01-.7-.04-.23-.03-.45-.08-.67-.14-1.28-.38-4.66-1.32-6.09-1.7-.02,0-.04-.01-.06-.02-.44-.13-.9-.25-1.35-.36-.53-.13-1.07-.25-1.62-.36v3.99c0,3.53-.01,6.09.94,8.02.84,1.4,1.52,3.21,1.88,5,.51,2.56.3,4.87-.59,6.67-.54,1.1-1.32,1.99-2.31,2.65-1,.67-2.17,1.07-3.47,1.19-.12.01-.24.02-.36.02h-9.69c-1.96,0-3.84-.86-5.16-2.37-1.19-1.37-1.85-3.16-1.85-5.06v-.03c0-2.86.76-5.71,2.14-8.05.96-1.93.95-4.5.95-8.03v-3.99c-.44.08-.87.17-1.3.26-1.2.26-2.38.57-3.51.93-.03,0-.06.02-.09.03,0,0-3.84,1.1-4.24,1.21-.1.03-.21.06-.32.08-.36.08-.73.12-1.09.12-1.46,0-2.82-.64-3.73-1.77-.52-.65-.83-1.36-1-2.05-.28-1.2-.15-2.36.01-3.1,1.02-4.84,1.58-9.75,1.66-14.58-.11-4.15-.58-8.28-1.41-12.32-.02-.1-.04-.2-.05-.3-.01-.07-.04-.22-.07-.33-.19-.91-.5-2.37-.15-3.84.16-.69.46-1.37.98-2.01C2.05.66,3.44.01,4.95.01c.23,0,.47.01.7.04.23.03.45.08.67.14,1.28.38,4.67,1.32,6.09,1.7.02,0,.04.01.06.02,3.5,1,7.51,1.53,11.59,1.53,4.75,0,9.5-.7,13.73-2.01.03-.01.06-.02.09-.03,0,0,3.84-1.1,4.24-1.21.1-.03.21-.06.32-.08.36-.08.73-.12,1.09-.12,1.46,0,2.82.64,3.73,1.77.52.65.83,1.36,1,2.05.28,1.2.15,2.36-.01,3.1-1.02,4.84-1.58,9.75-1.66,14.58.11,4.15.58,8.28,1.41,12.32.02.1.04.2.05.3.01.07.04.22.07.33h0Z"/>
          <g>
            <g id="Layer_2-2">
              <g id="Layer_1-2-2" data-name="Layer_1-2">
                <g id="S.F.C">
                  <path class="cls-1" d="M26.4,57.81c-.28.94-1.15,1.63-2.18,1.63s-1.91-.69-2.18-1.63h4.37Z"/>
                  <path class="cls-1" d="M26.44,56.7h-4.45c.22-1.03,1.13-1.8,2.22-1.8h0c1.09,0,2,.77,2.22,1.8Z"/>
                  <path class="cls-1" d="M25.93,57.57s-.01.06-.03.08c-.02.02-.05.03-.08.03h0c-.06,0-.11-.05-.11-.11s.05-.11.11-.11.11.05.11.11h0Z"/>
                  <path class="cls-1" d="M25.19,57.26c0,.13.1.23.23.23.07,0,.13-.03.17-.08v.21c-.06.04-.14.06-.21.06-.22,0-.41-.19-.41-.42s.18-.42.41-.42c.07,0,.15.02.21.06v.21c-.04-.05-.11-.08-.17-.08h0c-.13,0-.23.1-.23.23h0Z"/>
                  <path class="cls-1" d="M24.48,57.65h0s-.11.04-.16,0-.04-.11,0-.16.11-.04.16,0c.04.04.04.11,0,.16h0Z"/>
                  <polygon class="cls-1" points="24.08 57.03 24.08 57.18 24.35 57.18 24.35 57.35 24.08 57.35 24.08 57.66 23.87 57.66 23.87 56.86 24.36 56.86 24.36 57.03 24.08 57.03"/>
                  <path class="cls-1" d="M23.36,57.57c0,.06-.05.11-.11.11h0c-.06,0-.11-.05-.11-.11s.05-.11.11-.11.11.05.11.11h0Z"/>
                  <path class="cls-1" d="M23.05,57.42s0,.08-.02.12c-.01.03-.04.06-.06.08s-.06.04-.09.04c-.03,0-.07.01-.1.01-.04,0-.08,0-.11-.01-.04,0-.07-.02-.11-.04-.03-.01-.07-.03-.1-.05l.08-.17s.02.02.03.02c.02.01.04.02.06.03.02.01.05.02.08.03.03,0,.06.01.09.01.02,0,.05,0,.07-.02.01-.01.02-.03.02-.04,0-.02,0-.04-.02-.05-.02-.01-.04-.02-.06-.03-.03,0-.06-.02-.09-.03-.04-.01-.08-.03-.11-.05-.03-.02-.05-.04-.07-.07-.02-.03-.02-.07-.02-.1,0-.05.01-.1.04-.15.02-.04.06-.07.1-.09.04-.02.09-.03.14-.03.03,0,.07,0,.1.01.03,0,.06.02.09.04.03.01.05.03.08.04l-.08.16s-.01-.01-.02-.02c-.02,0-.03-.02-.05-.03-.02-.01-.04-.02-.06-.02s-.04-.01-.07-.01c-.02,0-.05,0-.07.02-.02.01-.03.03-.02.05,0,.02,0,.03.02.04.02.01.03.02.05.03.02,0,.05.02.08.03.04.01.08.03.12.05.03.02.06.04.08.08.02.03.03.07.03.12h0Z"/>
                </g>
              </g>
            </g>
            <path class="cls-1" d="M23.31,9.16c.3,0,.6,0,.9,0h.01c.3,0,.61,0,.91,0v-.02c3.54-.1,7.4-.51,11.26-1.48l1.09-.28.17-.04c.18-.05.36-.09.54-.14.42-.11.84-.23,1.26-.34l3.3-.94h0c-.02.06-.27.98-.58,2.62-.52,2.74-1.2,7.47-1.18,13.45v.11l.28.07h0c.1.06.18.1.24.14v-.08s-.02-.29-.02-.29l.66.28c.12.05.23.1.35.15,0-.66,0-1.33,0-1.99.04-2.22.18-4.43.42-6.63.23-2.11.58-4.2,1.03-6.27.1-.46.19-.92.25-1.4.05-.44.14-.96.02-1.39-.11-.41-.55-.64-.95-.52l-4.28,1.22c-.44.12-.84.23-1.22.33-.18.05-.36.09-.53.14l-.17.04-1.1.28c-3.36.84-7.03,1.33-10.92,1.43l-.7.02s-.12,0-.15,0c-.03,0-.11,0-.15,0l-.7-.02c-3.89-.11-7.57-.59-10.92-1.43l-1.1-.28-.17-.04c-.17-.04-.35-.09-.53-.14-.38-.1-.78-.21-1.22-.33l-4.28-1.22c-.4-.11-.84.12-.95.52-.12.43-.03.95.02,1.39.06.47.15.93.25,1.4.45,2.08.8,4.16,1.03,6.27.24,2.2.38,4.41.42,6.63.02,1.34.01,2.68-.04,4.02.51-.07,1.03-.14,1.54-.2.23-7.02-.55-12.58-1.14-15.65-.31-1.63-.57-2.56-.58-2.61h0s3.3.94,3.3.94c.41.12.83.23,1.26.34.18.05.36.09.54.14l.17.04,1.09.28c3.86.97,7.73,1.38,11.26,1.48v.02h0Z"/>
            <path class="cls-1" d="M30.31,53.49c-.55-.91-.99-2.34-1.24-4.02-.18-1.18-.31-2.54-.39-4.05-.51-.02-1.02-.03-1.53-.04.09,1.61.22,3.06.41,4.32.29,1.94.8,3.51,1.45,4.59.45.75.81,1.59,1.04,2.49.24.89.36,1.84.36,2.8s-.6,1.78-1.35,1.78h-9.71c-.75,0-1.35-.8-1.35-1.78s.13-1.91.36-2.8c.24-.89.59-1.74,1.04-2.49.65-1.08,1.16-2.65,1.45-4.59.19-1.26.33-2.71.41-4.32-.52.01-1.03.02-1.54.04-.08,1.51-.21,2.87-.39,4.05-.25,1.68-.69,3.11-1.24,4.02-.53.87-.94,1.85-1.21,2.89-.28,1.03-.42,2.11-.42,3.2,0,1.86,1.27,3.32,2.89,3.32h9.69c1.62,0,2.89-1.46,2.89-3.32,0-1.09-.14-2.16-.42-3.2-.28-1.04-.69-2.01-1.21-2.89h0Z"/>
            <path class="cls-1" d="M19.87,44.42c.38-.37.75-.73,1.13-1.09v-1.35c-.49.03-.98.06-1.47.1v1.04c-.61.05-1.22.11-1.82.18v-4.28c.61-.07,1.21-.13,1.82-.18v1.04c.49-.04.98-.07,1.47-.1v-1.35c-.38-.32-.75-.64-1.13-.95-.84.07-1.67.15-2.51.25-.38.39-.75.78-1.12,1.17v4.9c.37.29.75.58,1.12.87.83-.1,1.67-.18,2.51-.25h0Z"/>
            <path class="cls-1" d="M21.82,37.36v5.93c.38.32.75.65,1.13.98.84-.02,1.68-.02,2.52,0,.38-.33.75-.66,1.13-.98v-5.93c-.49-.02-.98-.04-1.48-.04v5.61c-.61-.01-1.22-.01-1.82,0v-5.61c-.49,0-.98.02-1.48.04h0Z"/>
            <path class="cls-1" d="M31.17,37.85s-.08-.08-.12-.12c-1.21-.15-2.42-.26-3.64-.32v6.94c.49.03.98.06,1.47.1v-2.64c.72.06,1.44.13,2.16.22.38-.29.75-.58,1.12-.87v-2.26c-.33-.35-.67-.7-1.01-1.05h0ZM30.71,40.67c-.6-.07-1.21-.13-1.82-.18v-1.65c.61.05,1.21.11,1.82.18v1.65Z"/>
            <path class="cls-1" d="M7.35,25.5c-.52.11-1.04.23-1.55.36-.11.03-.23.05-.34.08-.6.75-1.19,1.51-1.79,2.27v3.71c.46.35.92.7,1.39,1.06.12.09.24.19.36.28.4-.1.8-.19,1.2-.28.77-.18,1.54-.34,2.32-.5v2.62c-.93.18-1.86.39-2.78.6-.05.01-.09.02-.14.03v-1.83c-.38.09-.77.19-1.15.28-.4.1-.79.2-1.19.31v2.39c.2.14.39.29.58.43.4.3.8.6,1.21.9,1.33-.33,2.67-.62,4.02-.88.17-.2.33-.39.5-.59.44-.51.88-1.03,1.32-1.53v-3.7c-.21-.17-.43-.34-.65-.51,0,0,0,0,0-.01-.41-.32-.81-.64-1.22-.96-.83.16-1.67.33-2.5.52-.31.07-.62.14-.92.21v-2.62c.4-.09.79-.18,1.19-.27.58-.13,1.15-.25,1.73-.36v1.83c.79-.16,1.57-.3,2.36-.43v-2.38c-.61-.5-1.21-1-1.81-1.49-.71.14-1.42.28-2.12.44h0Z"/>
            <path class="cls-1" d="M18.95,33.78c-1.32.09-2.64.21-3.95.36v-2.62c1.05-.12,2.1-.23,3.16-.31v-2.34c-1.05.08-2.11.18-3.16.31v-2.62c1.32-.16,2.63-.28,3.95-.36v-2.35c-2.12.14-4.23.37-6.34.68v12.28c2.11-.31,4.22-.54,6.34-.68v-2.35h0Z"/>
            <path class="cls-1" d="M28.06,25.58c-.61-.63-1.22-1.26-1.83-1.88-1.98-.05-3.95-.03-5.93.07v12.28c.3-.01.6-.03.9-.04.5-.02,1-.03,1.5-.04v-4.67c.99-.02,1.98-.02,2.97,0v4.67c.52,0,1.05.02,1.57.04.27.01.54.02.81.04v-5.49c-.22-.22-.44-.44-.65-.65.22-.2.44-.41.65-.61v-3.71h0ZM25.67,28.96c-.99-.02-1.98-.02-2.97,0v-2.91c.99-.02,1.98-.02,2.97,0v2.91h0Z"/>
            <path class="cls-1" d="M36.39,24.63c-2.32-.36-4.66-.62-7-.78v2.35c.77.05,1.54.11,2.3.19v9.93c.8.08,1.59.17,2.39.27v-9.93c.77.1,1.54.21,2.3.33v-2.35h0Z"/>
            <path class="cls-1" d="M38.82,23.33c.1-.09.67.16,1.69.78,0,0,0,0,0,0h0c.18.11.36.21.52.29.64.33,1.15.47,1.53.4.07-.01.14-.03.2-.05.16-.07.3-.16.42-.28.25-.25.42-.61.52-1.1-.4-.18-.8-.36-1.2-.53-.18-.08-.35-.15-.53-.23.02.34-.31.3-.99-.11-.23-.14-.51-.32-.82-.55-.23-.13-.44-.23-.63-.31-.48-.21-.9-.28-1.27-.22-.39.06-.7.26-.93.57-.2.28-.3.64-.33,1.06.56.21,1.12.42,1.68.64-.02-.15.02-.27.13-.36h0Z"/>
            <path class="cls-1" d="M43.3,32.57c-.55-2.32-1.1-4.63-1.66-6.94-.19-.04-.38-.08-.56-.13-.6-.13-1.2-.26-1.8-.37-1.05,3.66-2.09,7.33-3.15,11.03-.06.22-.13.45-.19.67.79.12,1.59.25,2.37.4.04-.16.09-.32.14-.47.14-.5.29-1.01.43-1.51,1,.19,2,.4,2.99.63.16.66.32,1.32.48,1.99.02.08.04.15.05.23.57.14,1.14.28,1.71.43.21.05.41.11.62.17-.48-2.04-.97-4.08-1.45-6.12h0ZM39.53,33.02c.3-1.06.61-2.11.91-3.17.29,1.18.57,2.36.85,3.54-.59-.13-1.17-.25-1.76-.37Z"/>
          </g>
        </g>
      </g>
      <g>
        <g>
          <path class="cls-1" d="M26.96,21.81c.1,0,.19,0,.29,0h0c-.1,0-.19,0-.29,0Z"/>
          <path class="cls-1" d="M20.91,21.8h0c.1,0,.19,0,.29,0-.1,0-.19,0-.29,0Z"/>
        </g>
        <path class="cls-1" d="M29.6,19.43c-.8.04-1.61.07-2.41.09-.05-2.11-.11-4.21-.17-6.32.76-.02,1.52-.05,2.28-.08-.03-.69-.06-1.37-.1-2.06-.85.04-1.71.07-2.56.09-.18,0-.37,0-.55.01-.27,0-.55,0-.82.01-.79,0-1.58,0-2.37,0-.28,0-.56,0-.84-.01-.18,0-.36,0-.54-.01-.85-.02-1.71-.05-2.56-.09-.03.69-.06,1.37-.1,2.06.76.04,1.52.06,2.28.08-.06,2.11-.11,4.21-.17,6.32-.8-.02-1.61-.05-2.41-.09-.04.76-.07,1.52-.11,2.28.82.04,1.64.07,2.46.09.1,0,.19,0,.29,0,.04,0,.08,0,.13,0,.42.01.85.02,1.27.02.19,0,.38,0,.56,0,.61,0,1.22,0,1.84,0,.19,0,.38,0,.56,0,.42,0,.85-.01,1.27-.02.04,0,.08,0,.13,0,.1,0,.19,0,.29,0,.82-.02,1.64-.05,2.46-.09-.04-.76-.07-1.52-.11-2.28h0ZM23.18,19.56c.02-2.11.03-4.22.05-6.32.57,0,1.14,0,1.7,0,.02,2.11.03,4.22.05,6.32-.6,0-1.2,0-1.8,0h0Z"/>
      </g>
    </g>
  </g>
</svg>