<?xml version="1.0" encoding="UTF-8"?>
<svg id="Layer_2" xmlns="http://www.w3.org/2000/svg" viewBox="0 0 48.42 67">
  <defs>
    <style>
      .cls-1 {
        fill: #fff;
      }
    </style>
  </defs>
  <g id="Layer_1-2" data-name="Layer_1">
    <g>
      <g id="Layer_1-2">
        <g>
          <g>
            <path d="M48.27,38.29c-.16.69-.46,1.38-.98,2.01-.92,1.13-2.31,1.78-3.81,1.78-.23,0-.47-.01-.7-.05-.23-.03-.45-.08-.67-.14-1.28-.38-4.67-1.32-6.09-1.7-.02,0-.04-.01-.06-.02-.44-.13-.9-.25-1.36-.36-.53-.13-1.07-.25-1.62-.36v3.99c0,3.52-.01,6.09.94,8.02.84,1.4,1.52,3.21,1.88,5.01.51,2.56.3,4.87-.59,6.67-.55,1.1-1.32,1.99-2.31,2.65-1,.67-2.17,1.07-3.47,1.19-.12.01-.24.02-.36.02h-9.69c-1.96,0-3.85-.87-5.16-2.38-1.19-1.37-1.85-3.16-1.85-5.05v-.03c0-2.86.76-5.71,2.14-8.05.96-1.93.96-4.5.95-8.03,0-.22,0-2.69,0-3.99-.44.08-.87.17-1.3.26-1.2.26-2.38.57-3.51.93-.03,0-.06.02-.09.03,0,0-3.84,1.1-4.24,1.21-.1.03-.21.06-.31.08-.36.08-.73.12-1.09.12-1.46,0-2.82-.64-3.73-1.77-.52-.65-.83-1.36-.99-2.05-.29-1.2-.15-2.36.01-3.1,1.02-4.84,1.58-9.74,1.66-14.58-.11-4.15-.58-8.28-1.41-12.32-.02-.1-.04-.2-.05-.3-.01-.07-.04-.22-.07-.33-.19-.91-.5-2.37-.15-3.84.16-.69.46-1.37.98-2.01C2.06.66,3.44.01,4.95.01c.23,0,.47.01.7.05.23.03.45.07.67.14,1.28.38,4.67,1.32,6.09,1.7.02,0,.04.01.06.02,3.5,1,7.51,1.53,11.59,1.53,4.75,0,9.5-.7,13.73-2.01.03-.01.06-.02.09-.03,0,0,3.84-1.1,4.24-1.21.1-.03.21-.06.31-.08.36-.08.73-.12,1.09-.12,1.46,0,2.82.64,3.73,1.77.53.65.83,1.36.99,2.05.28,1.2.15,2.36-.01,3.1-1.02,4.84-1.58,9.74-1.66,14.58.11,4.15.58,8.28,1.41,12.32.02.1.04.2.05.3.01.07.04.22.07.33.19.92.5,2.37.15,3.84h0Z"/>
            <g>
              <g id="Layer_2-2">
                <g id="Layer_1-2-2" data-name="Layer_1-2">
                  <g id="S.F.C">
                    <path class="cls-1" d="M26.4,57.81c-.28.94-1.15,1.63-2.18,1.63s-1.91-.69-2.18-1.63h4.37,0Z"/>
                    <path class="cls-1" d="M26.44,56.69h-4.45c.22-1.03,1.13-1.8,2.22-1.8h0c1.09,0,2.01.77,2.22,1.8Z"/>
                    <path class="cls-1" d="M25.93,57.57s-.01.06-.03.08c-.02.02-.05.03-.08.03h0c-.06,0-.11-.05-.11-.11s.05-.11.11-.11.11.05.11.11Z"/>
                    <path class="cls-1" d="M25.19,57.26c0,.13.1.23.23.23.07,0,.13-.03.18-.08v.21c-.06.04-.14.06-.21.06-.22,0-.41-.19-.41-.42s.18-.42.41-.42c.07,0,.15.02.21.06v.21c-.04-.05-.11-.08-.17-.08h0c-.12,0-.23.1-.23.23h0Z"/>
                    <path class="cls-1" d="M24.48,57.65h0s-.11.04-.16,0c-.04-.04-.04-.11,0-.16s.11-.04.16,0c.04.04.04.11,0,.16Z"/>
                    <polygon class="cls-1" points="24.08 57.03 24.08 57.18 24.35 57.18 24.35 57.35 24.08 57.35 24.08 57.66 23.87 57.66 23.87 56.86 24.37 56.86 24.37 57.03 24.08 57.03"/>
                    <path class="cls-1" d="M23.36,57.57c0,.06-.05.11-.11.11h0c-.06,0-.11-.05-.11-.11,0-.06.05-.11.11-.11.06,0,.11.05.11.11h0Z"/>
                    <path class="cls-1" d="M23.05,57.42s0,.08-.02.12c-.01.03-.04.06-.06.08s-.06.03-.09.04c-.03,0-.07.01-.1.01-.04,0-.08,0-.11-.01-.04,0-.07-.02-.11-.03-.03-.01-.07-.03-.1-.06l.08-.17s.02.02.03.02c.02.01.04.02.06.03.03.01.05.02.08.03.03,0,.06.01.08.01.02,0,.05,0,.07-.02.01-.01.02-.03.02-.04,0-.02,0-.04-.02-.05-.02-.01-.04-.02-.06-.03-.03,0-.06-.02-.09-.03-.04-.01-.08-.03-.11-.05-.03-.02-.05-.04-.07-.07-.02-.03-.02-.07-.02-.1,0-.05.01-.1.04-.15.02-.04.06-.07.1-.09.04-.02.09-.03.14-.03.03,0,.07,0,.1.01.03,0,.06.02.09.03.03.01.05.03.08.04l-.08.16s-.01-.01-.02-.02c-.02,0-.03-.02-.05-.03-.02-.01-.04-.02-.06-.03s-.05-.01-.07-.01c-.02,0-.05,0-.07.02-.02.01-.03.03-.03.05,0,.02,0,.03.02.04.02.01.03.02.05.03.02,0,.05.02.08.03.04.01.08.03.12.05.03.02.06.04.08.08.02.03.03.07.03.12h0Z"/>
                  </g>
                </g>
              </g>
              <path class="cls-1" d="M25.13,9.14c3.54-.1,7.4-.51,11.26-1.48l1.09-.28.17-.04c.18-.05.36-.09.54-.14.42-.11.84-.23,1.26-.34l3.3-.94h0c-.02.06-.27.98-.58,2.62-.52,2.74-1.2,7.47-1.18,13.45v.11l.28.07h0c.1.06.18.1.24.14v-.08s-.02-.29-.02-.29l.66.28c.12.05.23.1.35.15,0-.66,0-1.33,0-1.99.04-2.22.18-4.43.42-6.63.23-2.11.58-4.2,1.03-6.27.1-.46.19-.93.25-1.39.05-.44.14-.96.03-1.39-.11-.4-.55-.64-.95-.53l-4.28,1.22c-.44.12-.84.23-1.22.33-.18.05-.36.09-.53.14l-.17.04-1.1.28c-3.36.84-7.03,1.33-10.92,1.43l-.7.02s-.12,0-.15,0c-.03,0-.11,0-.15,0l-.7-.02c-3.89-.1-7.57-.59-10.92-1.43l-1.1-.28-.17-.04c-.17-.04-.35-.09-.53-.14-.38-.1-.78-.21-1.22-.33l-4.28-1.22c-.4-.12-.84.12-.95.53-.12.43-.03.95.03,1.39.06.47.15.93.25,1.39.45,2.08.8,4.16,1.03,6.27.24,2.2.38,4.41.42,6.63.02,1.34.01,2.68-.04,4.02.51-.07,1.03-.14,1.54-.21.23-7.02-.55-12.58-1.14-15.65-.31-1.63-.57-2.56-.58-2.61h0s3.3.94,3.3.94c.42.12.84.23,1.26.34.18.05.36.09.54.14l.17.04,1.09.28c3.86.97,7.73,1.38,11.26,1.48h1.82Z"/>
              <path class="cls-1" d="M31.95,59.57c0,1.86-1.27,3.32-2.89,3.32h-9.69c-1.62,0-2.89-1.46-2.89-3.32,0-1.09.14-2.16.42-3.2.28-1.04.69-2.01,1.21-2.89.55-.91.99-2.34,1.24-4.02.07-.49.14-1.02.2-1.57h1.55c-.06.64-.14,1.24-.22,1.8-.29,1.94-.8,3.51-1.45,4.59-.45.75-.81,1.59-1.05,2.49-.24.89-.36,1.84-.36,2.8s.6,1.78,1.35,1.78h9.71c.75,0,1.35-.8,1.35-1.78s-.12-1.9-.36-2.8c-.24-.89-.59-1.73-1.04-2.49-.65-1.08-1.16-2.65-1.45-4.59-.08-.57-.16-1.17-.22-1.8h1.53c.06.55.12,1.08.2,1.57.25,1.68.69,3.11,1.24,4.02.53.87.94,1.85,1.21,2.89.28,1.03.42,2.11.42,3.2h0Z"/>
              <path class="cls-1" d="M19.87,44.42c.38-.37.75-.73,1.13-1.09v-1.35c-.49.03-.98.06-1.47.1v1.04c-.61.05-1.22.11-1.82.18v-4.28c.61-.07,1.22-.13,1.82-.18v1.04c.49-.04.98-.07,1.47-.1v-1.34c-.38-.32-.75-.64-1.13-.95-.84.06-1.67.15-2.51.25-.37.39-.75.78-1.12,1.17v4.9c.37.29.75.58,1.12.87.83-.1,1.67-.18,2.51-.25h0Z"/>
              <path class="cls-1" d="M21.82,37.36v5.93c.38.32.75.65,1.13.98.84-.02,1.68-.02,2.52,0,.38-.33.75-.66,1.13-.98v-5.93c-.49-.02-.98-.03-1.48-.04v5.61c-.61,0-1.22,0-1.82,0v-5.61c-.49,0-.98.02-1.48.04h0Z"/>
              <path class="cls-1" d="M31.17,37.85s-.08-.08-.12-.12c-1.21-.15-2.42-.25-3.64-.32v6.94c.49.03.98.06,1.47.1v-2.64c.72.06,1.44.13,2.16.22.37-.29.75-.58,1.12-.87v-2.26c-.33-.35-.67-.7-1.01-1.05h0ZM30.71,40.66c-.6-.07-1.21-.13-1.82-.18v-1.65c.6.05,1.21.11,1.82.18v1.65Z"/>
              <path class="cls-1" d="M7.35,25.5c-.52.11-1.04.23-1.55.36-.12.03-.23.06-.34.08-.6.75-1.2,1.51-1.79,2.27v3.71c.46.35.92.7,1.39,1.06.12.09.24.19.36.28.4-.1.8-.19,1.2-.28.77-.18,1.55-.34,2.32-.5v2.62c-.93.18-1.86.38-2.78.6-.05.01-.09.02-.14.03v-1.83c-.38.09-.77.19-1.15.28-.4.1-.79.2-1.19.31v2.39c.19.14.39.29.58.43.4.3.8.6,1.21.9,1.33-.33,2.67-.62,4.02-.88.17-.2.33-.39.5-.59.44-.51.88-1.03,1.31-1.53v-3.7c-.21-.17-.43-.34-.65-.51,0,0,0,0,0-.01-.41-.32-.81-.64-1.22-.96-.84.16-1.67.33-2.5.52-.31.07-.62.14-.92.21v-2.62c.4-.09.79-.19,1.19-.27.58-.13,1.15-.25,1.73-.36v1.83c.79-.16,1.57-.3,2.36-.43v-2.38c-.6-.5-1.21-1-1.81-1.48-.71.14-1.42.28-2.12.44h0Z"/>
              <path class="cls-1" d="M18.96,33.78c-1.32.09-2.64.21-3.95.36v-2.62c1.05-.12,2.1-.23,3.16-.31v-2.34c-1.05.08-2.11.18-3.16.31v-2.62c1.32-.16,2.63-.28,3.95-.36v-2.35c-2.12.14-4.23.37-6.34.68v12.28c2.11-.31,4.22-.54,6.34-.68v-2.35h0Z"/>
              <path class="cls-1" d="M28.06,25.58c-.61-.63-1.22-1.26-1.83-1.88-1.98-.05-3.95-.03-5.93.07v12.28c.3-.02.6-.03.9-.04.5-.02,1-.03,1.5-.04v-4.67c.99-.02,1.98-.02,2.97,0v4.67c.52,0,1.05.02,1.57.05.27.01.54.02.81.04v-5.49c-.22-.22-.44-.44-.65-.65.22-.21.44-.41.65-.61v-3.71h0ZM25.67,28.96c-.99-.02-1.98-.02-2.97,0v-2.91c.99-.02,1.98-.02,2.97,0v2.91Z"/>
              <path class="cls-1" d="M36.39,24.63c-2.32-.36-4.65-.62-6.99-.78v2.35c.77.05,1.54.11,2.3.19v9.93c.8.08,1.59.16,2.39.27v-9.93c.77.1,1.53.21,2.3.33v-2.35h0Z"/>
              <path class="cls-1" d="M38.82,23.33c.1-.09.67.16,1.69.78,0,0,0,0,0,0h0c.18.11.36.21.52.29.64.33,1.15.47,1.53.4.07-.01.14-.03.2-.05.16-.06.3-.16.42-.28.25-.25.42-.61.52-1.1-.4-.18-.8-.36-1.2-.53-.18-.08-.35-.15-.53-.23.02.34-.31.3-.99-.11-.23-.14-.51-.32-.82-.55-.23-.13-.44-.23-.63-.31-.48-.21-.9-.28-1.27-.22-.4.06-.7.25-.93.57-.19.28-.31.64-.33,1.06.56.21,1.12.42,1.68.64-.02-.15.03-.27.13-.36h0Z"/>
              <path class="cls-1" d="M43.3,32.57c-.55-2.32-1.1-4.63-1.66-6.93-.19-.04-.37-.08-.56-.13-.6-.13-1.2-.25-1.8-.37-1.05,3.66-2.1,7.33-3.15,11.03-.06.22-.13.45-.19.67.79.12,1.59.25,2.37.4.05-.16.09-.32.13-.47.14-.5.29-1.01.43-1.51,1,.19,2,.4,3,.63.16.66.32,1.32.48,1.99.02.08.04.15.06.23.57.14,1.14.28,1.71.43.21.05.41.11.62.16-.48-2.04-.97-4.08-1.45-6.11h0ZM39.53,33.02c.3-1.06.6-2.11.91-3.17.29,1.18.57,2.36.85,3.54-.58-.13-1.17-.25-1.76-.37h0Z"/>
            </g>
          </g>
          <g>
            <path class="cls-1" d="M20.33,45.42v.38h-.63v.42h.5v.38h-.5v.8h-.38v-1.99h1.01Z"/>
            <path class="cls-1" d="M21.56,45.42v.38h-.63v.42h.5v.38h-.5v.42h.63v.38h-1.01v-1.99h1.01Z"/>
            <path class="cls-1" d="M22.82,45.42h.41v1.99h-.38v-.81l-.19.81h-.33l-.19-.81v.81h-.38v-1.99h.41l.32.97.32-.97h0Z"/>
            <path class="cls-1" d="M23.45,45.42h.38v1.99h-.38v-1.99Z"/>
            <path class="cls-1" d="M24.97,45.42h.38v1.99h-.43l-.5-1.13v1.13h-.38v-1.99h.43l.5,1.13v-1.13h0Z"/>
            <path class="cls-1" d="M25.56,45.42h.38v1.99h-.38v-1.99Z"/>
            <path class="cls-1" d="M27.08,45.42h.38v1.99h-.43l-.5-1.13v1.13h-.38v-1.99h.43l.5,1.13v-1.13h0Z"/>
            <path class="cls-1" d="M28.06,47.4h-.38l.53-1.99h.38l.5,1.99h-.38l-.09-.34h-.48l-.09.34ZM28.4,46.14l-.15.54h.28l-.14-.54h0Z"/>
          </g>
        </g>
      </g>
      <g>
        <path class="cls-1" d="M22.62,10.64h3.18v10.76h-3.18v-10.76Z"/>
        <path class="cls-1" d="M19.93,12.9v-2.26h8.56v2.26h-8.56Z"/>
        <path class="cls-1" d="M19.93,21.4v-2.29h8.56v2.29h-8.56Z"/>
      </g>
    </g>
  </g>
</svg>